<svg width="274" height="247" viewBox="0 0 274 247" fill="none" xmlns="http://www.w3.org/2000/svg">
<path d="M236.84 106.956C235.446 99.6745 232.784 92.6373 228.954 86.1042C222.258 74.7422 210.125 57.4917 195.154 50.7783C172.028 40.4043 150.152 39.9103 128.879 56.2123C107.605 72.5143 91.1543 118.95 83.2796 126.854C75.4048 134.758 53.8958 136.24 44.5031 148.59C35.1104 160.94 34.924 190.086 34.924 190.086H240.024C240.024 190.086 246.233 155.116 236.84 106.956Z" fill="#7AAB56"/>
<path opacity="0.8" d="M236.84 106.956C235.446 99.6745 232.784 92.6373 228.954 86.1042C222.258 74.7422 210.125 57.4917 195.154 50.7783C172.028 40.4043 150.152 39.9103 128.879 56.2123C107.605 72.5143 91.1543 118.95 83.2796 126.854C75.4048 134.758 53.8958 136.24 44.5031 148.59C35.1104 160.94 34.924 190.086 34.924 190.086H240.024C240.024 190.086 246.233 155.116 236.84 106.956Z" fill="white"/>
<path d="M212.197 89.2164C209.752 88.011 208.645 89.0139 207.758 88.011C206.87 87.0082 210.196 84.4098 203.533 81.8064C203.533 81.8064 203.089 76.1995 193.981 75.997C184.873 75.7944 187.317 81.6039 184.873 82.992C182.429 84.3801 181.761 82.1917 179.317 83.5947C176.872 84.9976 177.985 87.7986 175.985 88.1988C173.985 88.5989 171.321 86.3957 168.861 87.7986C166.4 89.2016 166.417 90.402 165.304 90.402C164.192 90.402 161.972 89.6017 160.641 90.402C159.309 91.2023 157.753 92.2051 157.753 92.2051H213.978C213.978 92.2051 214.641 90.402 212.197 89.2164Z" fill="#7AAB56"/>
<path opacity="0.5" d="M212.197 89.2164C209.752 88.011 208.645 89.0139 207.758 88.011C206.87 87.0082 210.196 84.4098 203.533 81.8064C203.533 81.8064 203.089 76.1995 193.981 75.997C184.873 75.7944 187.317 81.6039 184.873 82.992C182.429 84.3801 181.761 82.1917 179.317 83.5947C176.872 84.9976 177.985 87.7986 175.985 88.1988C173.985 88.5989 171.321 86.3957 168.861 87.7986C166.4 89.2016 166.417 90.402 165.304 90.402C164.192 90.402 161.972 89.6017 160.641 90.402C159.309 91.2023 157.753 92.2051 157.753 92.2051H213.978C213.978 92.2051 214.641 90.402 212.197 89.2164Z" fill="#7AAB56"/>
<path d="M163.742 62.0909C162.296 61.3795 161.638 61.9723 161.112 61.3795C160.586 60.7867 162.559 59.2405 158.608 57.6992C158.608 57.6992 158.345 54.3746 152.947 54.2412C147.549 54.1078 148.996 57.5658 147.549 58.3957C146.102 59.2257 145.708 57.9017 144.261 58.7514C142.814 59.6011 143.472 61.2461 142.288 61.4832C141.105 61.7204 139.548 60.4113 138.074 61.2461C136.6 62.081 136.627 62.7874 135.964 62.7874C135.301 62.7874 133.991 62.2934 133.224 62.7874C132.457 63.2814 131.515 63.8544 131.515 63.8544H164.827C164.827 63.8544 165.195 62.8022 163.742 62.0909Z" fill="#7AAB56"/>
<path opacity="0.5" d="M163.742 62.0909C162.296 61.3795 161.638 61.9723 161.112 61.3795C160.586 60.7867 162.559 59.2405 158.608 57.6992C158.608 57.6992 158.345 54.3746 152.947 54.2412C147.549 54.1078 148.996 57.5658 147.549 58.3957C146.102 59.2257 145.708 57.9017 144.261 58.7514C142.814 59.6011 143.472 61.2461 142.288 61.4832C141.105 61.7204 139.548 60.4113 138.074 61.2461C136.6 62.081 136.627 62.7874 135.964 62.7874C135.301 62.7874 133.991 62.2934 133.224 62.7874C132.457 63.2814 131.515 63.8544 131.515 63.8544H164.827C164.827 63.8544 165.195 62.8022 163.742 62.0909Z" fill="#7AAB56"/>
<path d="M147.297 109.762C145.85 109.051 145.193 109.643 144.666 109.051C144.14 108.458 146.113 106.911 142.162 105.37C142.162 105.37 141.899 102.046 136.501 101.912C131.103 101.779 132.55 105.237 131.103 106.067C129.657 106.897 129.257 105.573 127.815 106.422C126.374 107.272 127.026 108.892 125.843 109.154C124.659 109.416 123.103 108.087 121.629 108.917C120.154 109.747 120.176 110.458 119.519 110.458C118.861 110.458 117.546 109.964 116.779 110.458C116.012 110.952 115.064 111.53 115.064 111.53H148.376C148.376 111.53 148.744 110.473 147.297 109.762Z" fill="#7AAB56"/>
<path opacity="0.5" d="M147.297 109.762C145.85 109.051 145.193 109.643 144.666 109.051C144.14 108.458 146.113 106.911 142.162 105.37C142.162 105.37 141.899 102.046 136.501 101.912C131.103 101.779 132.55 105.237 131.103 106.067C129.657 106.897 129.257 105.573 127.815 106.422C126.374 107.272 127.026 108.892 125.843 109.154C124.659 109.416 123.103 108.087 121.629 108.917C120.154 109.747 120.176 110.458 119.519 110.458C118.861 110.458 117.546 109.964 116.779 110.458C116.012 110.952 115.064 111.53 115.064 111.53H148.376C148.376 111.53 148.744 110.473 147.297 109.762Z" fill="#7AAB56"/>
<g opacity="0.6">
<path opacity="0.6" d="M212.197 89.2164C209.752 88.011 208.645 89.0139 207.758 88.011C206.87 87.0082 210.196 84.4098 203.533 81.8064C203.533 81.8064 203.089 76.1995 193.981 75.997C184.873 75.7944 187.317 81.6039 184.873 82.992C182.429 84.3801 181.761 82.1917 179.317 83.5947C176.872 84.9976 177.985 87.7986 175.985 88.1988C173.985 88.5989 171.321 86.3957 168.861 87.7986C166.4 89.2016 166.417 90.402 165.304 90.402C164.192 90.402 161.972 89.6017 160.641 90.402C159.309 91.2023 157.753 92.2051 157.753 92.2051H213.978C213.978 92.2051 214.641 90.402 212.197 89.2164Z" fill="white"/>
<path opacity="0.5" d="M212.197 89.2164C209.752 88.011 208.645 89.0139 207.758 88.011C206.87 87.0082 210.196 84.4098 203.533 81.8064C203.533 81.8064 203.089 76.1995 193.981 75.997C184.873 75.7944 187.317 81.6039 184.873 82.992C182.429 84.3801 181.761 82.1917 179.317 83.5947C176.872 84.9976 177.985 87.7986 175.985 88.1988C173.985 88.5989 171.321 86.3957 168.861 87.7986C166.4 89.2016 166.417 90.402 165.304 90.402C164.192 90.402 161.972 89.6017 160.641 90.402C159.309 91.2023 157.753 92.2051 157.753 92.2051H213.978C213.978 92.2051 214.641 90.402 212.197 89.2164Z" fill="white"/>
</g>
<g opacity="0.6">
<path opacity="0.6" d="M163.742 62.0909C162.296 61.3795 161.638 61.9723 161.112 61.3795C160.586 60.7867 162.559 59.2405 158.608 57.6992C158.608 57.6992 158.345 54.3746 152.947 54.2412C147.549 54.1078 148.996 57.5658 147.549 58.3957C146.102 59.2257 145.708 57.9017 144.261 58.7514C142.814 59.6011 143.472 61.2461 142.288 61.4832C141.105 61.7204 139.548 60.4113 138.074 61.2461C136.6 62.081 136.627 62.7874 135.964 62.7874C135.301 62.7874 133.991 62.2934 133.224 62.7874C132.457 63.2814 131.515 63.8544 131.515 63.8544H164.827C164.827 63.8544 165.195 62.8022 163.742 62.0909Z" fill="white"/>
<path opacity="0.5" d="M163.742 62.0909C162.296 61.3795 161.638 61.9723 161.112 61.3795C160.586 60.7867 162.559 59.2405 158.608 57.6992C158.608 57.6992 158.345 54.3746 152.947 54.2412C147.549 54.1078 148.996 57.5658 147.549 58.3957C146.102 59.2257 145.708 57.9017 144.261 58.7514C142.814 59.6011 143.472 61.2461 142.288 61.4832C141.105 61.7204 139.548 60.4113 138.074 61.2461C136.6 62.081 136.627 62.7874 135.964 62.7874C135.301 62.7874 133.991 62.2934 133.224 62.7874C132.457 63.2814 131.515 63.8544 131.515 63.8544H164.827C164.827 63.8544 165.195 62.8022 163.742 62.0909Z" fill="white"/>
</g>
<g opacity="0.6">
<path opacity="0.6" d="M147.297 109.762C145.85 109.051 145.193 109.643 144.666 109.051C144.14 108.458 146.113 106.911 142.162 105.37C142.162 105.37 141.899 102.046 136.501 101.912C131.103 101.779 132.55 105.237 131.103 106.067C129.657 106.897 129.257 105.573 127.815 106.422C126.374 107.272 127.026 108.892 125.843 109.154C124.659 109.416 123.103 108.087 121.629 108.917C120.154 109.747 120.176 110.458 119.519 110.458C118.861 110.458 117.546 109.964 116.779 110.458C116.012 110.952 115.064 111.53 115.064 111.53H148.376C148.376 111.53 148.744 110.473 147.297 109.762Z" fill="white"/>
<path opacity="0.5" d="M147.297 109.762C145.85 109.051 145.193 109.643 144.666 109.051C144.14 108.458 146.113 106.911 142.162 105.37C142.162 105.37 141.899 102.046 136.501 101.912C131.103 101.779 132.55 105.237 131.103 106.067C129.657 106.897 129.257 105.573 127.815 106.422C126.374 107.272 127.026 108.892 125.843 109.154C124.659 109.416 123.103 108.087 121.629 108.917C120.154 109.747 120.176 110.458 119.519 110.458C118.861 110.458 117.546 109.964 116.779 110.458C116.012 110.952 115.064 111.53 115.064 111.53H148.376C148.376 111.53 148.744 110.473 147.297 109.762Z" fill="white"/>
</g>
<path d="M195.746 189.721H223.984C223.436 186.608 221.244 187.157 220.932 182.311C220.784 179.88 223.277 176.877 223.058 173.681C222.883 171.052 220.006 168.355 219.77 165.347C219.573 162.635 222.022 159.621 221.787 156.697C221.562 153.93 218.647 151.263 218.389 148.403C218.131 145.542 220.543 142.554 220.258 139.718C219.973 136.882 217.008 134.284 216.69 131.483C216.367 128.608 218.696 125.516 218.334 122.769C217.956 119.849 214.898 117.335 214.498 114.638C214.032 111.644 216.197 108.443 215.693 105.859C215.074 102.693 211.802 100.401 211.111 98.0639C209.829 93.7118 210.015 89.5128 208.476 89.2411C206.859 88.9496 206.492 93.0597 205.27 97.6391C204.651 99.951 201.434 102.293 200.93 105.459C200.502 108.028 202.765 111.145 202.393 114.129C202.064 116.801 199.105 119.365 198.792 122.27C198.524 125.002 200.941 128.01 200.699 130.866C200.469 133.642 197.581 136.3 197.379 139.105C197.176 141.911 199.675 144.875 199.505 147.662C199.335 150.448 196.491 153.204 196.348 155.951C196.195 158.851 198.732 161.78 198.612 164.472C198.475 167.436 195.674 170.193 195.57 172.801C195.444 175.968 198.025 178.887 197.949 181.298C197.773 186.529 195.115 185.448 195.022 189.656L195.746 189.721Z" fill="#7AAB56"/>
<path d="M207.867 97.6292V188.545" stroke="#263238" stroke-miterlimit="10"/>
<path d="M212.279 107.158L207.681 110.74L203.916 106.215" stroke="#263238" stroke-miterlimit="10"/>
<path d="M212.279 122.986L207.681 126.563L203.916 122.043" stroke="#263238" stroke-miterlimit="10"/>
<path d="M212.279 137.866L207.681 141.447L203.916 136.927" stroke="#263238" stroke-miterlimit="10"/>
<path d="M212.279 155.575L207.681 159.157L203.916 154.637" stroke="#263238" stroke-miterlimit="10"/>
<path d="M212.279 173.473L207.681 177.055L203.916 172.534" stroke="#263238" stroke-miterlimit="10"/>
<path d="M166.044 189.721H190.534C190.063 187.023 188.139 187.498 187.882 183.299C187.756 181.189 189.92 178.581 189.734 175.815C189.575 173.537 187.082 171.196 186.89 168.587C186.715 166.236 188.846 163.623 188.638 161.083C188.441 158.688 185.898 156.386 185.69 153.896C185.482 151.406 187.559 148.822 187.334 146.362C187.109 143.902 184.512 141.645 184.243 139.224C183.958 136.729 185.975 134.047 185.668 131.666C185.339 129.132 182.692 126.948 182.331 124.616C181.931 122.018 183.81 119.242 183.372 117.004C182.824 114.257 179.996 112.266 179.399 110.241C178.303 106.467 178.429 102.831 177.114 102.594C175.711 102.337 175.393 105.904 174.33 109.895C173.782 111.871 171.042 113.926 170.571 116.673C170.198 118.901 172.16 121.613 171.836 124.192C171.551 126.508 168.97 128.731 168.718 131.251C168.483 133.617 170.576 136.23 170.362 138.705C170.149 141.18 167.661 143.408 167.485 145.849C167.31 148.289 169.475 150.853 169.327 153.259C169.179 155.664 166.713 158.065 166.587 160.446C166.455 162.966 168.658 165.505 168.548 167.856C168.433 170.445 166.006 172.796 165.918 175.079C165.808 177.825 168.044 180.359 167.978 182.449C167.825 186.984 165.523 186.045 165.441 189.696L166.044 189.721Z" fill="#7AAB56"/>
<path d="M176.544 109.861V188.703" stroke="#263238" stroke-miterlimit="10"/>
<path d="M180.369 118.125L176.385 121.233L173.119 117.31" stroke="#263238" stroke-miterlimit="10"/>
<path d="M180.369 131.849L176.385 134.956L173.119 131.033" stroke="#263238" stroke-miterlimit="10"/>
<path d="M180.369 144.757L176.385 147.859L173.119 143.942" stroke="#263238" stroke-miterlimit="10"/>
<path d="M180.369 160.115L176.385 163.218L173.119 159.295" stroke="#263238" stroke-miterlimit="10"/>
<path d="M180.369 175.632L176.385 178.739L173.119 174.817" stroke="#263238" stroke-miterlimit="10"/>
<path d="M79.8327 189.721H113.896C113.244 185.966 110.565 186.628 110.208 180.829C110.033 177.894 113.041 174.268 112.778 170.42C112.565 167.249 109.096 163.998 108.827 160.367C108.586 157.092 111.567 153.451 111.26 149.929C110.986 146.594 107.468 143.393 107.161 139.925C106.855 136.547 109.753 132.876 109.414 129.453C109.074 126.029 105.49 122.892 105.112 119.523C104.723 116.065 107.529 112.326 107.101 109.006C106.641 105.489 102.958 102.446 102.46 99.2001C101.912 95.589 104.515 91.7309 103.901 88.6137C103.156 84.7951 99.21 82.0287 98.377 79.2277C96.8316 73.9765 97.0234 68.913 95.1986 68.582C93.2477 68.2313 92.8038 73.196 91.3297 78.7387C90.5844 81.5248 86.7265 84.3505 86.0963 88.1691C85.5812 91.2665 88.2883 95.0308 87.8609 98.6271C87.4608 101.848 83.8714 104.945 83.5207 108.448C83.1919 111.738 86.1073 115.364 85.8223 118.822C85.5428 122.166 82.0575 125.357 81.8164 128.756C81.5753 132.155 84.5564 135.722 84.3756 139.076C84.1619 142.534 80.7423 145.765 80.567 149.074C80.3807 152.577 83.444 156.109 83.307 159.355C83.1426 162.956 79.7669 166.271 79.6409 169.398C79.4929 173.216 82.6055 176.743 82.5069 179.648C82.2987 185.961 79.0929 184.652 78.9778 189.731L79.8327 189.721Z" fill="#7AAB56"/>
<path d="M94.4533 78.6398V188.303" stroke="#263238" stroke-miterlimit="10"/>
<path d="M99.7744 90.1402L94.2286 94.4577L89.6912 89.004" stroke="#263238" stroke-miterlimit="10"/>
<path d="M99.7744 109.223L94.2286 113.541L89.6912 108.092" stroke="#263238" stroke-miterlimit="10"/>
<path d="M99.7744 127.175L94.2286 131.493L89.6912 126.039" stroke="#263238" stroke-miterlimit="10"/>
<path d="M99.7744 148.536L94.2286 152.853L89.6912 147.4" stroke="#263238" stroke-miterlimit="10"/>
<path d="M99.7744 170.124L94.2286 174.441L89.6912 168.988" stroke="#263238" stroke-miterlimit="10"/>
<path d="M72.336 155.788V182.548C72.336 183.836 72.9035 185.071 73.9138 185.982C74.924 186.892 76.2942 187.404 77.7228 187.404H139.291C140.719 187.404 142.089 186.892 143.1 185.982C144.11 185.071 144.677 183.836 144.677 182.548V179.5" stroke="#263238" stroke-width="2" stroke-linecap="round" stroke-linejoin="round"/>
<path d="M74.2814 150.561H69.6946V153.609H74.2814V150.561Z" fill="#263238" stroke="#263238" stroke-linecap="round" stroke-linejoin="round"/>
<path d="M70.27 135.949H47.7034V191.198H70.27V135.949Z" fill="white"/>
<path d="M47.7034 191.198H57.7702V143.26L57.7099 135.949H47.7034V191.198Z" fill="#7AAB56"/>
<path opacity="0.5" d="M47.7034 191.198H57.7702V143.26L57.7099 135.949H47.7034V191.198Z" fill="white"/>
<path d="M62.1651 162.156H60.5814L61.7486 159.295H57.94L56.307 163.302H57.4523L55.4631 168.163L62.1651 162.156Z" fill="#263238"/>
<path d="M70.27 135.949H47.7034V191.198H70.27V135.949Z" stroke="#263238" stroke-miterlimit="10"/>
<path d="M58.9867 152.28C65.2183 152.28 70.27 145.32 70.27 136.734C70.27 128.148 65.2183 121.188 58.9867 121.188C52.7551 121.188 47.7034 128.148 47.7034 136.734C47.7034 145.32 52.7551 152.28 58.9867 152.28Z" fill="white" stroke="#263238" stroke-linecap="round" stroke-linejoin="round"/>
<path d="M61.6226 131.854H56.3454C55.8702 131.854 55.485 132.201 55.485 132.629V136.082C55.485 136.511 55.8702 136.858 56.3454 136.858H61.6226C62.0978 136.858 62.483 136.511 62.483 136.082V132.629C62.483 132.201 62.0978 131.854 61.6226 131.854Z" fill="#7AAB56" stroke="#263238" stroke-linecap="round" stroke-linejoin="round"/>
<path d="M62.8446 145.997C62.8446 145.313 62.6197 144.644 62.1982 144.076C61.7766 143.507 61.1775 143.064 60.4766 142.802C59.7757 142.54 59.0044 142.472 58.2603 142.605C57.5162 142.739 56.8327 143.068 56.2962 143.552C55.7597 144.035 55.3944 144.651 55.2463 145.322C55.0983 145.993 55.1743 146.688 55.4646 147.32C55.755 147.952 56.2466 148.492 56.8775 148.872C57.5083 149.252 58.2499 149.455 59.0086 149.455C59.5124 149.455 60.0112 149.365 60.4766 149.192C60.942 149.018 61.3649 148.763 61.7211 148.442C62.0773 148.121 62.3599 147.74 62.5526 147.32C62.7454 146.901 62.8446 146.451 62.8446 145.997V145.997Z" fill="#263238" stroke="#263238" stroke-linecap="round" stroke-linejoin="round"/>
<path opacity="0.2" d="M60.9157 145.997C60.9157 145.653 60.8026 145.317 60.5906 145.031C60.3786 144.745 60.0774 144.522 59.7249 144.39C59.3724 144.259 58.9846 144.224 58.6104 144.291C58.2362 144.358 57.8925 144.524 57.6227 144.767C57.353 145.01 57.1693 145.32 57.0948 145.658C57.0204 145.995 57.0586 146.344 57.2046 146.662C57.3506 146.98 57.5978 147.252 57.9151 147.443C58.2323 147.634 58.6052 147.736 58.9867 147.736C59.4979 147.734 59.9877 147.551 60.3491 147.225C60.7105 146.899 60.9142 146.458 60.9157 145.997V145.997Z" fill="white"/>
<path d="M60.1923 126.197C60.1923 125.982 60.1216 125.772 59.9892 125.593C59.8567 125.415 59.6684 125.275 59.4481 125.193C59.2278 125.111 58.9854 125.089 58.7515 125.131C58.5177 125.173 58.3028 125.277 58.1342 125.429C57.9656 125.581 57.8508 125.774 57.8043 125.985C57.7578 126.196 57.7817 126.415 57.8729 126.613C57.9642 126.812 58.1187 126.981 58.3169 127.101C58.5152 127.22 58.7483 127.284 58.9867 127.284C59.306 127.283 59.6118 127.168 59.8376 126.964C60.0634 126.761 60.1909 126.485 60.1923 126.197Z" fill="#263238" stroke="#263238" stroke-linecap="round" stroke-linejoin="round"/>
<path d="M73.3717 153.328H71.3715V156.376H73.3717V153.328Z" fill="#263238" stroke="#263238" stroke-linecap="round" stroke-linejoin="round"/>
<path d="M70.27 181.021H47.7034V191.198H70.27V181.021Z" fill="#7AAB56" stroke="#263238" stroke-linecap="round" stroke-linejoin="round"/>
<path d="M244.655 187.764H33.2746V191.465H244.655V187.764Z" fill="white" stroke="#263238" stroke-linecap="round" stroke-linejoin="round"/>
<path d="M244.655 190.59H33.2746V192.329H244.655V190.59Z" fill="#263238" stroke="#263238" stroke-linecap="round" stroke-linejoin="round"/>
<path d="M111.458 149.153H111.162C110.867 149.153 110.577 149.09 110.315 148.97C110.053 148.849 109.826 148.674 109.653 148.459C109.48 148.244 109.367 147.995 109.321 147.733C109.276 147.471 109.3 147.202 109.392 146.95C109.764 145.913 110.395 144.865 111.458 144.707C113.65 144.376 119.678 146.026 119.678 147.177C119.678 148.328 119.678 148.822 118.943 148.822H114.379L110.723 152.448L110.647 152.389C110.458 152.247 110.306 152.069 110.202 151.868C110.098 151.667 110.044 151.448 110.044 151.226C110.044 151.004 110.098 150.785 110.202 150.584C110.306 150.383 110.458 150.205 110.647 150.062C110.973 149.803 111.247 149.496 111.458 149.153Z" fill="#263238" stroke="#263238" stroke-linecap="round" stroke-linejoin="round"/>
<path d="M152.739 179.781H213.386C213.386 179.781 222.154 174.51 220.323 160.678C218.493 146.846 208.635 156.069 204.979 165.292H177.947C177.947 165.292 172.099 154.75 162.603 156.069C153.106 157.388 152.739 179.781 152.739 179.781Z" fill="#263238" stroke="#263238" stroke-linecap="round" stroke-linejoin="round"/>
<path d="M167.639 177.045C167.639 172.979 166.351 169.323 164.285 166.74V162.887H156.975C151.078 162.887 146.305 169.225 146.305 177.045C146.305 184.865 151.078 191.178 156.975 191.178H164.285V187.325C166.351 184.756 167.639 181.105 167.639 177.045Z" fill="#263238" stroke="#263238" stroke-linecap="round" stroke-linejoin="round"/>
<path d="M164.285 191.198C170.178 191.198 174.954 184.861 174.954 177.045C174.954 169.228 170.178 162.892 164.285 162.892C158.392 162.892 153.615 169.228 153.615 177.045C153.615 184.861 158.392 191.198 164.285 191.198Z" fill="#263238"/>
<path opacity="0.2" d="M164.285 191.198C170.178 191.198 174.954 184.861 174.954 177.045C174.954 169.228 170.178 162.892 164.285 162.892C158.392 162.892 153.615 169.228 153.615 177.045C153.615 184.861 158.392 191.198 164.285 191.198Z" fill="white"/>
<path d="M164.285 191.198C170.178 191.198 174.954 184.861 174.954 177.045C174.954 169.228 170.178 162.892 164.285 162.892C158.392 162.892 153.615 169.228 153.615 177.045C153.615 184.861 158.392 191.198 164.285 191.198Z" stroke="#263238" stroke-linecap="round" stroke-linejoin="round"/>
<path d="M101.736 162.887H94.804C89.2363 162.887 84.7208 169.225 84.7208 177.045C84.7208 184.865 89.2582 191.178 94.804 191.178H101.714C107.282 191.178 111.797 184.84 111.797 177.025C111.797 169.21 107.304 162.887 101.736 162.887Z" fill="#263238" stroke="#263238" stroke-linecap="round" stroke-linejoin="round"/>
<path d="M164.285 188.337C168.985 188.337 172.795 183.282 172.795 177.045C172.795 170.808 168.985 165.752 164.285 165.752C159.585 165.752 155.774 170.808 155.774 177.045C155.774 183.282 159.585 188.337 164.285 188.337Z" fill="white" stroke="#263238" stroke-linecap="round" stroke-linejoin="round"/>
<path d="M217.6 177.045C217.6 172.979 216.778 169.323 215.463 166.74V162.887H209.007C205.259 162.887 202.217 169.225 202.217 177.045C202.217 184.865 205.259 191.178 209.007 191.178H215.463V187.325C216.778 184.756 217.6 181.105 217.6 177.045Z" fill="#263238" stroke="#263238" stroke-linecap="round" stroke-linejoin="round"/>
<path d="M215.463 191.198C219.212 191.198 222.252 184.861 222.252 177.045C222.252 169.228 219.212 162.892 215.463 162.892C211.713 162.892 208.673 169.228 208.673 177.045C208.673 184.861 211.713 191.198 215.463 191.198Z" fill="#263238"/>
<path opacity="0.2" d="M215.463 191.198C219.212 191.198 222.252 184.861 222.252 177.045C222.252 169.228 219.212 162.892 215.463 162.892C211.713 162.892 208.673 169.228 208.673 177.045C208.673 184.861 211.713 191.198 215.463 191.198Z" fill="white"/>
<path d="M215.463 191.198C219.212 191.198 222.252 184.861 222.252 177.045C222.252 169.228 219.212 162.892 215.463 162.892C211.713 162.892 208.673 169.228 208.673 177.045C208.673 184.861 211.713 191.198 215.463 191.198Z" stroke="#263238" stroke-linecap="round" stroke-linejoin="round"/>
<path d="M215.463 188.337C218.453 188.337 220.877 183.282 220.877 177.045C220.877 170.808 218.453 165.752 215.463 165.752C212.472 165.752 210.048 170.808 210.048 177.045C210.048 183.282 212.472 188.337 215.463 188.337Z" fill="white" stroke="#263238" stroke-linecap="round" stroke-linejoin="round"/>
<path d="M155.292 180.498C155.292 169.22 159.643 160.076 165.003 160.076C170.362 160.076 174.713 169.22 174.713 180.498C174.713 181.12 174.713 181.733 174.669 182.335H209.265C209.243 181.733 209.232 181.12 209.232 180.498C209.232 169.22 212.399 160.076 216.306 160.076C218.915 160.076 221.195 164.161 222.417 170.237V153.58C222.417 152.82 222.122 152.085 221.583 151.501C221.045 150.917 220.297 150.522 219.468 150.383L219.304 150.354C216.904 149.919 212.591 145.814 205.878 140.627C199.165 135.44 193.17 135.01 193.17 135.01H132.616C131.469 135.014 130.357 135.362 129.454 135.998L108.8 150.369C108.8 150.369 90.3377 153.609 86.2605 157.285C82.1834 160.96 82.6657 182.35 82.6657 182.35H155.336C155.309 181.733 155.292 181.12 155.292 180.498Z" fill="#7AAB56"/>
<path opacity="0.3" d="M167.282 150.354L170.488 135.01H132.616C131.469 135.014 130.357 135.362 129.454 135.998L108.8 150.369C108.8 150.369 90.3377 153.609 86.2605 157.285C82.1834 160.96 82.6657 182.35 82.6657 182.35H147.505C147.976 170.8 150.914 165.307 150.914 165.307H133.01C146.891 151.786 167.282 150.354 167.282 150.354Z" fill="black"/>
<path d="M155.292 180.498C155.292 169.22 159.643 160.076 165.003 160.076C170.362 160.076 174.713 169.22 174.713 180.498C174.713 181.12 174.713 181.733 174.669 182.335H209.265C209.243 181.733 209.232 181.12 209.232 180.498C209.232 169.22 212.399 160.076 216.306 160.076C218.915 160.076 221.195 164.161 222.417 170.237V153.58C222.417 152.82 222.122 152.085 221.583 151.501C221.045 150.917 220.297 150.522 219.468 150.383L219.304 150.354C216.904 149.919 212.591 145.814 205.878 140.627C199.165 135.44 193.17 135.01 193.17 135.01H132.616C131.469 135.014 130.357 135.362 129.454 135.998L108.8 150.369C108.8 150.369 90.3377 153.609 86.2605 157.285C82.1834 160.96 82.6657 182.35 82.6657 182.35H155.336C155.309 181.733 155.292 181.12 155.292 180.498Z" stroke="#263238" stroke-linecap="round" stroke-linejoin="round"/>
<path d="M178.308 135.01H132.616C131.47 135.014 130.357 135.362 129.454 135.998L108.8 150.369H167.282L178.308 135.01Z" fill="#7AAB56" stroke="#263238" stroke-linecap="round" stroke-linejoin="round"/>
<path d="M154.372 156.134C151.084 156.173 145.324 156.371 142.831 157.27C140.765 158.001 138.761 158.868 136.836 159.863H148.579L154.372 156.134Z" fill="#263238" stroke="#263238" stroke-linecap="round" stroke-linejoin="round"/>
<path d="M149.303 163.104V161.158H136.836L139.093 163.035C139.057 163.054 139.024 163.077 138.995 163.104H149.303Z" fill="#263238" stroke="#263238" stroke-linecap="round" stroke-linejoin="round"/>
<path d="M150.497 160.293V163.119C150.982 163.081 151.451 162.943 151.868 162.715C152.284 162.487 152.636 162.175 152.897 161.805C154.098 160.076 156.794 156.134 156.794 156.134L150.497 160.293Z" fill="#263238" stroke="#263238" stroke-linecap="round" stroke-linejoin="round"/>
<path d="M87.4115 163.02L89.6692 161.143H84.3482C84.1838 161.75 84.0303 162.403 83.8988 163.089H87.5101C87.4794 163.064 87.4464 163.041 87.4115 163.02V163.02Z" fill="#263238" stroke="#263238" stroke-linecap="round" stroke-linejoin="round"/>
<path d="M85.6305 158.016C85.2631 158.6 84.969 159.22 84.7537 159.863H89.6857C88.3723 159.181 87.0186 158.564 85.6305 158.016V158.016Z" fill="#263238" stroke="#263238" stroke-linecap="round" stroke-linejoin="round"/>
<path d="M167.282 150.354H202.76C202.76 150.354 207.796 148.842 206.355 143.22C205.867 141.314 195.806 136.957 194.37 136.957H177.108L167.282 150.354Z" fill="#263238"/>
<path opacity="0.2" d="M167.282 150.354H202.76C202.76 150.354 207.796 148.842 206.355 143.22C205.867 141.314 195.806 136.957 194.37 136.957H177.108L167.282 150.354Z" fill="white" stroke="#263238" stroke-linecap="round" stroke-linejoin="round"/>
<path d="M167.282 150.354H202.76C202.76 150.354 207.796 148.842 206.355 143.22C205.867 141.314 195.806 136.957 194.37 136.957H177.108L167.282 150.354Z" stroke="#263238" stroke-linecap="round" stroke-linejoin="round"/>
<path d="M128.046 136.957L108.783 150.354H167.282L176.911 136.957H128.046Z" fill="#263238" stroke="#263238" stroke-linecap="round" stroke-linejoin="round"/>
<path d="M90.5679 160.293V164.833L94.1628 167.209H123.168L129.881 164.616V160.293H90.5679Z" fill="#263238" stroke="#263238" stroke-linecap="round" stroke-linejoin="round"/>
<path opacity="0.3" d="M91.9105 160.293H90.5679V161.503H91.9105V160.293Z" fill="white"/>
<path opacity="0.3" d="M93.3901 161.632H92.0475V162.842H93.3901V161.632Z" fill="white"/>
<path opacity="0.3" d="M94.8752 162.966H93.5326V164.176H94.8752V162.966Z" fill="white"/>
<path opacity="0.3" d="M96.3548 164.304H95.0122V165.515H96.3548V164.304Z" fill="white"/>
<path opacity="0.3" d="M129.618 160.293H128.276V161.503H129.618V160.293Z" fill="white"/>
<path opacity="0.3" d="M128.133 161.632H126.791V162.842H128.133V161.632Z" fill="white"/>
<path opacity="0.3" d="M126.654 162.966H125.311V164.176H126.654V162.966Z" fill="white"/>
<path opacity="0.3" d="M125.174 164.304H123.832V165.515H125.174V164.304Z" fill="white"/>
<path opacity="0.3" d="M98.4153 164.304H97.0727V165.515H98.4153V164.304Z" fill="white"/>
<path opacity="0.3" d="M100.47 164.304H99.1277V165.515H100.47V164.304Z" fill="white"/>
<path opacity="0.3" d="M102.531 164.304H101.188V165.515H102.531V164.304Z" fill="white"/>
<path opacity="0.3" d="M104.591 164.304H103.249V165.515H104.591V164.304Z" fill="white"/>
<path opacity="0.3" d="M106.646 164.304H105.304V165.515H106.646V164.304Z" fill="white"/>
<path opacity="0.3" d="M108.707 164.304H107.364V165.515H108.707V164.304Z" fill="white"/>
<path opacity="0.3" d="M110.762 164.304H109.419V165.515H110.762V164.304Z" fill="white"/>
<path opacity="0.3" d="M112.822 164.304H111.48V165.515H112.822V164.304Z" fill="white"/>
<path opacity="0.3" d="M114.883 164.304H113.54V165.515H114.883V164.304Z" fill="white"/>
<path opacity="0.3" d="M116.938 164.304H115.595V165.515H116.938V164.304Z" fill="white"/>
<path opacity="0.3" d="M118.998 164.304H117.656V165.515H118.998V164.304Z" fill="white"/>
<path opacity="0.3" d="M121.053 164.304H119.711V165.515H121.053V164.304Z" fill="white"/>
<path opacity="0.3" d="M123.114 164.304H121.771V165.515H123.114V164.304Z" fill="white"/>
<path d="M143.784 172.826H84.096L83.296 167.061C82.9288 170.232 82.748 173.606 82.6877 176.383L82.8959 177.148L84.096 174.99H89.2144L86.036 177.346H133.498L131.805 174.97H143.806L147.165 176.699H149.56V165.697L143.784 172.826Z" fill="#263238" stroke="#263238" stroke-linecap="round" stroke-linejoin="round"/>
<path d="M179.771 149.153H179.475C179.181 149.153 178.892 149.089 178.63 148.968C178.369 148.847 178.143 148.672 177.971 148.457C177.799 148.242 177.685 147.994 177.64 147.732C177.595 147.47 177.619 147.202 177.711 146.95C178.078 145.913 178.714 144.865 179.771 144.707C181.963 144.376 187.991 146.026 187.991 147.177C187.991 148.328 187.991 148.822 187.263 148.822H182.698L179.043 152.448L178.966 152.389C178.777 152.247 178.625 152.069 178.521 151.868C178.417 151.667 178.363 151.448 178.363 151.226C178.363 151.004 178.417 150.785 178.521 150.584C178.625 150.383 178.777 150.205 178.966 150.062C179.29 149.803 179.563 149.496 179.771 149.153V149.153Z" fill="#7AAB56"/>
<path d="M190.666 150.354H192.671C192.458 147.701 191.619 141.862 188.326 136.957H186.32C187.476 139.214 190.216 145.038 190.666 150.354Z" fill="#263238" stroke="#263238" stroke-linecap="round" stroke-linejoin="round"/>
<path d="M147.439 140.592L148.174 142.4C147.271 143.176 146.745 144.241 146.711 145.364V150.354H142.211L145.982 140.592H147.439ZM126.435 143.062C123.349 144.757 118.691 148.496 116.428 150.354H131.449L139.219 139.604L134.107 139.93C131.408 140.668 128.829 141.721 126.435 143.062V143.062ZM157.49 141.743L155.659 141.412H153.106L152.371 142.074C152.371 142.074 154.202 142.237 154.383 143.225C154.507 144.209 154.567 145.199 154.563 146.189H155.846C155.846 146.189 155.846 144.376 156.755 143.556C157.272 143.086 157.821 142.645 158.399 142.237L157.49 141.743Z" fill="white" stroke="#263238" stroke-linecap="round" stroke-linejoin="round"/>
<path d="M178.966 152.389L179.043 152.448L182.698 148.822H187.263C187.865 148.822 187.969 148.482 187.986 147.711H177.64C177.702 148.11 177.922 148.476 178.259 148.741C178.596 149.006 179.028 149.153 179.475 149.153H179.771C179.561 149.496 179.287 149.804 178.96 150.062C178.772 150.205 178.62 150.383 178.517 150.585C178.413 150.786 178.359 151.005 178.36 151.227C178.361 151.449 178.415 151.668 178.52 151.869C178.624 152.069 178.777 152.247 178.966 152.389V152.389Z" fill="#263238" stroke="#263238" stroke-linecap="round" stroke-linejoin="round"/>
<path d="M190.238 154.331H186.128V155.126H190.238V154.331Z" fill="#263238"/>
<path d="M208.744 154.331H204.634V155.126H208.744V154.331Z" fill="#263238"/>
<path d="M209.035 151.164C209.035 151.164 212.01 152.987 213.736 159.374C213.736 159.374 206.393 160.165 206.393 178.438" stroke="#263238" stroke-linecap="round" stroke-linejoin="round"/>
<path d="M205.5 179.218H174.691C174.691 179.643 174.691 180.068 174.691 180.498C174.691 181.12 174.691 181.733 174.648 182.335H209.243C209.221 181.733 209.21 181.12 209.21 180.498V180.374L205.5 179.218Z" fill="#263238" stroke="#263238" stroke-linecap="round" stroke-linejoin="round"/>
<path d="M155.292 180.498C155.292 180.068 155.292 179.643 155.292 179.218H82.6439C82.6439 181.12 82.6439 182.335 82.6439 182.335H155.336C155.309 181.733 155.292 181.12 155.292 180.498Z" fill="#263238" stroke="#263238" stroke-linecap="round" stroke-linejoin="round"/>
<path d="M221.129 152.745C220.764 152.745 220.405 152.831 220.088 152.993C219.77 153.156 219.506 153.391 219.319 153.674C219.133 153.957 219.032 154.279 219.025 154.608C219.019 154.937 219.107 155.262 219.282 155.551L222.417 160.738V153.58C222.413 153.297 222.368 153.017 222.285 152.745H221.129Z" fill="#263238" stroke="#263238" stroke-linecap="round" stroke-linejoin="round"/>
<path d="M192.923 153.105C192.923 153.105 199.499 161.666 192.923 176.16" stroke="#263238" stroke-linecap="round" stroke-linejoin="round"/>
</svg>
