<svg width="194" height="164" viewBox="0 0 194 164" fill="none" xmlns="http://www.w3.org/2000/svg">
<path d="M22.6566 143.379L22.8791 143.477H180.198C181.297 142.447 181.987 140.758 182.551 139.134C189.515 119.002 189.23 92.2303 182.66 69.8902C179.745 59.9912 175.596 50.9679 170.296 43.7913C160.984 31.1994 147.831 24.3409 134.649 20.09C119.923 15.3406 104.08 13.4644 89.7133 19.7358C75.347 26.0071 63.9864 39.5634 50.3391 47.6846C44.0173 51.4468 37.2609 52.8014 31.1978 57.5673C25.2134 62.2639 20.1424 68.6134 16.3633 76.1419C15.9132 77.045 15.4821 77.9623 15.0699 78.8938C8.61101 93.7227 7.57376 112.199 12.3306 128.041C14.2784 134.523 17.5247 140.978 22.6566 143.379Z" fill="#7AAB56"/>
<path opacity="0.7" d="M22.6566 143.379L22.8791 143.477H180.198C181.297 142.447 181.987 140.758 182.551 139.134C189.515 119.002 189.23 92.2303 182.66 69.8902C179.745 59.9912 175.596 50.9679 170.296 43.7913C160.984 31.1994 147.831 24.3409 134.649 20.09C119.923 15.3406 104.08 13.4644 89.7133 19.7358C75.347 26.0071 63.9864 39.5634 50.3391 47.6846C44.0173 51.4468 37.2609 52.8014 31.1978 57.5673C25.2134 62.2639 20.1424 68.6134 16.3633 76.1419C15.9132 77.045 15.4821 77.9623 15.0699 78.8938C8.61101 93.7227 7.57376 112.199 12.3306 128.041C14.2784 134.523 17.5247 140.978 22.6566 143.379Z" fill="white"/>
<g opacity="0.3">
<path opacity="0.3" d="M151.773 19.1322C157.231 19.1322 162.465 21.8816 166.325 26.7755C170.184 31.6694 172.352 38.3069 172.352 45.2279V139.092H131.191V45.2279C131.191 38.3069 133.359 31.6694 137.218 26.7755C141.078 21.8816 146.312 19.1322 151.77 19.1322H151.773Z" stroke="black" stroke-linecap="round" stroke-linejoin="round"/>
<path opacity="0.3" d="M135.839 138.81V46.0709C135.839 40.7122 137.518 35.5731 140.506 31.7839C143.494 27.9948 147.547 25.8661 151.773 25.8661V25.8661C155.998 25.8669 160.05 27.996 163.038 31.7851C166.026 35.5741 167.704 40.7128 167.704 46.0709V138.81" stroke="black" stroke-linecap="round" stroke-linejoin="round"/>
<path opacity="0.3" d="M151.773 19.1322V138.951" stroke="black" stroke-linecap="round" stroke-linejoin="round"/>
<path opacity="0.3" d="M131.413 42.2136H172.075" stroke="black" stroke-linecap="round" stroke-linejoin="round"/>
<path opacity="0.3" d="M131.413 58.489H172.075" stroke="black" stroke-linecap="round" stroke-linejoin="round"/>
<path opacity="0.3" d="M131.413 74.7643H172.075" stroke="black" stroke-linecap="round" stroke-linejoin="round"/>
<path opacity="0.3" d="M131.413 91.0364H172.075" stroke="black" stroke-linecap="round" stroke-linejoin="round"/>
<path opacity="0.3" d="M131.413 107.312H172.075" stroke="black" stroke-linecap="round" stroke-linejoin="round"/>
<path opacity="0.3" d="M131.413 123.587H172.075" stroke="black" stroke-linecap="round" stroke-linejoin="round"/>
<path opacity="0.3" d="M136.85 27.2765L140.536 31.5339" stroke="black" stroke-linecap="round" stroke-linejoin="round"/>
<path opacity="0.3" d="M166.54 27.2765L162.851 31.5339" stroke="black" stroke-linecap="round" stroke-linejoin="round"/>
</g>
<path d="M124.98 72.429C128.881 70.297 132.515 66.853 132.515 66.853C132.515 66.853 129.752 67.6434 126.4 68.7882C130.836 65.331 134.838 60.0699 134.838 60.0699C134.838 60.0699 131.493 61.7952 127.561 64.0846C129.53 61.6721 131.35 59.0722 133.006 56.3078C133.006 56.3078 128.255 59.7518 123.619 63.632C126.923 58.689 129.416 52.152 129.416 52.152C129.416 52.152 125.153 56.6981 121.162 61.5754C123.852 55.8026 125.427 48.1438 125.427 48.1438C125.427 48.1438 122.269 53.136 119.245 58.5972C120.849 52.4898 121.26 45.3722 121.26 45.3722C121.26 45.3722 119.098 50.4661 116.987 56.1798C117.605 50.0987 117.132 43.7158 117.132 43.7158C117.132 43.7158 115.738 48.9245 114.434 54.8186C114.248 50.8218 113.774 46.855 113.017 42.968C113.017 42.968 111.966 50.84 111.436 58.2594C110.66 51.332 107.455 43.2698 107.455 43.2698C107.455 43.2698 107.652 48.5801 108.12 54.5497C106.829 51.0094 105.294 47.6211 103.531 44.4243C103.531 44.4243 104.39 49.7412 105.601 55.619C103.868 52.3194 101.903 49.2247 99.7315 46.3726C99.7315 46.3726 101.92 53.7494 104.388 60.457C100.968 55.0023 95.0755 50.1446 95.0755 50.1446C95.0755 50.1446 97.6622 55.209 100.652 60.4242C96.6974 56.6522 91.8267 53.9724 91.8267 53.9724C91.8267 53.9724 95.2152 58.6759 98.9943 63.304C94.4909 60.3258 89.0046 58.6825 89.0046 58.6825C89.0046 58.6825 93.045 62.6185 97.4397 66.338C92.569 64.3864 86.868 63.9961 86.868 63.9961C86.868 63.9961 90.3781 66.2921 94.5271 68.6668C91.5929 68.3288 88.6415 68.3047 85.704 68.5946C85.704 68.5946 91.1697 70.9726 96.6275 72.8094C94.205 73.0199 91.8006 73.4862 89.4392 74.2034C89.4392 74.2034 91.2757 74.6069 93.7848 75.0562C92.3063 75.4736 90.8456 75.9859 89.4081 76.5913C89.4081 76.5913 94.8841 77.1915 99.8686 77.2243C100.404 77.2243 100.96 77.2243 101.524 77.1981C98.314 78.3034 95.0083 80.7798 95.0083 80.7798C95.0083 80.7798 99.1806 80.1763 102.921 79.2448C106.136 78.4412 110.145 76.7914 111.198 76.3453V76.3978L111.221 76.3354H111.263C111.263 76.401 111.263 76.4371 111.263 76.4371C111.263 76.4371 111.263 76.3978 111.291 76.3223H111.328C111.34 76.3748 111.348 76.4142 111.353 76.4371L111.643 143.543L112.525 143.507L112.238 76.565C114.289 77.877 118.345 80.383 121.654 81.7179C126.289 83.5842 132.931 83.0791 132.931 83.0791C132.931 83.0791 128.358 80.9045 123.746 79.1431C128.337 79.3202 133.625 77.5523 133.625 77.5523C133.625 77.5523 128.335 76.4634 123.327 75.9123C128.022 75.0464 133.415 71.5893 133.415 71.5893C133.415 71.5893 129.333 71.832 124.98 72.429Z" fill="#B2B2B2"/>
<path d="M112.029 99.9777C112.665 94.651 112.287 88.9274 112.287 88.9274C112.287 88.9274 111.356 92.3189 110.347 96.5337C110.381 89.9278 108.976 82.843 108.976 82.843C108.976 82.843 108.363 87.353 107.815 92.7978C107.241 89.4025 106.462 86.0679 105.487 82.8233C105.487 82.8233 105.272 89.7506 105.407 96.783C103.855 90.6133 100.797 84.483 100.797 84.483C100.797 84.483 101.586 91.4726 102.742 98.3475C100.301 92.4009 96.0171 86.6543 96.0171 86.6543C96.0171 86.6543 97.6932 92.6961 99.7444 98.8494C96.5034 93.8966 91.956 89.6883 91.956 89.6883C91.956 89.6883 94.2219 94.71 96.9327 100.001C93.1872 96.1204 88.6554 93.2504 88.6554 93.2504C88.6554 93.2504 91.4024 97.5144 94.6565 102.028C91.8843 100.11 88.9794 98.5178 85.9782 97.2717C85.9782 97.2717 90.6937 102.569 95.3756 107.056C90.3316 104.225 83.2389 103.415 83.2389 103.415C83.2389 103.415 86.8991 106.013 91.1412 108.663C88.0884 108.178 85.0077 108.036 81.9353 108.24C81.9353 108.24 85.9472 110.129 90.5204 111.933C87.3928 112.058 84.2804 112.541 81.2213 113.376C81.2213 113.376 87.3155 114.918 93.12 115.814C87.6621 116.607 81.2989 120.366 81.2989 120.366C81.2989 120.366 86.0506 120.274 91.1283 119.799C86.5188 122.078 82.1474 125.909 82.1474 125.909C82.1474 125.909 87.0905 124.742 92.1862 123.121C87.8096 126.395 83.808 131.43 83.808 131.43C83.808 131.43 88.57 129.153 93.3942 126.401C89.5142 130.61 86.2369 136.543 86.2369 136.543C86.2369 136.543 89.6254 133.972 93.4123 130.767C91.6354 133.746 90.0589 136.91 88.6994 140.223C88.6994 140.223 93.1821 135.598 97.2949 130.711C96.1556 133.428 95.1969 136.261 94.4288 139.18C94.4288 139.18 95.6679 137.419 97.2975 134.956C96.7917 136.767 96.3601 138.611 96.0041 140.479C96.0041 140.479 99.2995 134.903 101.953 129.557C102.241 128.979 102.528 128.376 102.812 127.759C101.855 131.797 101.765 136.664 101.765 136.664C101.765 136.664 103.575 131.856 104.92 127.339C106.084 123.453 107.098 118.264 107.36 116.889L107.393 116.922L107.365 116.863V116.811L107.435 116.86L107.373 116.768V116.719L107.46 116.752L112.261 119.759L112.049 117.962L108.04 115.853C110.008 114.344 113.824 111.3 116.465 108.443C120.166 104.442 123.34 97.0257 123.34 97.0257C123.34 97.0257 119.46 100.798 115.857 104.839C118.402 99.9908 120.016 93.3586 120.016 93.3586C120.016 93.3586 116.488 98.4754 113.474 103.576C115.378 98.0654 115.911 90.4558 115.911 90.4558C115.911 90.4558 113.932 94.979 112.029 99.9777Z" fill="#B2B2B2"/>
<path d="M123.883 112.005C125.412 113.43 127.051 114.654 128.775 115.659C128.775 115.659 127.541 113.924 125.96 111.874C128.922 113.967 132.551 115.171 132.551 115.171C132.551 115.171 130.712 113.314 128.436 111.212C130.143 111.86 131.888 112.343 133.653 112.655C133.653 112.655 130.603 110.326 127.396 108.22C130.66 109.024 134.38 108.739 134.38 108.739C134.38 108.739 130.986 107.118 127.53 105.787C130.971 105.885 134.902 104.576 134.902 104.576C134.902 104.576 131.659 103.897 128.247 103.451C131.491 102.664 134.809 100.696 134.809 100.696C134.809 100.696 131.84 100.762 128.601 101.063C130.577 100.009 132.468 98.7159 134.248 97.2028C134.248 97.2028 131.473 97.8588 128.418 98.7936C130.15 97.3896 131.777 95.7866 133.278 94.0048C133.278 94.0048 129.406 95.7563 125.919 97.744C128.764 94.9822 131.351 90.1049 131.351 90.1049C131.351 90.1049 129.036 91.9384 126.514 94.1754C127.69 92.1165 128.72 89.9301 129.592 87.6416C129.592 87.6416 127.484 89.954 125.239 92.6961C126.168 90.3968 126.933 87.9959 127.523 85.5227C127.523 85.5227 124.918 89.4587 122.699 93.3619C124.051 89.1603 124.354 83.3809 124.354 83.3809C124.354 83.3809 122.908 86.8478 121.529 90.669C121.774 87.8756 121.796 85.0581 121.594 82.2591C121.594 82.2591 120.559 86.1951 119.703 90.3935C119.602 86.2017 118.591 81.7278 118.591 81.7278C118.591 81.7278 118.123 85.8868 117.849 90.2558C117.171 86.1295 115.521 81.8983 115.521 81.8983C115.521 81.8983 115.616 85.1554 115.87 88.9011C115.087 86.6811 114.158 84.5491 113.092 82.5281C113.092 82.5281 113.769 87.2218 114.685 91.7318C113.819 90.0565 112.845 88.4755 111.772 87.0053C111.772 87.0053 112.176 88.4518 112.773 90.4034C112.12 89.4724 111.429 88.5845 110.704 87.7433C110.704 87.7433 112.181 91.8761 113.754 95.4742C113.922 95.8613 114.106 96.2582 114.292 96.6583C113.177 95.3008 111.943 94.11 110.614 93.1094C110.614 93.1094 112.212 95.9203 113.821 98.3147C115.06 100.085 116.374 101.768 117.758 103.356H117.735H117.768L117.789 103.382L117.745 103.415H117.807L117.825 103.438L117.784 103.494L112.929 107.223L113.226 107.846L118.006 104.173C118.068 106.069 118.244 109.782 118.7 112.589C119.341 116.525 121.685 121.144 121.685 121.144C121.685 121.144 121.201 117.158 120.513 113.272C121.897 116.634 124.372 119.874 124.372 119.874C124.372 119.874 123.174 115.722 121.827 111.943C123.71 115.046 126.972 117.821 126.972 117.821C126.972 117.821 125.536 114.951 123.883 112.005Z" fill="#B2B2B2"/>
<path d="M112.029 129.649C111.358 131.898 110.869 134.228 110.567 136.602C110.567 136.602 111.555 134.634 112.688 132.148C111.894 136.327 111.956 141.083 111.956 141.083C111.956 141.083 112.872 138.341 113.857 134.992C113.822 137.252 113.925 139.512 114.163 141.752C114.163 141.752 115.112 137.402 115.849 132.919C116.108 137.124 117.331 141.584 117.331 141.584C117.331 141.584 117.649 136.992 117.722 132.43C118.573 136.658 120.624 141.109 120.624 141.109C120.624 141.109 120.27 136.963 119.69 132.679C121.162 136.428 123.552 139.951 123.552 139.951C123.552 139.951 122.704 136.343 121.607 132.479C122.94 134.6 124.431 136.554 126.059 138.314C126.059 138.314 124.814 135.1 123.281 131.62C124.814 133.357 126.469 134.913 128.226 136.268C128.226 136.268 125.857 132.023 123.412 128.297C126.278 131.043 130.681 132.889 130.681 132.889C130.681 132.889 128.666 130.554 126.284 128.074C128.162 128.956 130.098 129.624 132.07 130.072C132.07 130.072 129.742 128.12 127.06 126.113C129.055 126.624 131.082 126.906 133.118 126.956C133.118 126.956 129.434 124.83 125.875 123.174C129.429 123.695 133.894 122.518 133.894 122.518C133.894 122.518 130.885 121.688 127.6 121.032C129.788 120.579 131.935 119.848 134.007 118.851C134.007 118.851 130.738 118.661 127.318 118.726C130.474 117.476 133.601 115.039 133.601 115.039C133.601 115.039 130.316 115.584 126.935 116.424C129.889 114.485 132.66 111.343 132.66 111.343C132.66 111.343 130.213 112.327 127.435 113.639C128.91 112.085 130.28 110.377 131.529 108.532C131.529 108.532 128.149 110.618 124.967 112.95C126.009 111.443 126.951 109.828 127.781 108.122C127.781 108.122 126.788 109.004 125.453 110.26C125.985 109.207 126.472 108.118 126.915 107C126.915 107 124.173 109.913 121.863 112.802C121.604 113.114 121.361 113.442 121.108 113.786C121.84 112.06 122.413 110.232 122.815 108.338C122.815 108.338 121.11 111.048 119.724 113.655C118.712 115.645 117.787 117.704 116.954 119.822L116.935 119.792V119.835V119.868L116.897 119.825L116.925 119.894L116.912 119.923L116.86 119.884L112.722 124.804L112.329 125.332L116.405 120.343C114.98 120.93 112.207 122.141 110.197 123.456C107.38 125.293 104.507 129.396 104.507 129.396C104.507 129.396 107.404 127.736 110.164 125.854C107.983 128.448 106.185 132.345 106.185 132.345C106.185 132.345 109.031 129.763 111.527 127.097C109.677 130.232 108.446 134.969 108.446 134.969C108.446 134.969 110.236 132.46 112.029 129.649Z" fill="#B2B2B2"/>
<path d="M28.3602 40.344V45.592H27.0669V39.8323C27.0669 39.1781 26.8619 38.5508 26.4972 38.0882C26.1324 37.6256 25.6376 37.3658 25.1217 37.3658C24.8664 37.3658 24.6136 37.4296 24.3777 37.5536C24.1419 37.6776 23.9276 37.8593 23.7472 38.0884C23.5668 38.3175 23.4237 38.5894 23.3262 38.8886C23.2288 39.1879 23.1788 39.5086 23.1791 39.8323V46.9762H21.9867V43.1812C21.9867 42.9486 21.9505 42.7183 21.8803 42.5034C21.8101 42.2885 21.7073 42.0932 21.5776 41.9288C21.4478 41.7643 21.2939 41.6338 21.1244 41.5448C20.9549 41.4558 20.7733 41.41 20.5899 41.41C20.4066 41.41 20.225 41.4558 20.0557 41.5449C19.8864 41.6339 19.7326 41.7645 19.6031 41.929C19.4736 42.0935 19.3709 42.2888 19.301 42.5036C19.2311 42.7185 19.1953 42.9487 19.1957 43.1812V48.9966C19.1957 49.2985 19.2902 49.588 19.4585 49.8014C19.6269 50.0149 19.8552 50.1348 20.0932 50.1348H23.1765V54.448H27.0565V48.872H29.7467C30.0375 48.872 30.3165 48.7255 30.5222 48.4647C30.7279 48.2039 30.8434 47.8501 30.8434 47.4813V40.344C30.8434 39.9247 30.7121 39.5226 30.4782 39.2261C30.2444 38.9296 29.9273 38.763 29.5966 38.763C29.2678 38.7665 28.9533 38.9346 28.7217 39.2307C28.4901 39.5268 28.3602 39.927 28.3602 40.344Z" fill="#7AAB56"/>
<path d="M28.5775 54.0905H21.7435V62.1232H28.5775V54.0905Z" fill="#B2B2B2"/>
<path d="M28.981 52.1848H21.3348V54.7694H28.981V52.1848Z" fill="#B2B2B2"/>
<path d="M26.4332 83.9352L23.9396 78.8807L25.6028 79.0906L25.4347 76.1386L27.2635 79.0906L27.429 70.028L28.7586 75.9287L30.4218 68.3421L30.9184 77.1915L34.2423 72.7668L31.9169 79.7204L34.2423 78.6675L29.757 84.9914L26.4332 83.9352Z" fill="#7AAB56"/>
<path d="M31.9945 84.624H25.1605V92.6567H31.9945V84.624Z" fill="#B2B2B2"/>
<path d="M32.398 82.7183H24.7518V85.303H32.398V82.7183Z" fill="#B2B2B2"/>
<path d="M61.8291 83.9352L59.3381 78.8807L60.9988 79.0906L60.8332 76.1386L62.662 79.0906L62.8275 70.028L64.1571 75.9287L65.8177 68.3421L66.317 77.1915L69.6408 72.7668L67.3154 79.7204L69.6408 78.6675L65.153 84.9914L61.8291 83.9352Z" fill="#7AAB56"/>
<path d="M67.3904 84.624H60.5564V92.6567H67.3904V84.624Z" fill="#B2B2B2"/>
<path d="M67.7965 82.7183H60.1503V85.303H67.7965V82.7183Z" fill="#B2B2B2"/>
<path d="M44.5476 82.8823C43.3775 82.8601 42.2107 82.7198 41.0582 82.4625C39.2294 82.0394 38.8957 80.5634 39.7286 80.1435C40.5615 79.7237 43.3836 80.3534 43.3836 80.3534C43.3836 80.3534 39.7286 80.3534 39.2294 77.6146C38.7302 74.8758 40.5589 75.0858 41.0582 75.7188C41.5574 76.3518 42.8843 77.6146 42.8843 77.6146C42.8843 77.6146 40.0597 74.0329 40.0597 71.9238C40.0597 69.8148 41.8885 70.028 42.3877 71.2941C42.8869 72.5602 44.0509 76.3486 44.0509 76.3486C44.0509 76.3486 42.2222 69.6081 44.5502 70.661C46.8782 71.7139 46.3763 74.8758 46.3763 75.5056V78.2477C46.3763 78.2477 48.7043 72.5569 49.5347 73.823C50.365 75.089 48.3707 77.408 48.3707 77.408C48.3707 77.408 49.5347 71.9271 52.3593 72.1403C55.184 72.3535 52.5274 74.8791 52.0282 75.932C51.529 76.9849 49.3691 79.3038 49.3691 79.3038C49.3691 79.3038 54.1881 76.565 56.5135 76.565C58.8389 76.565 56.6816 79.9369 55.3521 80.1468C54.0225 80.3567 51.529 80.7798 51.529 80.7798C51.529 80.7798 54.8529 82.6757 53.5233 83.0955C52.1938 83.5154 48.8673 82.6757 48.8673 82.6757L44.5476 82.8823Z" fill="#7AAB56"/>
<path d="M49.9408 84.624H43.1068V92.6567H49.9408V84.624Z" fill="#B2B2B2"/>
<path d="M50.3469 82.7183H42.7007V85.303H50.3469V82.7183Z" fill="#B2B2B2"/>
<path d="M54.8373 43.9914V47.888H55.797V43.624C55.797 43.1395 55.9488 42.6748 56.219 42.3322C56.4892 41.9895 56.8556 41.7971 57.2378 41.7971C57.6199 41.7971 57.9863 41.9895 58.2565 42.3322C58.5267 42.6748 58.6785 43.1395 58.6785 43.624V48.9147H59.5632V46.107C59.5632 45.759 59.6722 45.4253 59.8662 45.1793C60.0603 44.9332 60.3234 44.795 60.5978 44.795C60.8722 44.795 61.1354 44.9332 61.3295 45.1793C61.5235 45.4253 61.6325 45.759 61.6325 46.107V50.4136C61.6325 50.6372 61.5625 50.8516 61.4378 51.0097C61.3131 51.1678 61.144 51.2566 60.9677 51.2566H58.6785V54.448H55.7918V50.3119H53.8027C53.5872 50.3119 53.3807 50.2034 53.2283 50.0103C53.076 49.8171 52.9904 49.5552 52.9904 49.282V43.9914C52.9904 43.6808 53.0877 43.383 53.2609 43.1634C53.4341 42.9438 53.669 42.8204 53.9139 42.8204C54.1588 42.8204 54.3937 42.9438 54.5669 43.1634C54.74 43.383 54.8373 43.6808 54.8373 43.9914Z" fill="#7AAB56"/>
<path d="M60.334 54.0905H53.5V62.1232H60.334V54.0905Z" fill="#B2B2B2"/>
<path d="M60.7375 52.1848H53.0913V54.7694H60.7375V52.1848Z" fill="#B2B2B2"/>
<path d="M28.4533 105.147V109.034H29.413V104.77C29.413 104.285 29.5648 103.821 29.835 103.478C30.1052 103.135 30.4716 102.943 30.8538 102.943C31.0428 102.943 31.2301 102.99 31.4047 103.082C31.5794 103.174 31.738 103.308 31.8716 103.478C32.0052 103.648 32.1111 103.849 32.1832 104.071C32.2553 104.293 32.2923 104.53 32.2919 104.77V110.06H33.1792V107.256C33.1792 106.908 33.2882 106.574 33.4822 106.328C33.6763 106.082 33.9394 105.944 34.2138 105.944C34.4883 105.944 34.7514 106.082 34.9455 106.328C35.1395 106.574 35.2485 106.908 35.2485 107.256V111.566C35.2485 111.789 35.1785 112.004 35.0538 112.162C34.9291 112.32 34.76 112.409 34.5837 112.409H32.2919V115.594H29.4078V111.468H27.4187C27.3119 111.468 27.2061 111.442 27.1074 111.39C27.0087 111.338 26.9191 111.263 26.8436 111.167C26.7681 111.071 26.7083 110.957 26.6676 110.832C26.6269 110.707 26.6061 110.573 26.6065 110.438V105.147C26.6065 104.836 26.7037 104.539 26.8769 104.319C27.0501 104.099 27.285 103.976 27.5299 103.976C27.7748 103.976 28.0097 104.099 28.1829 104.319C28.356 104.539 28.4533 104.836 28.4533 105.147Z" fill="#7AAB56"/>
<path d="M33.9474 115.243H27.1134V123.276H33.9474V115.243Z" fill="#B2B2B2"/>
<path d="M34.3535 113.34H26.7073V115.925H34.3535V113.34Z" fill="#B2B2B2"/>
<path d="M62.3387 105.147V109.034H63.2983V104.77C63.2983 104.285 63.4501 103.821 63.7203 103.478C63.9905 103.135 64.357 102.943 64.7391 102.943C65.1212 102.943 65.4877 103.135 65.7579 103.478C66.0281 103.821 66.1799 104.285 66.1799 104.77V110.06H67.0645V107.256C67.0645 106.908 67.1735 106.574 67.3676 106.328C67.5616 106.082 67.8248 105.944 68.0992 105.944C68.3736 105.944 68.6368 106.082 68.8308 106.328C69.0248 106.574 69.1338 106.908 69.1338 107.256V111.566C69.1338 111.789 69.0638 112.004 68.9391 112.162C68.8145 112.32 68.6454 112.409 68.4691 112.409H66.1799V115.594H63.2983V111.468H61.304C61.0886 111.468 60.882 111.359 60.7297 111.166C60.5774 110.973 60.4918 110.711 60.4918 110.438V105.147C60.4918 104.836 60.5891 104.539 60.7623 104.319C60.9354 104.099 61.1703 103.976 61.4152 103.976C61.6601 103.976 61.895 104.099 62.0682 104.319C62.2414 104.539 62.3387 104.836 62.3387 105.147Z" fill="#7AAB56"/>
<path d="M67.8405 115.243H61.0065V123.276H67.8405V115.243Z" fill="#B2B2B2"/>
<path d="M68.244 113.34H60.5978V115.925H68.244V113.34Z" fill="#B2B2B2"/>
<path d="M44.9588 115.076C44.3146 113.739 43.512 112.537 42.5791 111.51C41.0659 109.87 40.6314 106.023 40.6314 106.023C40.6314 106.023 41.2806 105.75 42.5791 107.394C43.441 108.539 44.1715 109.832 44.7493 111.235C44.7493 111.235 43.8854 106.574 43.8854 104.927C43.8854 103.281 46.0427 99.1675 46.0427 99.1675C46.0427 99.1675 46.6893 102.185 46.6893 103.556V109.88C46.6893 109.88 47.9827 106.6 49.7183 104.668C51.454 102.736 54.0432 101.926 54.0432 101.926C54.0432 101.926 54.2605 105.206 53.394 106.315C52.5274 107.423 48.8518 111.251 48.8518 111.251L53.8285 110.156L48.8518 113.993C48.8518 113.993 47.9258 115.531 47.1239 115.092C46.322 114.652 44.9588 115.076 44.9588 115.076Z" fill="#7AAB56"/>
<path d="M49.7364 115.243H42.9025V123.276H49.7364V115.243Z" fill="#B2B2B2"/>
<path d="M50.1399 113.34H42.4938V115.925H50.1399V113.34Z" fill="#B2B2B2"/>
<path d="M66.317 52.3258C66.317 52.3258 64.1571 50.0102 63.4923 49.1672C62.8275 48.3242 61.1643 46.0053 62.4939 46.8482C63.484 47.5217 64.4287 48.2973 65.3185 49.1672C65.3185 49.1672 64.1493 44.7392 64.1493 43.4764C64.1493 42.2136 65.81 43.0566 66.6403 45.1623C67.4706 47.2681 67.9698 48.7441 67.9698 48.7441C67.9698 48.7441 66.4747 40.3145 67.8043 39.8881C69.1338 39.4617 69.4675 45.3657 69.4675 45.3657C69.4675 45.3657 70.6289 35.0402 72.2922 37.3592C73.9554 39.6782 71.1282 45.7888 71.1282 45.7888C71.1282 45.7888 74.452 42.8368 73.7872 45.1558C73.1225 47.4747 71.2937 48.3177 71.2937 48.3177C71.2937 48.3177 76.1152 46.8417 74.7857 49.1606C73.4562 51.4796 69.1338 53.3754 69.1338 53.3754L66.317 52.3258Z" fill="#7AAB56"/>
<path d="M72.1163 54.0905H65.2823V62.1232H72.1163V54.0905Z" fill="#B2B2B2"/>
<path d="M72.5224 52.1848H64.8762V54.7694H72.5224V52.1848Z" fill="#B2B2B2"/>
<path d="M39.7286 52.3258C39.7286 52.3258 37.5662 50.0102 36.9014 49.1672C36.2366 48.3242 34.5734 46.0053 35.9055 46.8482C36.8956 47.5217 37.8403 48.2973 38.7302 49.1672C38.7302 49.1672 37.5662 44.7392 37.5662 43.4764C37.5662 42.2136 39.2294 43.0566 40.0597 45.1623C40.89 47.2681 41.3867 48.7441 41.3867 48.7441C41.3867 48.7441 39.8916 40.3145 41.2211 39.8881C42.5507 39.4617 42.8818 45.3657 42.8818 45.3657C42.8818 45.3657 44.0458 35.0402 45.7064 37.3592C47.367 39.6782 44.545 45.7888 44.545 45.7888C44.545 45.7888 47.8689 42.8368 47.2041 45.1558C46.5393 47.4747 44.7105 48.3177 44.7105 48.3177C44.7105 48.3177 49.5295 46.8417 48.2 49.1606C46.8704 51.4796 42.5507 53.3754 42.5507 53.3754L39.7286 52.3258Z" fill="#7AAB56"/>
<path d="M45.5279 54.0905H38.6939V62.1232H45.5279V54.0905Z" fill="#B2B2B2"/>
<path d="M45.934 52.1848H38.2878V54.7694H45.934V52.1848Z" fill="#B2B2B2"/>
<path d="M20.4347 143.477V126.962H76.9275V143.477H79.0744V61.6902H18.2877V143.477H20.4347ZM20.4347 65.6H76.9275V92.3976H20.4347V65.6ZM20.4347 96.291H76.9275V123.085H20.4347V96.291Z" fill="#B2B2B2"/>
<path d="M150.386 97.5964C150.386 97.5964 150.182 95.4742 150.929 91.653C151.326 89.5306 151.845 87.4477 152.481 85.421C153.183 87.8694 153.752 90.3757 154.183 92.9224C154.506 94.9759 154.688 97.061 154.727 99.1544C154.727 99.1544 153.842 103.258 153.027 104.671C152.212 106.085 151.597 105.38 151.054 103.687C150.51 101.995 150.386 97.5964 150.386 97.5964Z" fill="#7AAB56" stroke="#263238" stroke-linecap="round" stroke-linejoin="round"/>
<path d="M148.006 101.982C148.006 101.982 147.802 100.568 147.802 97.3143C147.802 94.0606 148.475 88.9634 148.475 88.9634C149.264 90.7605 149.903 92.658 150.378 94.6247C151.059 97.5964 152.282 103.399 152.282 103.399C152.598 101.38 153.03 99.3937 153.576 97.4554C154.46 94.3394 156.638 90.2394 156.638 90.2394V96.4714C156.645 98.7599 156.423 101.04 155.976 103.258C155.976 103.258 155.772 104.671 153.185 105.803C150.598 106.935 148.475 105.662 148.006 101.982Z" fill="#7AAB56" stroke="#263238" stroke-linecap="round" stroke-linejoin="round"/>
<path d="M146.1 107.22C146.1 107.22 145.148 105.662 145.148 102.267C145.159 100.087 145.296 97.9111 145.557 95.7563C145.557 95.7563 145.896 96.0384 146.85 97.7243C147.805 99.4102 149.91 103.809 149.91 104.094C149.91 104.379 150.115 102.818 150.929 100.978C151.744 99.138 154.196 94.7461 154.196 94.7461C154.196 94.7461 154.535 98.7083 154.535 100.407C154.535 102.106 154.672 104.511 154.672 104.511C154.672 104.511 155.691 101.257 156.78 99.2626C157.518 97.9545 158.337 96.7238 159.23 95.5825C159.23 95.5825 159.434 96.5665 159.365 99.4037C159.295 102.241 158.345 107.469 158.071 108.319C157.797 109.168 156.845 110.867 155.009 111.717C153.172 112.566 150.047 113.16 148.413 112.176C146.778 111.192 146.1 107.22 146.1 107.22Z" fill="#7AAB56" stroke="#263238" stroke-linecap="round" stroke-linejoin="round"/>
<path d="M145.148 112.599C145.148 112.599 144.605 111.75 143.107 108.069C141.61 104.389 140.932 99.712 140.932 99.712C140.932 99.712 141.747 99.853 143.107 101.552C144.468 103.251 148.539 109.903 148.539 109.903C148.093 107.974 148.004 105.939 148.281 103.96C148.757 100.844 149.37 99.571 149.37 99.571C149.37 99.571 150.797 102.261 151.273 104.383C151.749 106.505 152.293 109.631 152.293 109.631C152.293 109.631 152.973 105.81 154.129 103.123C154.849 101.469 155.742 99.9455 156.783 98.5935C156.783 98.5935 157.396 101.706 156.987 104.396C156.579 107.085 156.17 109.208 156.17 109.208C156.17 109.208 157.668 103.828 158.891 102.556C160.115 101.283 162.771 100.152 162.771 100.152C162.771 100.152 161.685 105.245 160.8 107.509C159.916 109.772 158.622 112.32 158.622 112.32C158.622 112.32 151.814 115.144 145.148 112.599Z" fill="#7AAB56" stroke="#263238" stroke-linecap="round" stroke-linejoin="round"/>
<path d="M157.921 143.5H146.149L144.383 112.911H159.688L157.921 143.5Z" fill="#263238" stroke="#263238" stroke-linecap="round" stroke-linejoin="round"/>
<path d="M159.566 112.094H144.434C144.024 112.094 143.692 112.515 143.692 113.035V113.475C143.692 113.995 144.024 114.416 144.434 114.416H159.566C159.976 114.416 160.309 113.995 160.309 113.475V113.035C160.309 112.515 159.976 112.094 159.566 112.094Z" fill="#A1A1A1" stroke="#263238" stroke-linecap="round" stroke-linejoin="round"/>
<path d="M127.582 125.929V93.0372" stroke="#263238" stroke-linecap="round" stroke-linejoin="round"/>
<path d="M133.286 143.477H121.99L119.569 124.679H135.707L133.286 143.477Z" fill="#263238" stroke="#263238" stroke-linecap="round" stroke-linejoin="round"/>
<path d="M129.163 116.201C129.163 116.201 129.106 112.192 132.784 110.041C136.462 107.889 139.577 111.451 140.629 114.049C141.308 115.753 141.895 117.514 142.386 119.32C142.386 119.32 138.707 115.456 135.371 115.456C133.288 115.469 131.21 115.718 129.163 116.201Z" fill="#7AAB56" stroke="#263238" stroke-linecap="round" stroke-linejoin="round"/>
<path d="M131.915 115.607L133.498 112.786" stroke="#263238" stroke-linecap="round" stroke-linejoin="round"/>
<path d="M135.371 115.459L137.303 113.455" stroke="#263238" stroke-linecap="round" stroke-linejoin="round"/>
<path d="M127.305 113.57C127.305 113.57 126.403 109.729 122.373 109.096C118.343 108.463 116.237 113.052 115.854 115.932C115.616 117.817 115.477 119.72 115.44 121.629C115.44 121.629 118.027 116.532 121.214 115.249C123.201 114.46 125.239 113.898 127.305 113.57Z" fill="#7AAB56" stroke="#263238" stroke-linecap="round" stroke-linejoin="round"/>
<path d="M124.54 114.062L122.36 111.982" stroke="#263238" stroke-linecap="round" stroke-linejoin="round"/>
<path d="M121.214 115.249L118.894 114.082" stroke="#263238" stroke-linecap="round" stroke-linejoin="round"/>
<path d="M124.059 103.573C124.059 103.573 123.358 100.591 120.233 100.099C117.109 99.607 115.474 103.169 115.177 105.403C114.989 106.866 114.879 108.343 114.848 109.824C114.848 109.824 116.858 105.872 119.326 104.875C120.87 104.263 122.454 103.827 124.059 103.573Z" fill="#7AAB56" stroke="#263238" stroke-linecap="round" stroke-linejoin="round"/>
<path d="M121.915 103.953L120.223 102.339" stroke="#263238" stroke-linecap="round" stroke-linejoin="round"/>
<path d="M119.333 104.875L117.533 103.969" stroke="#263238" stroke-linecap="round" stroke-linejoin="round"/>
<path d="M130.241 101.713C130.241 101.713 130.942 98.7313 134.07 98.2393C137.197 97.7473 138.829 101.309 139.126 103.546C139.312 105.009 139.419 106.486 139.447 107.968C139.447 107.968 137.437 104.012 134.97 103.015C133.427 102.403 131.845 101.967 130.241 101.713Z" fill="#7AAB56" stroke="#263238" stroke-linecap="round" stroke-linejoin="round"/>
<path d="M132.388 102.097L134.08 100.483" stroke="#263238" stroke-linecap="round" stroke-linejoin="round"/>
<path d="M134.97 103.015L136.77 102.11" stroke="#263238" stroke-linecap="round" stroke-linejoin="round"/>
<path d="M128.578 115.83C127.8 115.4 126.935 115.291 126.105 115.518C125.275 115.746 124.522 116.297 123.953 117.096C121.845 119.917 123.601 124.312 125.065 126.608C125.98 128.037 126.958 129.399 127.993 130.688C127.993 130.688 131.506 127.868 132.735 124.676C133.963 121.485 134.545 119.034 132.97 116.88C131.395 114.725 128.578 115.83 128.578 115.83Z" fill="#7AAB56" stroke="#263238" stroke-linecap="round" stroke-linejoin="round"/>
<path d="M128.578 115.83C128.578 115.83 127.349 124.358 127.701 129.642" stroke="#263238" stroke-linecap="round" stroke-linejoin="round"/>
<path d="M128.226 119.766L129.457 122.292" stroke="#263238" stroke-linecap="round" stroke-linejoin="round"/>
<path d="M127.934 122.662L126.354 125.781" stroke="#263238" stroke-linecap="round" stroke-linejoin="round"/>
<path d="M128.402 117.614L126.354 118.208" stroke="#263238" stroke-linecap="round" stroke-linejoin="round"/>
<path d="M130.241 101.713C130.241 101.713 128.286 102.32 127.701 104.101" stroke="#263238" stroke-linecap="round" stroke-linejoin="round"/>
<path d="M124.059 103.573C124.059 103.573 127.23 104.396 127.582 106.698" stroke="#263238" stroke-linecap="round" stroke-linejoin="round"/>
<path d="M127.642 108.926C127.642 108.926 129.106 105.436 131.154 105.065C133.203 104.694 135.541 106.928 135.541 106.928C135.541 106.928 131.385 110.047 129.921 110.047C129.075 110.061 128.258 109.659 127.642 108.926Z" fill="#7AAB56" stroke="#263238" stroke-linecap="round" stroke-linejoin="round"/>
<path d="M127.642 108.926C127.642 108.926 126.348 106.403 124.069 106.105C121.791 105.806 119.328 109.88 119.328 109.88C119.328 109.88 120.205 110.625 122.549 110.477C124.892 110.329 127.642 108.926 127.642 108.926Z" fill="#7AAB56" stroke="#263238" stroke-linecap="round" stroke-linejoin="round"/>
<path d="M127.523 102.913C127.523 102.913 124.887 99.6333 124.77 96.3795C124.654 93.1258 127.818 87.904 127.818 87.904C127.818 87.904 129.75 94.2902 129.866 96.9634C129.983 99.6366 127.523 102.913 127.523 102.913Z" fill="#7AAB56" stroke="#263238" stroke-linecap="round" stroke-linejoin="round"/>
<path d="M127.582 99.9416L126.646 98.236" stroke="#263238" stroke-linecap="round" stroke-linejoin="round"/>
<path d="M127.701 96.0089L128.345 94.5952" stroke="#263238" stroke-linecap="round" stroke-linejoin="round"/>
<path d="M31.4978 120.592C31.4978 120.592 31.3194 119.467 31.9712 117.44C32.3355 116.285 32.7923 115.181 33.3344 114.144C33.9299 115.406 34.4255 116.74 34.8139 118.126C35.0931 119.193 35.2524 120.305 35.2873 121.429C35.2873 121.429 34.5113 123.607 33.8077 124.358C33.1042 125.109 32.5635 124.735 32.0902 123.833C31.6168 122.931 31.4978 120.592 31.4978 120.592Z" fill="#7AAB56" stroke="#263238" stroke-linecap="round" stroke-linejoin="round"/>
<path d="M29.4259 122.921C29.2825 122.109 29.2225 121.277 29.2474 120.445C29.2474 118.716 29.8398 116.014 29.8398 116.014C30.4966 116.916 31.0543 117.927 31.4978 119.018C32.0902 120.592 33.1559 123.672 33.1559 123.672C33.4402 122.573 33.8175 121.516 34.2811 120.52C35.0571 118.88 36.9479 116.689 36.9479 116.689V119.992C36.9438 121.233 36.7423 122.46 36.3556 123.6C36.3556 123.6 36.1771 124.351 33.9267 124.955C31.6763 125.558 29.8398 124.876 29.4259 122.921Z" fill="#7AAB56" stroke="#263238" stroke-linecap="round" stroke-linejoin="round"/>
<path d="M27.7653 125.703C27.7653 125.703 26.9375 124.876 26.9375 123.079C26.9487 121.914 27.0677 120.755 27.2919 119.625C27.2919 119.625 27.5894 119.776 28.4171 120.674C29.2449 121.573 31.084 123.905 31.084 124.056C31.084 124.207 31.2599 123.38 31.9712 122.416C32.6825 121.452 34.8165 119.113 34.8165 119.113C34.9617 120.105 35.061 121.107 35.114 122.114C35.114 123.016 35.233 124.292 35.233 124.292C35.7595 123.281 36.3748 122.349 37.0669 121.514C37.7379 120.79 38.4513 120.133 39.2009 119.546C39.2009 119.546 39.3768 120.071 39.3173 121.573C39.2578 123.075 38.4301 125.854 38.1921 126.306C37.9542 126.759 37.1264 127.658 35.5279 128.107C33.9293 128.556 31.203 128.858 29.7829 128.333C28.3628 127.808 27.7653 125.703 27.7653 125.703Z" fill="#7AAB56" stroke="#263238" stroke-linecap="round" stroke-linejoin="round"/>
<path d="M26.9375 128.556C26.9375 128.556 26.4642 128.104 25.1605 126.152C24.3237 124.831 23.6815 123.33 23.2645 121.721C23.2645 121.721 23.9758 121.796 25.1605 122.705C26.3452 123.613 29.8993 127.136 29.8993 127.136C29.513 126.159 29.4281 125.033 29.6613 123.981C30.0752 122.341 30.6106 121.652 30.6106 121.652C30.6106 121.652 31.8522 123.079 32.2687 124.207C32.6851 125.335 33.1559 126.985 33.1559 126.985C33.5389 125.731 34.0787 124.564 34.7545 123.528C35.4358 122.6 36.2128 121.792 37.0643 121.127C37.0643 121.127 37.5972 122.767 37.2428 124.207C36.8885 125.647 36.5315 126.759 36.5315 126.759C36.5315 126.759 37.8248 123.905 38.9009 123.23C39.9769 122.554 42.2765 121.954 42.2765 121.954C42.2765 121.954 41.3298 124.656 40.5589 125.857C39.9652 126.752 39.3331 127.605 38.6655 128.412C38.6655 128.412 32.742 129.908 26.9375 128.556Z" fill="#7AAB56" stroke="#263238" stroke-linecap="round" stroke-linejoin="round"/>
<path d="M35.3778 143.477H30.5356C29.5728 143.477 28.6421 143.038 27.9132 142.24C27.1844 141.442 26.7059 140.339 26.5651 139.131L25.3054 128.369H40.6107L39.3535 139.131C39.2121 140.34 38.7327 141.444 38.0029 142.241C37.2731 143.039 36.3414 143.478 35.3778 143.477Z" fill="#263238" stroke="#263238" stroke-linecap="round" stroke-linejoin="round"/>
<path d="M40.4891 127.553H25.3571C24.9471 127.553 24.6147 127.974 24.6147 128.494V128.934C24.6147 129.453 24.9471 129.875 25.3571 129.875H40.4891C40.8991 129.875 41.2315 129.453 41.2315 128.934V128.494C41.2315 127.974 40.8991 127.553 40.4891 127.553Z" fill="#A1A1A1" stroke="#263238" stroke-linecap="round" stroke-linejoin="round"/>
<path d="M81.449 49.4821C81.449 49.4821 82.9466 60.6997 84.7289 65.4065C86.5111 70.1133 86.8706 71.4679 86.8706 71.4679C84.0056 72.3689 81.0984 73.0383 78.1665 73.472C73.601 74.105 72.1007 73.1112 72.1007 73.1112L72.6853 70.192C72.6853 70.192 76.1825 71.7303 77.4655 69.7393C78.7485 67.7484 80.1039 60.5127 80.3108 58.794C80.5178 57.0753 79.884 49.6592 79.884 49.6592L81.449 49.4821Z" fill="#263238" stroke="#263238" stroke-miterlimit="10"/>
<path d="M73.3863 69.2966C73.3863 69.2966 72.6103 73.636 72.6103 74.9939C72.6103 76.3518 72.7371 76.67 73.3217 77.1653C74.615 78.2509 77.3879 80.1501 79.8866 80.6027C82.3853 81.0553 84.24 81.8655 84.7366 82.9545C87.6156 89.2849 89.4469 111.363 89.4469 111.363C89.4469 111.363 90.373 112.265 93.2985 112.898C96.224 113.531 97.15 113.622 97.15 113.622L97.864 119.323C97.864 119.323 95.2256 119.776 90.7299 120.307C86.2343 120.838 83.3114 120.307 83.3114 120.307L86.9482 134.874C87.8768 138.58 88.4459 143.467 88.4459 143.467H50.9858C50.9858 143.467 55.1943 119.313 55.6935 116.417C56.1927 113.521 56.2652 103.297 56.2652 103.297L45.5615 103.838C45.5615 103.838 47.4886 89.1832 49.3433 83.4858C51.1979 77.7885 52.0541 78.7823 54.7753 78.2378C57.4964 77.6933 61.9093 76.5191 63.6941 74.9808C65.4789 73.4425 66.1204 65.2097 66.1204 65.2097L73.3863 69.2966Z" fill="#7AAB56" stroke="#263238" stroke-linecap="round" stroke-linejoin="round"/>
<path d="M82.3569 117.532C81.8396 120.238 82.6699 122.055 84.0434 123.282L83.3036 120.33C83.3036 120.33 86.2265 120.875 90.7222 120.33C95.2178 119.786 97.8562 119.346 97.8562 119.346L97.1423 113.645C97.1423 113.645 96.2162 113.557 93.2907 112.921C90.3652 112.284 89.4392 111.386 89.4392 111.386C89.4392 111.386 83.9477 109.06 82.3569 117.532Z" fill="white" stroke="#263238" stroke-linecap="round" stroke-linejoin="round"/>
<path d="M86.9405 134.883L83.3036 120.317C83.3036 120.317 82.7319 115.069 82.8044 114.167C82.8768 113.265 84.9436 108.286 84.9436 104.757C84.9436 101.227 82.4474 90.6526 82.2327 89.9212C82.0361 89.2652 78.5622 81.2784 78.0242 80.0451C77.7811 79.9467 77.5379 79.8385 77.2999 79.7171L80.5204 90.7281L63.469 90.2754L60.7867 76.5552C60.3754 76.7159 59.9434 76.8832 59.5063 77.0144C59.8658 78.779 62.3516 91.2332 62.0334 92.9978C61.6765 94.897 56.2548 103.31 56.2548 103.31C56.2548 103.31 56.1824 113.534 55.6832 116.43C55.1839 119.326 50.9754 143.48 50.9754 143.48H88.4381C88.4381 143.48 87.8691 138.59 86.9405 134.883Z" fill="#263238" stroke="#263238" stroke-linecap="round" stroke-linejoin="round"/>
<path d="M72.6853 73.9706C72.8793 72.1666 73.3993 69.2966 73.3993 69.2966L66.123 65.2228C65.9405 67.4012 65.6135 69.5561 65.1452 71.6647L72.6853 73.9706Z" fill="white" stroke="#263238" stroke-linecap="round" stroke-linejoin="round"/>
<path d="M80.9471 49.856C80.9471 49.856 81.1618 54.2873 81.1618 57.0031C81.1618 59.7189 81.5188 62.3397 80.5203 65.8591C79.5219 69.3785 78.094 71.832 77.2379 72.2813C76.3817 72.7307 74.1002 72.2813 72.9569 71.7369C71.8136 71.1924 65.8953 66.584 65.8953 66.584C65.8953 66.584 67.5353 53.6477 67.75 52.7424C67.922 52.1016 68.1622 51.4935 68.4639 50.9351L80.9471 49.856Z" fill="white" stroke="#263238" stroke-linecap="round" stroke-linejoin="round"/>
<path d="M78.808 54.448C78.808 54.448 78.2363 55.8059 78.3087 56.9834C78.3812 58.161 80.1634 60.6898 80.1634 61.1425C80.1634 61.5951 79.1649 62.4086 77.9518 62.4086" stroke="#263238" stroke-linecap="round" stroke-linejoin="round"/>
<path d="M77.168 65.4065C77.168 65.4065 74.1701 65.3146 72.8147 62.9629" stroke="#263238" stroke-linecap="round" stroke-linejoin="round"/>
<path d="M71.8886 54.9105C71.8886 54.9105 73.601 53.5558 75.0987 53.9265" stroke="#263238" stroke-linecap="round" stroke-linejoin="round"/>
<path d="M79.1649 53.8248C79.448 53.5968 79.7816 53.4911 80.1159 53.5236C80.4503 53.5562 80.7673 53.7251 81.0196 54.0052" stroke="#263238" stroke-linecap="round" stroke-linejoin="round"/>
<path d="M75.1685 57.728C75.1685 58.4266 74.8969 58.9941 74.5633 58.9941C74.2296 58.9941 73.958 58.4266 73.958 57.728C73.958 57.0294 74.2296 56.4619 74.5633 56.4619C74.8969 56.4619 75.1685 57.0162 75.1685 57.728Z" fill="#263238"/>
<path d="M80.2694 57.5148C80.2694 58.2266 80.047 58.8006 79.7676 58.8006C79.4883 58.8006 79.2658 58.2266 79.2658 57.5148C79.2658 56.803 79.4909 56.2258 79.7676 56.2258C80.0444 56.2258 80.2694 56.803 80.2694 57.5148Z" fill="#263238"/>
<path d="M69.7469 51.1122C69.7469 51.1122 67.8922 65.4065 67.6077 69.4802C67.4342 71.8887 67.4576 74.3135 67.6776 76.7159C67.6776 76.7159 65.3961 75.1743 61.0453 73.472C56.6946 71.7697 53.3422 68.8603 53.3422 67.7746C53.3422 66.689 59.5502 51.4894 59.5502 51.4894L69.7469 51.1122Z" fill="#263238" stroke="#263238" stroke-miterlimit="10"/>
<path d="M63.1147 96.2549C63.1147 96.2549 57.3361 98.787 54.9822 99.6005C52.6283 100.414 46.7773 101.24 45.5641 103.864C44.351 106.488 44.2708 109.112 44.3536 111.376C44.4363 113.639 45.9935 114.629 47.2765 114.36C48.5595 114.092 53.3422 113.275 57.693 109.385C62.0438 105.495 65.9703 101.152 65.9703 101.152L63.1147 96.2549Z" fill="white" stroke="#263238" stroke-linecap="round" stroke-linejoin="round"/>
<path d="M80.3056 82.5018H78.7355V85.7589H80.3056V82.5018Z" fill="white" stroke="#263238" stroke-linecap="round" stroke-linejoin="round"/>
<path d="M82.0905 83.3186H80.2358V84.9454H82.0905V83.3186Z" fill="white" stroke="#263238" stroke-linecap="round" stroke-linejoin="round"/>
<path d="M78.7355 82.5018H76.0247V88.5633H78.7355V82.5018Z" fill="white" stroke="#263238" stroke-linecap="round" stroke-linejoin="round"/>
<path d="M77.3103 110.638C80.0246 110.638 82.225 107.053 82.225 102.631C82.225 98.2093 80.0246 94.6247 77.3103 94.6247C74.596 94.6247 72.3956 98.2093 72.3956 102.631C72.3956 107.053 74.596 110.638 77.3103 110.638Z" stroke="#263238" stroke-linecap="round" stroke-linejoin="round"/>
<path d="M61.8213 95.7104C61.8683 97.1396 62.1098 98.5478 62.5353 99.8727C63.2466 102.133 65.3806 103.851 65.3806 103.851L68.1638 101.864L71.8007 100.506C71.8007 100.506 73.7976 99.6005 74.0123 99.5218C74.227 99.443 79.2917 99.8826 80.3626 99.7022C81.4334 99.5218 82.4319 98.0621 82.1448 97.2585C81.8577 96.4549 80.5048 96.081 80.5048 96.081C80.5048 96.081 80.2901 92.9158 80.2203 92.555C80.1505 92.1942 81.7878 92.2828 81.8602 90.4722C81.9327 88.6617 81.2188 88.0319 81.2188 88.0319C81.2188 88.0319 81.1463 85.7687 80.1479 85.2275C79.1494 84.6863 77.8638 84.2435 75.153 84.8634C72.4422 85.4834 69.8736 86.5034 67.9492 89.298C66.0247 92.0926 65.0391 93.808 65.0391 93.808L61.8213 95.7104Z" fill="white" stroke="#263238" stroke-linecap="round" stroke-linejoin="round"/>
<path d="M80.5203 96.0712C80.5203 96.0712 78.0242 95.53 76.5964 95.9826" stroke="#263238" stroke-linecap="round" stroke-linejoin="round"/>
<path d="M80.2358 92.5452C80.2358 92.5452 77.525 91.0987 76.0247 91.5612" stroke="#263238" stroke-linecap="round" stroke-linejoin="round"/>
<path d="M81.2343 88.0221C81.2343 88.0221 78.3889 86.3034 75.7402 87.4776" stroke="#263238" stroke-linecap="round" stroke-linejoin="round"/>
<path d="M99.4548 90.2755C99.4548 90.2755 103.578 91.6071 105.639 99.5447" stroke="#263238" stroke-linecap="round" stroke-linejoin="round"/>
<path d="M105.055 84.0106C105.055 84.0106 106.348 94.2672 106.027 99.8891" stroke="#263238" stroke-linecap="round" stroke-linejoin="round"/>
<path d="M111.705 86.592C111.705 86.592 107.621 91.3742 106.845 99.6103" stroke="#263238" stroke-linecap="round" stroke-linejoin="round"/>
<path d="M103.826 81.1472C103.826 81.1472 103.014 79.599 102.274 79.9434C101.534 80.2878 101.053 81.7507 101.462 82.4395C101.871 83.1283 102.817 82.1804 102.755 82.6101C102.693 83.0397 101.397 83.8138 101.873 84.7617C102.349 85.7097 103.299 85.9655 103.57 85.2767C103.842 84.5879 104.043 83.7285 104.181 84.2435C104.318 84.7585 103.772 85.7917 104.439 86.0508C105.107 86.3099 106.408 86.3099 106.408 85.4473C106.408 84.5846 105.864 84.5026 106.271 84.2435C106.677 83.9844 107.153 85.1914 107.629 84.5026C108.105 83.8138 108.443 81.7507 107.763 81.4916C107.083 81.2325 107.085 81.9213 106.612 81.4063C106.139 80.8913 107.29 79.8581 106.002 79.2579C104.713 78.6577 103.286 79.1693 103.826 81.1472Z" fill="white" stroke="#263238" stroke-linecap="round" stroke-linejoin="round"/>
<path d="M110.668 85.7425C110.668 85.7425 109.227 85.3817 108.894 86.2968C108.56 87.2119 109.044 88.6682 109.716 88.7863C110.389 88.9044 110.528 87.3825 110.72 87.7466C110.911 88.1106 110.438 89.8162 111.302 90.0426C112.166 90.2689 112.98 89.6096 112.786 88.8814C112.592 88.1533 112.254 87.3628 112.639 87.6055C113.024 87.8482 113.218 89.0618 113.842 88.6322C114.465 88.2025 115.371 87.0446 114.889 86.4378C114.408 85.831 113.979 86.2607 114.113 85.713C114.248 85.1652 115.264 85.585 115.213 84.6732C115.161 83.7614 114.245 82.0033 113.625 82.4297C113.004 82.8561 113.387 83.3448 112.763 83.4137C112.14 83.4826 112.375 81.7114 111.131 82.4494C109.887 83.1874 109.178 84.8339 110.668 85.7425Z" fill="white" stroke="#263238" stroke-linecap="round" stroke-linejoin="round"/>
<path d="M96.9664 89.3538C96.9664 89.3538 95.5256 88.9962 95.1919 89.9081C94.8582 90.8199 95.3445 92.2795 96.0145 92.3976C96.6844 92.5157 96.8267 90.997 97.0207 91.3611C97.2147 91.7252 96.7387 93.4275 97.6027 93.6571C98.4666 93.8867 99.2789 93.2242 99.0849 92.496C98.8909 91.7678 98.5546 90.9773 98.9374 91.2201C99.3202 91.4628 99.5168 92.6764 100.14 92.25C100.764 91.8236 101.669 90.6592 101.188 90.0557C100.707 89.4521 100.277 89.8753 100.412 89.3275C100.546 88.7797 101.563 89.2029 101.511 88.2877C101.459 87.3726 100.546 85.6178 99.9229 86.0475C99.2995 86.4772 99.685 86.9593 99.0616 87.0315C98.4382 87.1037 98.6736 85.3325 97.4294 86.0672C96.1852 86.8019 95.4765 88.4485 96.9664 89.3538Z" fill="white" stroke="#263238" stroke-linecap="round" stroke-linejoin="round"/>
<path d="M104.168 99.6398C104.168 99.6398 104.031 99.1249 103.014 98.8658C102.506 98.7132 101.983 98.6557 101.462 98.6952C101.462 98.6952 100.919 98.2655 101.801 97.4914L102.683 96.7173C102.297 96.408 101.846 96.2568 101.39 96.2844C100.931 96.3525 100.478 96.4677 100.034 96.6288C100.047 96.1191 100.167 95.623 100.38 95.1909C100.594 94.7588 100.894 94.4061 101.25 94.1688C102.471 93.3947 103.154 93.9621 103.154 93.9621L101.656 92.2434C101.844 92.019 102.071 91.8551 102.319 91.7655C102.567 91.6759 102.829 91.6632 103.081 91.7285C103.736 91.884 104.358 92.2053 104.913 92.6731C104.913 92.6731 102.877 90.0918 102.742 89.7506C102.608 89.4095 103.963 89.8359 104.98 90.6953C105.568 91.1723 106.056 91.8213 106.405 92.5878C106.405 92.5878 106.54 91.125 106.948 90.2656C107.276 89.6347 107.662 89.0565 108.099 88.5436C108.099 88.5436 107.965 90.9544 107.965 91.6399C107.965 92.3254 108.399 91.1118 109.517 90.7182C110.278 90.5028 111.069 90.5242 111.822 90.7805C111.822 90.7805 110.27 91.6399 109.92 92.2434C109.571 92.847 109.108 93.8834 109.108 93.8834C109.108 93.8834 109.041 93.3685 110.262 93.6276C111.483 93.8867 112.905 95.5169 112.905 95.5169C112.905 95.5169 111.007 95.4316 110.319 95.8613C109.842 96.2104 109.427 96.6792 109.098 97.2389C109.289 97.0882 109.502 96.9876 109.724 96.9431C109.946 96.8986 110.173 96.9111 110.391 96.9798C110.89 97.1968 111.369 97.4851 111.816 97.8391C111.816 97.8391 109.985 98.1835 109.103 98.7018C108.221 99.22 107.949 99.8202 107.949 99.8202L104.168 99.6398Z" fill="#7AAB56" stroke="#263238" stroke-linecap="round" stroke-linejoin="round"/>
<path d="M108.446 114.075H103.604C102.641 114.075 101.71 113.636 100.98 112.838C100.251 112.041 99.772 110.937 99.6306 109.729L98.3735 98.9674H113.676L112.419 109.729C112.278 110.937 111.799 112.041 111.069 112.838C110.34 113.636 109.409 114.075 108.446 114.075Z" fill="#263238" stroke="#263238" stroke-linecap="round" stroke-linejoin="round"/>
<path d="M113.557 98.1507H98.4253C98.0153 98.1507 97.6829 98.5722 97.6829 99.0921V99.5316C97.6829 100.052 98.0153 100.473 98.4253 100.473H113.557C113.967 100.473 114.3 100.052 114.3 99.5316V99.0921C114.3 98.5722 113.967 98.1507 113.557 98.1507Z" fill="#A1A1A1" stroke="#263238" stroke-linecap="round" stroke-linejoin="round"/>
<path d="M94.6461 112.717C94.6461 112.717 93.6373 113.442 93.6373 116.44C93.6373 119.438 96.3482 120.783 96.8474 120.963C97.3466 121.144 102.554 120.15 106.692 119.064C110.831 117.978 112.329 115.266 112.471 113.636C112.613 112.005 111.829 110.923 111.258 111.736C110.686 112.55 110.689 112.911 109.403 113.908C108.118 114.905 107.905 114.994 106.121 114.892C104.336 114.79 100.414 112.632 100.13 111.366C99.8453 110.1 99.3539 108.378 97.9881 109.916C97.1587 110.863 96.4168 111.926 95.7765 113.085L94.6461 112.717Z" fill="white" stroke="#263238" stroke-linecap="round" stroke-linejoin="round"/>
<path d="M98.1407 107.289C98.1407 107.289 96.7155 113.17 97.1423 113.622C97.5691 114.075 98.2856 114.708 98.9969 114.8C99.7082 114.892 100.068 112.537 100.425 110.638C100.782 108.739 101.423 107.03 100.709 105.842C99.9954 104.655 98.3554 105.39 98.1407 107.289Z" fill="white" stroke="#263238" stroke-linecap="round" stroke-linejoin="round"/>
<path d="M101.139 108.466C101.139 108.466 99.7833 115.253 100.068 116.338C100.352 117.424 101.78 118.418 102.494 117.978C103.208 117.539 103.27 115.627 103.707 112.37C104.144 109.112 104.349 108.647 103.208 107.912C102.067 107.177 101.565 107.741 101.139 108.466Z" fill="white" stroke="#263238" stroke-linecap="round" stroke-linejoin="round"/>
<path d="M106.85 110.992C105.932 109.762 104.284 110.451 104.033 112.114C103.715 114.223 103.224 117.788 103.42 118.418C103.707 119.323 106.56 120.137 106.703 119.051C106.845 117.965 107.274 113.622 107.274 112.163C107.254 111.719 107.103 111.301 106.85 110.992Z" fill="white" stroke="#263238" stroke-linecap="round" stroke-linejoin="round"/>
<path d="M60.0443 51.6534C60.0443 51.6534 58.619 42.699 59.0458 41.433C59.4726 40.1669 64.183 37.0902 70.5332 36.4572C76.8835 35.8242 79.2374 36.9984 79.5219 38.6286C79.8064 40.2587 81.449 49.4821 81.449 49.4821L73.8131 51.2926L66.8938 52.1061L59.6873 52.5587L60.0443 51.6534Z" fill="white" stroke="#263238" stroke-linecap="round" stroke-linejoin="round"/>
<path d="M66.8938 52.1061L73.8131 51.2926L81.449 49.4821C81.449 49.4821 80.8049 45.8741 80.2539 42.7646C72.5948 45.2542 63.5699 46.248 59.333 46.599C59.6459 49.1475 60.0443 51.6534 60.0443 51.6534L59.6873 52.5587L66.8938 52.1061Z" fill="#7AAB56" stroke="#263238" stroke-linecap="round" stroke-linejoin="round"/>
<path d="M52.6982 51.5649C52.6982 51.5649 52.5533 52.6506 53.125 52.6506C53.6966 52.6506 57.7629 53.7362 67.75 52.7391C77.7371 51.742 82.3026 50.4792 85.2281 49.3935C88.1536 48.3078 89.0822 47.6748 88.9374 46.8613C88.7925 46.0479 89.6513 46.3169 88.7951 46.0446C87.9389 45.7724 87.0827 46.4087 86.3714 46.6777C85.9599 46.8327 85.555 47.0144 85.1582 47.2222L84.9435 45.9561H84.0874V47.8552L83.0165 48.3964L83.1587 47.2222L82.3026 46.8613L81.8758 48.216L81.6611 48.849L78.1665 49.7543V48.1143L77.0956 48.0225L76.8809 49.9216L75.241 50.2857L73.6709 49.3017L73.0294 49.856L73.958 50.489L71.1747 50.9417L69.7469 51.1221L68.8209 49.0393L67.8922 49.1311L68.4639 50.9417L66.7515 51.3025L67.1783 50.0364L65.8229 49.7642L64.9667 51.2106L60.9729 51.6633L62.1861 50.3972L61.8989 49.4919L59.6175 50.84L59.333 48.6686H58.0396L58.2543 50.3086L56.1307 48.849L55.2745 49.7543L56.3454 51.6534L52.6982 51.5649Z" fill="white" stroke="#263238" stroke-linecap="round" stroke-linejoin="round"/>
<path d="M16.2805 143.477H7.89709" stroke="#263238" stroke-linecap="round" stroke-linejoin="round"/>
<path d="M181.897 143.477H18.2774" stroke="#263238" stroke-linecap="round" stroke-linejoin="round"/>
<path d="M187.921 143.477H183.889" stroke="#263238" stroke-linecap="round" stroke-linejoin="round"/>
</svg>
