<svg width="350" height="311" viewBox="0 0 350 311" fill="none" xmlns="http://www.w3.org/2000/svg">
<path d="M286.148 139.346C283.319 127.617 278.878 116.409 272.972 106.093C262.585 87.9686 244.197 60.4438 223.349 49.7349C191.141 33.1869 161.861 32.3989 135.509 58.4029C109.157 84.4069 93.0533 158.479 83.5373 171.087C74.0213 183.695 45.4733 186.059 34.4933 205.759C23.5133 225.459 26.9464 271.951 26.9464 271.951H300.956C300.956 271.951 304.792 216.192 286.148 139.346Z" fill="#7AAB56"/>
<path opacity="0.8" d="M286.148 139.346C283.319 127.617 278.878 116.409 272.972 106.093C262.585 87.9686 244.197 60.4438 223.349 49.7349C191.141 33.1869 161.861 32.3989 135.509 58.4029C109.157 84.4069 93.0533 158.479 83.5373 171.087C74.0213 183.695 45.4733 186.059 34.4933 205.759C23.5133 225.459 26.9464 271.951 26.9464 271.951H300.956C300.956 271.951 304.792 216.192 286.148 139.346Z" fill="white"/>
<path d="M263.624 111.049C260.359 109.134 258.881 110.734 257.688 109.134C256.494 107.535 260.952 103.382 252.051 99.2292C252.051 99.2292 251.458 90.2854 239.292 89.9702C227.126 89.655 230.399 98.914 227.134 101.144C223.869 103.374 222.976 99.8674 219.711 102.105C216.447 104.343 217.933 108.811 215.261 109.457C212.589 110.104 209.031 106.581 205.745 108.811C202.458 111.041 202.502 112.964 201.016 112.964C199.53 112.964 196.565 111.68 194.787 112.964C193.008 114.248 190.929 115.832 190.929 115.832H266.01C266.01 115.832 266.896 112.964 263.624 111.049Z" fill="#7AAB56"/>
<path opacity="0.5" d="M263.624 111.049C260.359 109.134 258.881 110.734 257.688 109.134C256.494 107.535 260.952 103.382 252.051 99.2292C252.051 99.2292 251.458 90.2854 239.292 89.9702C227.126 89.655 230.399 98.914 227.134 101.144C223.869 103.374 222.976 99.8674 219.711 102.105C216.447 104.343 217.933 108.811 215.261 109.457C212.589 110.104 209.031 106.581 205.745 108.811C202.458 111.041 202.502 112.964 201.016 112.964C199.53 112.964 196.565 111.68 194.787 112.964C193.008 114.248 190.929 115.832 190.929 115.832H266.01C266.01 115.832 266.896 112.964 263.624 111.049Z" fill="#7AAB56"/>
<path d="M174.115 62.3114C172.183 61.1688 171.304 62.1223 170.601 61.1688C169.899 60.2153 172.534 57.7646 167.256 55.306C167.256 55.306 166.905 50.0028 159.695 49.79C152.484 49.5773 154.417 55.0933 152.484 56.4171C150.552 57.741 150.018 55.6291 148.092 56.9845C146.167 58.3399 147.038 60.9245 145.457 61.3421C143.876 61.7598 141.761 59.6322 139.828 60.956C137.896 62.2798 137.888 63.4225 137.01 63.4225C136.132 63.4225 134.375 62.6345 133.35 63.4225C132.325 64.2105 131.059 65.1245 131.059 65.1245H175.557C175.557 65.1245 176.048 63.4461 174.115 62.3114Z" fill="#7AAB56"/>
<path opacity="0.5" d="M174.115 62.3114C172.183 61.1688 171.304 62.1223 170.601 61.1688C169.899 60.2153 172.534 57.7646 167.256 55.306C167.256 55.306 166.905 50.0028 159.695 49.79C152.484 49.5773 154.417 55.0933 152.484 56.4171C150.552 57.741 150.018 55.6291 148.092 56.9845C146.167 58.3399 147.038 60.9245 145.457 61.3421C143.876 61.7598 141.761 59.6322 139.828 60.956C137.896 62.2798 137.888 63.4225 137.01 63.4225C136.132 63.4225 134.375 62.6345 133.35 63.4225C132.325 64.2105 131.059 65.1245 131.059 65.1245H175.557C175.557 65.1245 176.048 63.4461 174.115 62.3114Z" fill="#7AAB56"/>
<path d="M151.511 143.83C149.578 142.695 148.7 143.641 147.99 142.695C147.28 141.75 149.93 139.283 144.652 136.825C144.652 136.825 144.301 131.521 137.09 131.309C129.88 131.096 131.813 136.612 129.88 137.936C127.948 139.26 127.413 137.148 125.488 138.503C123.563 139.858 124.434 142.482 122.846 142.861C121.257 143.239 119.186 141.151 117.224 142.483C115.262 143.814 115.284 144.941 114.406 144.941C113.527 144.941 111.771 144.153 110.746 144.941C109.721 145.729 108.462 146.643 108.462 146.643H152.96C152.96 146.643 153.443 144.965 151.511 143.83Z" fill="#7AAB56"/>
<path opacity="0.5" d="M151.511 143.83C149.578 142.695 148.7 143.641 147.99 142.695C147.28 141.75 149.93 139.283 144.652 136.825C144.652 136.825 144.301 131.521 137.09 131.309C129.88 131.096 131.813 136.612 129.88 137.936C127.948 139.26 127.413 137.148 125.488 138.503C123.563 139.858 124.434 142.482 122.846 142.861C121.257 143.239 119.186 141.151 117.224 142.483C115.262 143.814 115.284 144.941 114.406 144.941C113.527 144.941 111.771 144.153 110.746 144.941C109.721 145.729 108.462 146.643 108.462 146.643H152.96C152.96 146.643 153.443 144.965 151.511 143.83Z" fill="#7AAB56"/>
<g opacity="0.5">
<path opacity="0.5" d="M263.624 111.049C260.359 109.134 258.881 110.734 257.688 109.134C256.494 107.535 260.952 103.382 252.051 99.2292C252.051 99.2292 251.458 90.2854 239.292 89.9702C227.126 89.655 230.399 98.914 227.134 101.144C223.869 103.374 222.976 99.8674 219.711 102.105C216.447 104.343 217.933 108.811 215.261 109.457C212.589 110.104 209.031 106.581 205.745 108.811C202.458 111.041 202.502 112.964 201.016 112.964C199.53 112.964 196.565 111.68 194.787 112.964C193.008 114.248 190.929 115.832 190.929 115.832H266.01C266.01 115.832 266.896 112.964 263.624 111.049Z" fill="white"/>
<path opacity="0.5" d="M263.624 111.049C260.359 109.134 258.881 110.734 257.688 109.134C256.494 107.535 260.952 103.382 252.051 99.2292C252.051 99.2292 251.458 90.2854 239.292 89.9702C227.126 89.655 230.399 98.914 227.134 101.144C223.869 103.374 222.976 99.8674 219.711 102.105C216.447 104.343 217.933 108.811 215.261 109.457C212.589 110.104 209.031 106.581 205.745 108.811C202.458 111.041 202.502 112.964 201.016 112.964C199.53 112.964 196.565 111.68 194.787 112.964C193.008 114.248 190.929 115.832 190.929 115.832H266.01C266.01 115.832 266.896 112.964 263.624 111.049Z" fill="white"/>
</g>
<g opacity="0.5">
<path opacity="0.5" d="M174.115 62.3114C172.183 61.1688 171.304 62.1223 170.601 61.1688C169.899 60.2153 172.534 57.7646 167.256 55.306C167.256 55.306 166.905 50.0028 159.695 49.79C152.484 49.5773 154.417 55.0933 152.484 56.4171C150.552 57.741 150.018 55.6291 148.092 56.9845C146.167 58.3399 147.038 60.9245 145.457 61.3421C143.876 61.7598 141.761 59.6322 139.828 60.956C137.896 62.2798 137.888 63.4225 137.01 63.4225C136.132 63.4225 134.375 62.6345 133.35 63.4225C132.325 64.2105 131.059 65.1245 131.059 65.1245H175.557C175.557 65.1245 176.048 63.4461 174.115 62.3114Z" fill="white"/>
<path opacity="0.5" d="M174.115 62.3114C172.183 61.1688 171.304 62.1223 170.601 61.1688C169.899 60.2153 172.534 57.7646 167.256 55.306C167.256 55.306 166.905 50.0028 159.695 49.79C152.484 49.5773 154.417 55.0933 152.484 56.4171C150.552 57.741 150.018 55.6291 148.092 56.9845C146.167 58.3399 147.038 60.9245 145.457 61.3421C143.876 61.7598 141.761 59.6322 139.828 60.956C137.896 62.2798 137.888 63.4225 137.01 63.4225C136.132 63.4225 134.375 62.6345 133.35 63.4225C132.325 64.2105 131.059 65.1245 131.059 65.1245H175.557C175.557 65.1245 176.048 63.4461 174.115 62.3114Z" fill="white"/>
</g>
<g opacity="0.5">
<path opacity="0.5" d="M151.511 143.83C149.578 142.695 148.7 143.641 147.99 142.695C147.28 141.75 149.93 139.283 144.652 136.825C144.652 136.825 144.301 131.521 137.09 131.309C129.88 131.096 131.813 136.612 129.88 137.936C127.948 139.26 127.413 137.148 125.488 138.503C123.563 139.858 124.434 142.482 122.846 142.861C121.257 143.239 119.186 141.151 117.224 142.483C115.262 143.814 115.284 144.941 114.406 144.941C113.527 144.941 111.771 144.153 110.746 144.941C109.721 145.729 108.462 146.643 108.462 146.643H152.96C152.96 146.643 153.443 144.965 151.511 143.83Z" fill="white"/>
<path opacity="0.5" d="M151.511 143.83C149.578 142.695 148.7 143.641 147.99 142.695C147.28 141.75 149.93 139.283 144.652 136.825C144.652 136.825 144.301 131.521 137.09 131.309C129.88 131.096 131.813 136.612 129.88 137.936C127.948 139.26 127.413 137.148 125.488 138.503C123.563 139.858 124.434 142.482 122.846 142.861C121.257 143.239 119.186 141.151 117.224 142.483C115.262 143.814 115.284 144.941 114.406 144.941C113.527 144.941 111.771 144.153 110.746 144.941C109.721 145.729 108.462 146.643 108.462 146.643H152.96C152.96 146.643 153.443 144.965 151.511 143.83Z" fill="white"/>
</g>
<path d="M29.7866 271.706L117.714 152.663C118.209 151.994 118.839 151.456 119.557 151.09C120.275 150.724 121.061 150.541 121.855 150.554C122.649 150.567 123.43 150.776 124.137 151.165C124.845 151.554 125.46 152.112 125.935 152.797L180.674 231.55L231.914 141.245C232.39 140.409 233.061 139.723 233.861 139.254C234.661 138.786 235.561 138.552 236.472 138.576C237.382 138.6 238.27 138.881 239.048 139.391C239.826 139.901 240.465 140.622 240.903 141.481L306.673 271.099L29.7866 271.706Z" fill="#7AAB56"/>
<path opacity="0.4" d="M29.7866 271.706L117.714 152.663C118.209 151.994 118.839 151.456 119.557 151.09C120.275 150.724 121.061 150.541 121.855 150.554C122.649 150.567 123.43 150.776 124.137 151.165C124.845 151.554 125.46 152.112 125.935 152.797L180.674 231.55L231.914 141.245C232.39 140.409 233.061 139.723 233.861 139.254C234.661 138.786 235.561 138.552 236.472 138.576C237.382 138.6 238.27 138.881 239.048 139.391C239.826 139.901 240.465 140.622 240.903 141.481L306.673 271.099L29.7866 271.706Z" fill="white"/>
<g opacity="0.2">
<path opacity="0.2" d="M123.688 150.946L153.392 271.431L208.951 271.313L125.935 152.797C125.362 151.965 124.583 151.324 123.688 150.946Z" fill="black"/>
<path opacity="0.2" d="M240.932 141.482C240.448 140.521 239.711 139.734 238.814 139.222C237.917 138.709 236.899 138.492 235.889 138.598L279.223 271.155L306.702 271.1L240.932 141.482Z" fill="black"/>
</g>
<path opacity="0.2" d="M84.7745 271.005L88.2075 250.549L75.9685 271.005H84.7745Z" fill="black"/>
<path d="M241.664 271.352H279.391C278.659 266.38 275.731 267.254 275.307 259.532C275.109 255.655 278.447 250.864 278.154 245.766C277.92 241.573 274.077 237.271 273.762 232.472C273.491 228.138 276.771 223.339 276.456 218.666C276.156 214.254 272.262 209.998 271.918 205.436C271.573 200.873 274.787 196.114 274.414 191.591C274.04 187.068 270.066 182.923 269.648 178.455C269.216 173.869 272.327 168.936 271.844 164.546C271.339 159.889 267.255 155.878 266.72 151.584C266.098 146.801 268.99 141.702 268.316 137.573C267.489 132.522 263.119 128.866 262.197 125.139C260.484 118.196 260.733 111.506 258.676 111.065C256.48 110.6 256.026 117.164 254.393 124.5C253.566 128.18 249.269 131.915 248.596 136.974C248.025 141.064 251.048 146.044 250.55 150.804C250.111 155.059 246.158 159.157 245.741 163.79C245.383 168.14 248.611 172.947 248.289 177.501C247.981 181.922 244.124 186.169 243.853 190.645C243.582 195.121 246.92 199.849 246.693 204.285C246.459 208.84 242.667 213.135 242.477 217.516C242.264 222.141 245.661 226.814 245.5 231.109C245.317 235.837 241.576 240.226 241.437 244.387C241.269 249.438 244.716 254.103 244.607 257.948C244.38 266.293 240.83 264.567 240.705 271.281L241.664 271.352Z" fill="#7AAB56"/>
<path d="M257.849 124.469V269.5" stroke="#263238" stroke-miterlimit="10"/>
<path d="M263.734 139.677L257.592 145.382L252.571 138.172" stroke="#263238" stroke-miterlimit="10"/>
<path d="M263.734 164.917L257.592 170.63L252.571 163.412" stroke="#263238" stroke-miterlimit="10"/>
<path d="M263.734 188.659L257.592 194.372L252.571 187.154" stroke="#263238" stroke-miterlimit="10"/>
<path d="M263.734 216.909L257.592 222.614L252.571 215.404" stroke="#263238" stroke-miterlimit="10"/>
<path d="M263.734 245.458L257.592 251.163L252.571 243.953" stroke="#263238" stroke-miterlimit="10"/>
<path d="M201.968 271.352H234.681C234.051 267.042 231.482 267.798 231.138 261.108C230.969 257.751 233.861 253.59 233.612 249.178C233.4 245.537 230.069 241.81 229.813 237.649C229.579 233.891 232.419 229.769 232.148 225.68C231.884 221.85 228.488 218.186 228.21 214.206C227.932 210.227 230.699 206.121 230.406 202.197C230.113 198.273 226.636 194.672 226.27 190.803C225.904 186.934 228.59 182.552 228.18 178.746C227.741 174.712 224.206 171.221 223.723 167.501C223.188 163.364 225.699 158.936 225.113 155.358C224.381 150.977 220.604 147.809 219.806 144.579C218.342 138.558 218.503 132.759 216.754 132.372C214.88 131.971 214.456 137.66 213.035 144.019C212.303 147.171 208.643 150.449 208.007 154.838C207.516 158.384 210.137 162.718 209.705 166.824C209.324 170.52 205.876 174.073 205.54 178.084C205.218 181.867 208.021 186.027 207.736 189.975C207.45 193.923 204.127 197.477 203.893 201.378C203.659 205.278 206.55 209.36 206.352 213.198C206.155 217.035 202.861 220.873 202.692 224.671C202.517 228.682 205.459 232.732 205.313 236.491C205.159 240.62 201.916 244.371 201.799 248.004C201.653 252.385 204.639 256.427 204.544 259.761C204.347 267.002 201.272 265.497 201.155 271.328L201.968 271.352Z" fill="#7AAB56"/>
<path d="M216.007 143.988V269.752" stroke="#263238" stroke-miterlimit="10"/>
<path d="M221.117 157.171L215.788 162.119L211.432 155.871" stroke="#263238" stroke-miterlimit="10"/>
<path d="M221.117 179.061L215.788 184.01L211.432 177.761" stroke="#263238" stroke-miterlimit="10"/>
<path d="M221.117 199.644L215.788 204.601L211.432 198.344" stroke="#263238" stroke-miterlimit="10"/>
<path d="M221.117 224.143L215.788 229.092L211.432 222.843" stroke="#263238" stroke-miterlimit="10"/>
<path d="M221.117 248.902L215.788 253.851L211.432 247.594" stroke="#263238" stroke-miterlimit="10"/>
<path d="M39.632 271.352H72.3451C71.7155 267.042 69.1462 267.798 68.8095 261.108C68.6338 257.751 71.5252 253.59 71.2763 249.178C71.0714 245.537 67.7408 241.81 67.4773 237.649C67.2503 233.891 70.0905 229.769 69.8123 225.68C69.5561 221.85 66.1523 218.186 65.8742 214.206C65.596 210.227 68.3703 206.121 68.0702 202.197C67.7701 198.273 64.3077 194.672 63.9417 190.803C63.5757 186.934 66.2621 182.552 65.8522 178.746C65.413 174.712 61.8701 171.221 61.3943 167.501C60.86 163.364 63.3634 158.936 62.7778 155.358C62.0458 150.977 58.2687 147.809 57.4781 144.579C56.0141 138.558 56.1752 132.759 54.4257 132.372C52.5518 131.971 52.1199 137.66 50.7071 144.019C49.9751 147.171 46.3151 150.449 45.6783 154.838C45.1879 158.384 47.8011 162.718 47.3765 166.824C46.9886 170.52 43.5409 174.073 43.2041 178.084C42.8894 181.867 45.6929 186.027 45.4001 189.975C45.1073 193.923 41.7841 197.477 41.5498 201.378C41.3156 205.278 44.207 209.36 44.0093 213.198C43.8117 217.035 40.525 220.873 40.3493 224.671C40.1663 228.682 43.109 232.732 42.9699 236.491C42.8089 240.62 39.5661 244.371 39.449 248.004C39.3026 252.385 42.2965 256.427 42.2013 259.761C42.0037 267.002 38.9219 265.497 38.8121 271.328L39.632 271.352Z" fill="#7AAB56"/>
<path d="M53.6937 143.988V269.752" stroke="#263238" stroke-miterlimit="10"/>
<path d="M58.8031 157.171L53.4741 162.119L49.1187 155.871" stroke="#263238" stroke-miterlimit="10"/>
<path d="M58.8031 179.061L53.4741 184.01L49.1187 177.761" stroke="#263238" stroke-miterlimit="10"/>
<path d="M58.8031 199.644L53.4741 204.601L49.1187 198.344" stroke="#263238" stroke-miterlimit="10"/>
<path d="M58.8031 224.143L53.4741 229.092L49.1187 222.843" stroke="#263238" stroke-miterlimit="10"/>
<path d="M58.8031 248.902L53.4741 253.851L49.1187 247.594" stroke="#263238" stroke-miterlimit="10"/>
<path d="M216.386 271.187C231.528 267.406 240.955 251.126 237.443 234.825C233.93 218.525 218.808 208.376 203.665 212.157C188.523 215.938 179.096 232.218 182.608 248.519C186.121 264.819 201.243 274.968 216.386 271.187Z" fill="#263238"/>
<path d="M219.394 266.614C232.186 261.047 238.364 245.371 233.193 231.6C228.022 217.829 213.46 211.178 200.668 216.745C187.876 222.312 181.698 237.988 186.869 251.758C192.04 265.529 206.602 272.18 219.394 266.614Z" fill="white"/>
<path d="M210.042 265.095C214.263 265.091 218.393 263.766 221.928 261.281C225.463 258.797 228.251 255.26 229.952 251.1" stroke="#263238" stroke-linecap="round" stroke-linejoin="round"/>
<path d="M210.042 218.217C206.163 218.211 202.353 219.322 199.007 221.433C195.661 223.545 192.9 226.58 191.01 230.226" stroke="#263238" stroke-linecap="round" stroke-linejoin="round"/>
<path d="M210.042 220.565C206.551 220.565 203.123 221.568 200.113 223.471C197.102 225.375 194.619 228.11 192.92 231.393" stroke="#263238" stroke-linecap="round" stroke-linejoin="round"/>
<path d="M209.668 262.739H210.042C213.858 262.741 217.592 261.544 220.786 259.295C223.979 257.046 226.493 253.842 228.02 250.076" stroke="#263238" stroke-linecap="round" stroke-linejoin="round"/>
<path d="M210.042 223.174C206.978 223.172 203.97 224.053 201.33 225.726C198.69 227.398 196.514 229.801 195.028 232.685" stroke="#263238" stroke-linecap="round" stroke-linejoin="round"/>
<path d="M210.042 260.139C213.356 260.139 216.599 259.106 219.381 257.166C222.162 255.225 224.361 252.459 225.714 249.201" stroke="#263238" stroke-linecap="round" stroke-linejoin="round"/>
<path d="M210.042 226.042C207.463 226.041 204.931 226.78 202.707 228.183C200.482 229.587 198.645 231.603 197.385 234.024" stroke="#263238" stroke-linecap="round" stroke-linejoin="round"/>
<path d="M210.042 257.263C212.791 257.264 215.484 256.423 217.806 254.84C220.129 253.256 221.985 250.995 223.159 248.319" stroke="#263238" stroke-linecap="round" stroke-linejoin="round"/>
<path d="M140.882 263.076C151.873 251.244 151.873 232.06 140.882 220.227C129.89 208.395 112.07 208.395 101.078 220.227C90.0867 232.06 90.0867 251.244 101.078 263.076C112.07 274.909 129.89 274.909 140.882 263.076Z" fill="#263238"/>
<path d="M143.975 252.149C149.366 238.476 143.44 222.687 130.739 216.884C118.038 211.08 103.372 217.459 97.9803 231.132C92.5891 244.804 98.5148 260.593 111.216 266.397C123.917 272.2 138.583 265.821 143.975 252.149Z" fill="white"/>
<path d="M120.979 265.095C125.205 265.096 129.339 263.773 132.878 261.288C136.417 258.803 139.209 255.263 140.911 251.1" stroke="#263238" stroke-linecap="round" stroke-linejoin="round"/>
<path d="M120.979 218.217C117.1 218.211 113.291 219.321 109.944 221.432C106.598 223.544 103.837 226.58 101.947 230.226" stroke="#263238" stroke-linecap="round" stroke-linejoin="round"/>
<path d="M120.979 220.565C117.488 220.565 114.06 221.568 111.05 223.471C108.04 225.375 105.557 228.11 103.858 231.393" stroke="#263238" stroke-linecap="round" stroke-linejoin="round"/>
<path d="M120.606 262.739H120.979C124.796 262.742 128.53 261.546 131.724 259.296C134.918 257.047 137.432 253.842 138.957 250.076" stroke="#263238" stroke-linecap="round" stroke-linejoin="round"/>
<path d="M120.979 223.174C117.916 223.173 114.908 224.054 112.268 225.727C109.628 227.399 107.452 229.802 105.966 232.685" stroke="#263238" stroke-linecap="round" stroke-linejoin="round"/>
<path d="M120.979 260.139C124.294 260.139 127.539 259.106 130.321 257.165C133.103 255.224 135.304 252.459 136.659 249.201" stroke="#263238" stroke-linecap="round" stroke-linejoin="round"/>
<path d="M120.979 226.042C118.401 226.042 115.869 226.782 113.645 228.185C111.42 229.588 109.583 231.603 108.323 234.024" stroke="#263238" stroke-linecap="round" stroke-linejoin="round"/>
<path d="M120.979 257.263C123.728 257.265 126.422 256.425 128.744 254.841C131.067 253.258 132.923 250.995 134.097 248.319" stroke="#263238" stroke-linecap="round" stroke-linejoin="round"/>
<path d="M187.408 141.765L184.019 125.635C184.019 125.635 179.993 124.059 176.772 125.982C174.115 127.558 164.826 141.521 161.664 146.352L161.473 146.147C161.431 146.068 161.37 146.003 161.297 145.958C161.224 145.913 161.141 145.889 161.056 145.889C160.972 145.889 160.889 145.913 160.816 145.958C160.742 146.003 160.681 146.068 160.639 146.147C160.639 146.147 158.443 148.243 158.531 148.976C158.752 149.439 159.033 149.866 159.365 150.244L141.292 169.944C141.292 169.944 136.417 170.062 135.546 170.527C134.675 170.992 134.675 171.111 134.675 172.891C134.675 174.672 134.894 176.28 135.217 176.398C135.539 176.516 137.5 176.981 137.713 176.28C137.925 175.579 137.171 174.294 137.171 174.294C137.171 174.294 137.713 172.781 138.803 173.246C139.894 173.711 140.75 175.232 142.163 174.649C143.576 174.066 144.769 171.607 144.769 171.607L164.292 156.036C164.665 156.462 165.064 156.862 165.485 157.234C166.18 157.722 168.618 155.745 168.581 154.767C168.587 154.731 168.587 154.694 168.581 154.657L187.408 141.765Z" fill="#263238"/>
<path d="M140.78 183.884C140.609 183.883 140.441 183.834 140.293 183.742C140.145 183.649 140.023 183.516 139.938 183.356L135.385 174.783C135.258 174.542 135.224 174.257 135.292 173.991C135.36 173.724 135.524 173.497 135.747 173.36C135.971 173.223 136.235 173.188 136.483 173.261C136.731 173.334 136.941 173.51 137.069 173.75L141.622 182.308C141.71 182.467 141.758 182.648 141.76 182.834C141.761 183.019 141.717 183.202 141.631 183.362C141.545 183.523 141.421 183.656 141.271 183.748C141.122 183.84 140.952 183.887 140.78 183.884V183.884Z" fill="white" stroke="#263238" stroke-linecap="round" stroke-linejoin="round"/>
<path d="M157.36 149.125L138.613 169.613C138.613 169.613 133.731 169.731 132.859 170.196C131.988 170.661 131.988 170.78 131.988 172.56C131.988 174.341 132.208 175.941 132.537 176.059C132.867 176.177 134.814 176.642 135.026 175.941C135.238 175.24 134.485 173.955 134.485 173.955C134.485 173.955 135.026 172.442 136.117 172.907C137.208 173.372 138.064 174.893 139.477 174.31C140.89 173.727 142.083 171.276 142.083 171.276L162.462 154.964L157.36 149.125Z" fill="white" stroke="#263238" stroke-linecap="round" stroke-linejoin="round"/>
<path d="M138.503 174.042C138.505 173.562 138.374 173.092 138.127 172.691C137.88 172.291 137.528 171.979 137.117 171.794C136.705 171.609 136.251 171.56 135.813 171.653C135.376 171.745 134.973 171.976 134.657 172.315C134.341 172.654 134.126 173.087 134.038 173.558C133.95 174.029 133.995 174.517 134.165 174.961C134.335 175.405 134.624 175.784 134.995 176.051C135.366 176.318 135.802 176.461 136.249 176.461C136.845 176.461 137.418 176.206 137.84 175.753C138.263 175.299 138.501 174.684 138.503 174.042V174.042Z" fill="#263238"/>
<path d="M197.451 176.248C195.415 177.266 193.236 177.91 191.002 178.155C187.459 178.502 185.044 177.982 185.878 180.756C186.713 183.529 192.159 184.05 196.192 183.009C200.225 181.969 202.151 180.409 201.668 177.635C201.184 174.861 198.74 175.728 197.451 176.248Z" fill="#263238"/>
<path d="M184.722 170.173C184.722 170.173 159.907 189.952 159.263 194.112C158.619 198.273 163.128 229.84 163.128 229.84L166.993 231.227C166.993 231.227 169.094 203.127 171.187 197.753C173.281 192.379 194.069 179.715 194.552 173.325C195.036 166.934 189.875 166.879 184.722 170.173Z" fill="#263238"/>
<path d="M163.128 229.84C161.917 230.199 160.676 230.431 159.424 230.534C157.33 230.707 154.432 229.493 154.432 230.36C154.432 231.227 157.974 234.529 159.746 234.702C161.517 234.875 163.772 235.049 163.772 235.049L163.86 236.396L166.187 237.129L166.993 231.227L163.128 229.84Z" fill="#263238"/>
<path d="M163.88 236.402L156.259 232.249L155.168 234.569L162.789 238.722L163.88 236.402Z" fill="white" stroke="#263238" stroke-linecap="round" stroke-linejoin="round"/>
<path d="M159.504 235.482L169.255 242.677L170.206 240.139L159.746 234.702L159.504 235.482Z" fill="white" stroke="#263238" stroke-linecap="round" stroke-linejoin="round"/>
<path d="M210.583 239.919L190.936 186.784C190.885 186.647 190.808 186.524 190.709 186.421L191.749 183.474C191.794 183.346 191.815 183.21 191.812 183.074C191.808 182.937 191.779 182.802 191.727 182.678C191.675 182.553 191.601 182.44 191.509 182.346C191.416 182.253 191.308 182.179 191.189 182.131C191.07 182.082 190.944 182.059 190.817 182.063C190.69 182.067 190.565 182.098 190.449 182.154C190.333 182.21 190.229 182.29 190.141 182.389C190.054 182.489 189.986 182.606 189.941 182.734L187.672 189.171H140.436C141.278 185.436 141.709 183.151 141.731 183.064C141.756 182.93 141.757 182.792 141.732 182.658C141.707 182.524 141.659 182.397 141.588 182.283C141.518 182.169 141.427 182.071 141.322 181.995C141.217 181.919 141.098 181.866 140.974 181.839C140.849 181.812 140.721 181.812 140.596 181.838C140.472 181.865 140.353 181.917 140.248 181.993C140.142 182.069 140.051 182.166 139.98 182.28C139.91 182.393 139.86 182.521 139.835 182.655C139.77 183.001 133.116 218.02 120.152 241.116C120.022 241.353 119.984 241.635 120.046 241.902C120.107 242.169 120.264 242.399 120.481 242.543C120.701 242.685 120.964 242.727 121.212 242.66C121.46 242.594 121.674 242.424 121.806 242.188C128.687 229.935 133.804 214.403 137.127 202.331L169.196 243.181C169.252 243.353 169.331 243.515 169.43 243.662C169.609 243.927 169.843 244.144 170.114 244.293C170.385 244.442 170.685 244.52 170.989 244.521H171.077L208.885 242.755C209.193 242.74 209.492 242.647 209.76 242.482C210.027 242.318 210.254 242.088 210.422 241.81C210.588 241.532 210.689 241.214 210.717 240.885C210.745 240.556 210.699 240.225 210.583 239.919V239.919ZM139.953 191.252H186.94L169.613 240.502L137.779 199.936C138.65 196.681 139.367 193.734 139.953 191.252ZM170.997 242.472L189.743 189.203L208.775 240.699L170.997 242.472Z" fill="white" stroke="#263238" stroke-linecap="round" stroke-linejoin="round"/>
<path d="M143.034 182.86C143.034 182.38 142.902 181.91 142.654 181.511C142.407 181.112 142.054 180.801 141.643 180.617C141.231 180.434 140.777 180.386 140.34 180.479C139.903 180.573 139.501 180.804 139.186 181.143C138.87 181.483 138.656 181.915 138.569 182.386C138.482 182.857 138.526 183.345 138.697 183.788C138.867 184.232 139.156 184.611 139.527 184.878C139.898 185.144 140.334 185.287 140.78 185.287C141.378 185.287 141.951 185.031 142.374 184.576C142.797 184.121 143.034 183.503 143.034 182.86V182.86Z" fill="white" stroke="#263238" stroke-linecap="round" stroke-linejoin="round"/>
<path d="M124.163 241.652C124.163 240.974 123.977 240.312 123.627 239.748C123.277 239.184 122.78 238.745 122.198 238.485C121.616 238.226 120.976 238.158 120.358 238.29C119.74 238.423 119.173 238.749 118.728 239.228C118.282 239.708 117.979 240.319 117.856 240.984C117.733 241.648 117.796 242.338 118.037 242.964C118.278 243.59 118.686 244.126 119.21 244.502C119.734 244.879 120.349 245.08 120.979 245.08C121.824 245.08 122.634 244.719 123.231 244.076C123.828 243.433 124.163 242.561 124.163 241.652Z" fill="#263238"/>
<path d="M212.838 241.652C212.839 240.972 212.653 240.307 212.303 239.741C211.954 239.175 211.456 238.734 210.873 238.472C210.29 238.211 209.648 238.142 209.028 238.274C208.409 238.405 207.839 238.732 207.392 239.212C206.945 239.692 206.64 240.305 206.517 240.971C206.393 241.638 206.456 242.329 206.697 242.957C206.938 243.586 207.347 244.123 207.872 244.501C208.397 244.878 209.015 245.08 209.646 245.08C210.491 245.08 211.302 244.719 211.9 244.077C212.499 243.434 212.836 242.562 212.838 241.652Z" fill="#263238"/>
<path d="M176.933 241.652C176.933 240.25 176.547 238.878 175.823 237.712C175.099 236.546 174.07 235.637 172.866 235.1C171.663 234.563 170.338 234.423 169.06 234.697C167.782 234.97 166.608 235.646 165.687 236.637C164.765 237.629 164.138 238.893 163.884 240.269C163.63 241.644 163.76 243.07 164.259 244.366C164.757 245.662 165.602 246.77 166.685 247.549C167.769 248.328 169.042 248.744 170.345 248.744C172.092 248.744 173.768 247.997 175.004 246.667C176.239 245.337 176.933 243.533 176.933 241.652Z" fill="#263238"/>
<path d="M180.366 243.023L170.206 240.139C170.018 240.082 169.821 240.067 169.626 240.093C169.432 240.12 169.245 240.188 169.076 240.294C168.907 240.4 168.759 240.541 168.641 240.709C168.523 240.878 168.438 241.07 168.391 241.274C168.333 241.493 168.321 241.724 168.354 241.949C168.387 242.174 168.465 242.388 168.582 242.578C168.7 242.768 168.854 242.927 169.035 243.046C169.215 243.165 169.418 243.241 169.628 243.268L181.018 244.93L180.366 243.023Z" fill="white" stroke="#263238" stroke-linecap="round" stroke-linejoin="round"/>
<path d="M184.686 238.67L178.94 245.475L180.727 247.224L186.473 240.42L184.686 238.67Z" fill="white" stroke="#263238" stroke-linecap="round" stroke-linejoin="round"/>
<path d="M184.568 169.479C184.568 169.479 165.119 188.841 164.152 194.215C163.186 199.589 182.958 234.355 182.958 234.355L186.823 232.969C186.823 232.969 175.703 202.434 177.153 200.18C178.602 197.926 204.617 179.006 208.49 172.6C212.362 166.193 210.166 159.787 207.267 156.84C204.369 153.893 184.568 169.479 184.568 169.479Z" fill="#263238"/>
<path d="M171.67 194.223L177.146 200.18L174.437 192.938" stroke="white" stroke-width="0.75" stroke-linecap="round" stroke-linejoin="round"/>
<path d="M167.908 205.948C167.908 205.948 163.948 195.507 165.133 192.308C166.319 189.108 185.717 173.348 185.717 173.348C185.717 173.348 195.416 169.834 201.953 171.213" stroke="white" stroke-width="0.75" stroke-linecap="round" stroke-linejoin="round"/>
<path d="M196.609 169.29C196.609 169.29 199.969 167.588 204.918 169.503" stroke="white" stroke-width="0.75" stroke-linecap="round" stroke-linejoin="round"/>
<path d="M182.95 234.355C182.95 234.355 181.179 236.436 179.4 238.343C177.621 240.25 175.374 240.77 176.179 241.29C176.984 241.81 178.273 242.33 180.696 241.463C183.119 240.596 186.171 237.649 186.171 237.649L186.654 238.516L189.392 236.94L186.815 232.953L182.95 234.355Z" fill="#263238"/>
<path d="M173.098 100.49C171.773 99.0582 170.159 97.9749 168.381 97.3244C166.604 96.6738 164.711 96.4735 162.85 96.7391C159.402 97.4089 158.458 102.444 157.799 105.47L157.191 108.236L157.25 110.356L156.152 114.863C156.117 115 156.11 115.144 156.132 115.284C156.153 115.424 156.202 115.558 156.276 115.676C156.35 115.794 156.446 115.894 156.558 115.968C156.671 116.043 156.797 116.091 156.928 116.108L158.157 116.281C158.37 117.755 159.761 120.686 159.944 121.711C160.676 125.651 163.069 125.375 164.628 124.768C165.63 124.255 166.565 123.603 167.41 122.83L171.07 126.163L177.614 118.496L174.818 114.146C174.818 114.146 175.66 103.382 173.098 100.49Z" fill="white" stroke="#263238" stroke-linecap="round" stroke-linejoin="round"/>
<path d="M159.782 111.435C159.885 112.058 159.782 112.602 159.556 112.641C159.329 112.68 159.065 112.215 158.97 111.593C158.875 110.97 158.97 110.427 159.19 110.387C159.409 110.348 159.68 110.813 159.782 111.435Z" fill="#263238"/>
<path d="M158.018 108.969C158.211 108.78 158.44 108.639 158.689 108.555C158.938 108.471 159.201 108.447 159.459 108.483C159.718 108.52 159.966 108.617 160.186 108.768C160.406 108.918 160.593 109.119 160.734 109.355" stroke="#263238" stroke-linecap="round" stroke-linejoin="round"/>
<path d="M163.464 104.556C163.464 104.556 161.51 107.054 162.242 107.976C163.246 109.045 164.304 110.052 165.412 110.994C165.412 110.994 167.124 107.708 169.562 109.024C172 110.34 170.052 113.492 170.902 114.8C171.751 116.108 174.686 114.146 174.928 113.492C175.169 112.838 179.568 103.248 179.81 99.702C180.052 96.156 171.026 92.61 167.124 91.822C163.223 91.034 160.288 92.87 161.02 92.082C161.752 91.294 162.974 89.1901 160.654 88.93C158.333 88.67 155.288 92.476 155.288 94.7061C155.287 95.3105 155.501 95.8923 155.887 96.332C156.272 96.7717 156.799 97.0358 157.36 97.0701C157.36 97.0701 151.504 95.4941 153.092 99.174C154.68 102.854 157.36 102.72 159.804 102.854C161.185 102.883 162.499 103.494 163.464 104.556V104.556Z" fill="#263238"/>
<path d="M167.974 109.418H167.893C167.701 109.394 167.526 109.29 167.405 109.127C167.284 108.965 167.228 108.758 167.249 108.551L168.105 100.403C168.116 100.3 168.146 100.2 168.193 100.109C168.24 100.018 168.303 99.9374 168.379 99.8726C168.455 99.8079 168.542 99.7598 168.635 99.7312C168.728 99.7026 168.825 99.694 168.921 99.7059C169.018 99.7178 169.111 99.75 169.195 99.8006C169.28 99.8512 169.354 99.9192 169.414 100.001C169.475 100.082 169.519 100.176 169.546 100.276C169.572 100.376 169.58 100.481 169.569 100.585L168.72 108.725C168.698 108.92 168.61 109.099 168.472 109.227C168.333 109.355 168.156 109.423 167.974 109.418Z" fill="white" stroke="#263238" stroke-miterlimit="10"/>
<path d="M167.644 117.085C167.202 117.086 166.765 116.993 166.356 116.812C165.948 116.631 165.576 116.365 165.264 116.029C164.951 115.693 164.703 115.294 164.533 114.854C164.364 114.415 164.277 113.944 164.277 113.468V110.08C164.279 109.12 164.635 108.2 165.266 107.522C165.897 106.844 166.752 106.463 167.644 106.463V106.463C168.536 106.463 169.391 106.844 170.023 107.522C170.654 108.2 171.009 109.12 171.011 110.08V113.468C171.011 113.944 170.924 114.415 170.755 114.854C170.586 115.294 170.337 115.693 170.025 116.029C169.712 116.365 169.341 116.631 168.932 116.812C168.524 116.993 168.086 117.086 167.644 117.085Z" fill="white" stroke="#263238" stroke-miterlimit="10"/>
<path d="M168.508 92.476L167.447 100.86C167.418 101.071 167.429 101.285 167.479 101.49C167.529 101.696 167.618 101.888 167.739 102.056C167.86 102.224 168.011 102.364 168.183 102.467C168.356 102.57 168.546 102.635 168.742 102.657H168.83C169.023 102.684 169.219 102.67 169.407 102.615C169.595 102.56 169.771 102.465 169.924 102.336C170.077 102.207 170.205 102.046 170.3 101.863C170.395 101.68 170.455 101.478 170.477 101.27L171.451 92.87C171.477 92.6616 171.465 92.4496 171.414 92.2464C171.363 92.0432 171.275 91.8531 171.155 91.6871C171.035 91.5211 170.885 91.3827 170.715 91.28C170.544 91.1773 170.356 91.1124 170.162 91.0891C169.969 91.0605 169.772 91.0739 169.583 91.1285C169.394 91.1831 169.218 91.2778 169.063 91.407C168.909 91.5363 168.781 91.6975 168.685 91.881C168.59 92.0646 168.53 92.2669 168.508 92.476V92.476Z" fill="white" stroke="#263238" stroke-miterlimit="10"/>
<path d="M178.595 115.328C178.595 115.328 166.883 126.762 167.051 128.669C167.22 130.576 166.846 139.086 171.194 148.629C175.542 158.172 180.754 166.193 182.687 169.834C184.619 173.475 190.248 170.78 190.248 170.78C190.248 170.78 202.085 166.312 205.95 162.324C209.815 158.337 205.95 151.056 205.95 151.056C205.95 151.056 191.646 129.031 186.976 123.657C184.4 120.638 181.596 117.852 178.595 115.328V115.328Z" fill="#7AAB56" stroke="#263238" stroke-linecap="round" stroke-linejoin="round"/>
<path d="M166.758 130.3C166.758 130.3 169.137 128.023 171.063 126.139C172.988 124.256 182.738 122.16 185.176 122.68C187.613 123.2 188.228 125.572 188.718 125.438C189.209 125.304 189.45 121.892 186.888 117.298C184.326 112.704 180.418 110.734 178.346 112.176C176.274 113.618 171.15 120.584 168.954 123.468C166.758 126.352 165.902 128.07 166.758 130.3Z" fill="#7AAB56" stroke="#263238" stroke-linecap="round" stroke-linejoin="round"/>
<path d="M177.526 145.374C177.526 145.374 185.373 146.076 190.827 144.902" stroke="#263238" stroke-linecap="round" stroke-linejoin="round"/>
<path d="M174.466 146.06C174.466 146.06 181.882 150.993 189.516 151.458" stroke="#263238" stroke-linecap="round" stroke-linejoin="round"/>
<path d="M181.34 125.249C181.34 125.249 177.307 123.673 174.086 125.596C170.865 127.518 157.901 147.636 157.901 147.636L164.489 155.224L184.692 141.403" fill="#7AAB56"/>
<path d="M181.34 125.249C181.34 125.249 177.307 123.673 174.086 125.596C170.865 127.518 157.901 147.636 157.901 147.636L164.489 155.224L184.692 141.403" stroke="#263238" stroke-linecap="round" stroke-linejoin="round"/>
<path d="M157.952 145.768C157.952 145.768 155.756 147.865 155.844 148.597C155.932 149.33 162.103 156.367 162.798 156.848C163.494 157.328 165.931 155.358 165.895 154.381C165.858 153.404 158.787 145.761 158.787 145.761C158.744 145.682 158.682 145.618 158.609 145.573C158.535 145.529 158.452 145.506 158.368 145.507C158.283 145.507 158.2 145.532 158.128 145.578C158.055 145.624 157.994 145.69 157.952 145.768Z" fill="#7AAB56" stroke="#263238" stroke-linecap="round" stroke-linejoin="round"/>
<path d="M22.3861 273.905H308.92C309.332 273.905 309.726 273.729 310.017 273.416C310.308 273.103 310.472 272.678 310.472 272.235V272.235C310.472 271.791 310.308 271.367 310.017 271.053C309.726 270.74 309.332 270.564 308.92 270.564H22.3861C22.1817 270.563 21.9791 270.605 21.79 270.689C21.6008 270.772 21.4289 270.895 21.284 271.05C21.1391 271.206 21.0242 271.39 20.9457 271.593C20.8673 271.797 20.8269 272.014 20.8269 272.235C20.8269 272.455 20.8673 272.672 20.9457 272.876C21.0242 273.079 21.1391 273.263 21.284 273.419C21.4289 273.574 21.6008 273.697 21.79 273.78C21.9791 273.864 22.1817 273.906 22.3861 273.905V273.905Z" fill="#263238"/>
</svg>
