<?xml version="1.0" standalone="no"?>
<!DOCTYPE svg PUBLIC "-//W3C//DTD SVG 20010904//EN"
 "http://www.w3.org/TR/2001/REC-SVG-20010904/DTD/svg10.dtd">
<svg version="1.0" xmlns="http://www.w3.org/2000/svg"
 width="507.000000pt" height="507.000000pt" viewBox="0 0 507.000000 507.000000"
 preserveAspectRatio="xMidYMid meet">
<metadata>
Created by potrace 1.14, written by Peter Selinger 2001-2017
</metadata>
<g transform="translate(0.000000,507.000000) scale(0.100000,-0.100000)"
fill="#000000" stroke="none">
<path d="M3981 4963 c-6 -10 -11 -13 -11 -8 0 7 -3 7 -8 0 -4 -5 -29 -26 -57
-45 -52 -36 -66 -47 -90 -67 -7 -7 -16 -13 -20 -13 -3 0 -11 -5 -18 -10 -47
-40 -65 -54 -89 -68 -16 -9 -28 -20 -28 -24 0 -4 -6 -8 -14 -8 -8 0 -16 -3
-18 -8 -1 -4 -25 -25 -53 -47 -27 -21 -56 -46 -62 -54 -7 -8 -13 -11 -13 -7 0
4 -17 -9 -37 -28 -21 -20 -41 -36 -45 -36 -4 0 -23 -15 -43 -32 -19 -18 -40
-37 -47 -43 -22 -17 -121 -101 -157 -134 -19 -17 -38 -31 -43 -31 -4 0 -8 -7
-8 -17 0 -9 -3 -14 -6 -10 -7 6 -56 -36 -144 -125 -32 -32 -62 -58 -69 -58 -6
0 -11 -3 -11 -8 0 -4 -44 -53 -97 -109 -142 -148 -163 -171 -163 -183 0 -6 -4
-8 -10 -5 -5 3 -10 3 -10 -2 0 -4 -17 -27 -39 -51 -21 -23 -36 -42 -33 -42 3
0 -4 -8 -14 -17 -11 -10 -33 -36 -50 -58 -16 -22 -33 -45 -39 -51 -5 -6 -17
-22 -25 -34 -8 -12 -20 -28 -26 -34 -27 -28 -170 -248 -205 -316 -13 -25 -27
-47 -30 -50 -9 -8 -74 -144 -72 -152 1 -3 -4 -9 -12 -12 -8 -3 -15 -1 -15 5 0
6 -4 8 -9 5 -5 -3 -14 1 -21 9 -7 8 -17 15 -22 15 -5 0 -20 8 -35 17 -14 10
-33 18 -42 20 -9 1 -17 7 -19 12 -2 6 -8 11 -14 11 -5 0 -23 9 -39 21 -16 11
-29 17 -29 13 0 -4 -8 -1 -17 7 -10 8 -49 30 -88 49 -38 19 -72 38 -73 43 -2
4 -8 5 -13 1 -5 -3 -9 0 -9 7 0 7 -3 9 -6 6 -4 -4 -19 2 -33 12 -14 9 -44 26
-66 36 -22 9 -48 24 -58 33 -9 8 -20 12 -23 9 -4 -3 -21 5 -39 18 -17 14 -39
25 -48 25 -10 0 -17 3 -17 8 0 4 -15 14 -32 21 -18 8 -55 28 -83 44 -27 17
-56 30 -62 30 -7 0 -13 3 -13 7 0 4 -34 24 -75 46 -41 21 -75 43 -75 47 0 5
-4 5 -10 2 -5 -3 -10 -1 -10 4 0 6 -7 11 -15 11 -8 0 -15 3 -15 8 0 4 -15 14
-32 22 -18 7 -42 22 -52 32 -11 10 -26 18 -33 18 -7 0 -13 4 -13 8 0 8 -48 39
-62 41 -5 1 -17 9 -27 19 -11 9 -32 26 -46 37 -15 11 -33 26 -41 33 -8 7 -14
11 -14 7 0 -4 -6 0 -13 7 -8 7 -28 24 -46 38 -17 14 -52 44 -76 68 -25 23 -49
42 -53 42 -5 0 -14 10 -20 23 -10 21 -11 21 -13 2 -1 -11 -3 -29 -4 -40 -3
-19 -12 -81 -21 -155 -3 -19 -6 -48 -8 -65 -3 -16 -5 -30 -6 -30 -1 0 -3 -24
-4 -52 -1 -29 -5 -55 -8 -58 -3 -3 -4 -19 -2 -36 2 -16 0 -28 -4 -25 -5 3 -9
-1 -9 -9 0 -8 4 -15 9 -15 5 0 6 -5 2 -11 -7 -12 -14 -71 -17 -156 -2 -29 -6
-55 -10 -59 -3 -4 -2 -15 4 -25 5 -11 6 -19 2 -19 -5 0 -9 -41 -8 -91 0 -50
-2 -92 -5 -94 -4 -3 -4 -490 0 -490 1 0 3 -29 4 -65 1 -36 5 -71 10 -79 6 -10
5 -12 -2 -7 -9 5 -10 1 -4 -16 5 -13 8 -42 8 -65 -1 -24 1 -43 4 -43 3 0 5
-15 6 -33 1 -35 14 -151 20 -182 7 -30 17 -98 17 -112 0 -7 3 -13 6 -13 3 0 7
-10 8 -22 3 -39 11 -93 13 -93 1 0 3 -8 5 -19 2 -10 9 -41 16 -70 7 -28 14
-54 15 -58 1 -5 3 -10 4 -13 1 -3 4 -9 5 -15 1 -5 4 -12 5 -15 1 -3 3 -13 5
-22 1 -10 4 -25 8 -33 17 -43 69 -197 69 -207 1 -7 5 -13 10 -13 4 0 8 -7 8
-15 0 -8 12 -40 27 -72 15 -32 26 -62 25 -66 -1 -4 4 -10 12 -13 8 -3 12 -12
9 -20 -3 -8 0 -14 6 -14 6 0 11 -3 10 -8 -2 -15 14 -52 23 -52 5 0 6 -4 3 -10
-3 -5 -2 -10 4 -10 5 0 12 -9 16 -19 3 -11 17 -36 30 -55 13 -20 21 -36 17
-36 -4 0 -2 -4 3 -8 6 -4 32 -37 58 -74 26 -36 54 -73 62 -82 8 -8 15 -17 15
-20 0 -8 105 -121 154 -166 21 -19 54 -50 73 -67 19 -18 38 -33 41 -33 4 0 18
-10 32 -22 33 -30 137 -98 150 -98 5 0 10 -4 10 -10 0 -5 6 -10 14 -10 8 0 16
-3 18 -7 6 -14 219 -113 243 -113 8 0 15 -4 15 -8 0 -5 6 -9 13 -10 34 -3 53
-8 57 -14 3 -4 16 -9 28 -11 12 -2 25 -6 28 -10 4 -4 20 -7 36 -7 15 0 28 -4
28 -8 0 -4 10 -8 23 -9 12 -1 33 -4 47 -8 41 -10 73 -16 105 -20 17 -2 44 -7
60 -10 17 -4 50 -8 75 -9 25 -1 50 -4 55 -7 19 -11 406 -9 425 1 12 6 21 6 25
1 3 -6 15 -8 28 -5 12 3 40 7 62 9 22 2 65 7 95 11 30 4 65 7 78 7 12 -1 22 2
22 6 0 3 15 6 33 5 17 0 38 4 45 9 7 6 15 7 18 5 3 -3 22 -1 42 4 20 5 51 11
67 14 40 6 70 12 70 14 0 2 13 5 55 13 70 14 81 19 75 37 -3 10 -8 27 -10 37
-2 10 -8 37 -14 61 -26 100 -30 119 -36 151 -3 19 -9 39 -13 45 -3 6 -7 16 -8
21 -10 52 -15 75 -23 103 -5 18 -10 35 -10 37 -1 3 -1 6 -2 8 0 1 -2 11 -4 22
-2 11 -11 49 -19 83 -8 34 -12 62 -9 62 3 0 0 6 -6 14 -6 8 -11 18 -10 22 1 5
0 12 -1 17 -5 14 -8 27 -9 41 0 8 -7 21 -14 28 -7 7 -18 20 -23 29 -11 20 -63
86 -85 109 -8 9 -13 22 -11 30 3 7 0 10 -7 6 -6 -4 -11 -2 -11 4 0 6 -18 38
-40 70 -22 32 -40 64 -40 69 0 6 -3 11 -8 11 -4 0 -18 25 -32 55 -14 30 -28
55 -32 55 -5 0 -8 4 -8 9 0 6 -19 50 -41 98 -61 129 -60 128 -63 143 -1 8 -10
33 -20 55 -10 22 -19 47 -21 55 -2 8 -10 33 -18 55 -19 51 -46 142 -53 180 -9
44 -12 60 -14 60 -1 0 -4 14 -6 30 -3 17 -9 45 -15 62 -6 18 -8 37 -4 43 3 5
2 10 -3 10 -5 0 -8 10 -7 23 1 12 0 27 -4 32 -3 6 -7 21 -7 35 -1 14 -4 45 -7
70 -13 102 -17 170 -9 170 4 0 9 -14 10 -30 1 -17 9 -55 16 -85 8 -29 18 -74
21 -99 4 -25 11 -46 16 -46 5 0 6 -7 3 -15 -4 -8 -1 -21 5 -29 6 -7 8 -16 5
-19 -3 -3 -2 -12 2 -19 5 -7 9 -18 10 -24 4 -27 70 -209 77 -212 4 -2 5 -8 1
-13 -3 -5 -1 -9 5 -9 6 0 8 -7 5 -15 -4 -8 -1 -15 7 -15 7 0 10 -3 6 -6 -6 -6
129 -274 162 -323 10 -14 38 -55 61 -91 24 -36 48 -68 54 -72 6 -4 7 -8 2 -8
-5 0 3 -11 17 -24 14 -13 23 -27 20 -30 -4 -3 -1 -6 5 -6 7 0 12 -6 12 -14 0
-8 7 -16 15 -20 16 -6 21 19 6 28 -5 4 -8 14 -7 24 2 9 -1 31 -6 47 -5 17 -11
39 -13 50 -2 11 -6 34 -10 50 -24 115 -35 175 -39 205 -3 19 -6 35 -7 35 -2 0
-4 14 -11 76 -3 20 -8 41 -12 47 -4 7 -3 12 2 12 6 0 7 14 3 33 -7 33 -6 199
2 274 2 24 1 43 -2 43 -4 0 -7 8 -8 18 -1 16 -36 133 -50 172 -3 8 -8 26 -10
40 -2 14 -6 32 -10 40 -6 14 -8 24 -17 73 -3 12 -5 22 -6 22 -1 0 -3 11 -6 25
-2 14 -7 39 -10 55 -10 58 -14 90 -18 140 -2 28 -5 50 -6 50 -1 0 -3 8 -5 18
-2 9 1 17 6 17 6 0 6 7 1 18 -7 14 -9 307 -2 307 1 0 4 29 6 65 6 84 11 125
14 125 1 0 3 11 5 25 6 53 21 135 25 135 1 0 4 13 6 30 3 16 7 32 10 34 4 4 8
-48 5 -84 -1 -18 0 -277 2 -352 0 -18 4 -33 9 -33 5 0 6 -6 1 -12 -10 -17 -13
-40 -6 -51 3 -5 7 -38 9 -72 2 -35 6 -80 9 -101 4 -22 8 -61 11 -88 5 -50 11
-91 14 -91 1 0 3 -14 5 -32 2 -18 9 -58 16 -90 7 -32 13 -65 14 -73 0 -9 3
-20 6 -25 3 -6 6 -26 8 -45 3 -37 16 -61 18 -32 1 17 7 56 17 105 3 15 8 37
10 50 2 12 9 42 15 66 5 25 8 49 5 53 -3 4 -1 8 4 8 5 0 9 6 9 13 0 6 4 26 7
42 4 17 10 44 13 60 3 17 9 38 14 48 6 9 7 22 4 27 -3 6 -1 10 6 10 7 0 10 3
6 6 -3 3 2 29 10 57 9 29 16 58 16 65 0 6 4 12 9 12 4 0 7 3 6 8 -4 11 45 166
55 173 5 3 8 10 8 15 -2 13 38 120 72 194 17 36 31 67 32 70 0 3 6 15 13 28 7
12 9 22 5 22 -4 0 -3 4 3 8 6 4 30 44 53 89 23 45 48 87 56 93 8 7 12 16 9 21
-3 5 0 9 5 9 6 0 11 4 11 10 0 9 66 108 80 120 3 3 19 22 34 43 16 21 30 36
32 34 5 -5 -68 -150 -79 -158 -5 -3 -9 -10 -9 -15 -1 -5 -15 -38 -32 -74 -16
-36 -31 -67 -31 -70 -1 -3 -10 -23 -20 -45 -26 -60 -38 -89 -39 -97 -1 -3 -4
-10 -8 -14 -5 -4 -8 -16 -8 -26 0 -10 -5 -18 -11 -18 -5 0 -7 -5 -4 -10 4 -6
1 -17 -5 -25 -7 -8 -9 -15 -5 -15 4 0 2 -7 -5 -15 -7 -8 -9 -15 -4 -15 4 0 3
-5 -4 -12 -7 -7 -12 -22 -12 -35 0 -13 -5 -23 -12 -23 -6 0 -9 -3 -5 -6 3 -3
-1 -23 -8 -44 -7 -21 -16 -51 -18 -67 -3 -15 -9 -39 -15 -53 -5 -14 -10 -28
-11 -32 0 -5 -1 -9 -2 -10 -2 -7 -8 -36 -14 -67 -3 -19 -7 -37 -9 -40 -5 -9
-19 -102 -20 -133 -1 -16 -5 -28 -10 -28 -4 0 -6 -6 -3 -14 3 -8 3 -17 -1 -21
-4 -3 -7 -18 -8 -33 -1 -15 -5 -47 -8 -72 -12 -80 -19 -173 -20 -242 -1 -38
-3 -68 -6 -68 -10 0 -5 -105 5 -112 7 -5 6 -8 -1 -8 -12 0 -12 -89 -1 -107 4
-7 4 -14 -1 -17 -10 -6 -9 -82 1 -92 3 -4 2 -14 -3 -24 -5 -10 -6 -20 -3 -24
6 -5 14 -114 17 -223 1 -50 15 -59 50 -32 14 11 26 17 26 12 0 -4 4 -3 8 2 13
19 69 55 76 48 3 -3 6 0 6 8 0 8 12 22 28 31 15 9 37 25 48 35 12 10 43 36 69
58 75 63 124 113 117 119 -3 3 0 6 7 6 16 0 121 115 121 132 0 5 5 6 10 3 6
-3 10 -2 10 2 0 10 25 44 53 74 9 11 18 22 19 27 2 8 14 24 40 52 9 10 14 21
10 24 -3 3 0 6 7 6 7 0 9 5 6 10 -3 6 -2 10 4 10 6 0 17 15 26 33 8 17 28 48
45 67 16 19 27 36 25 38 -2 3 4 17 14 31 27 39 81 144 81 159 0 6 5 12 10 12
6 0 10 6 10 14 0 8 4 17 9 20 5 4 7 -3 4 -14 -3 -11 -9 -23 -14 -26 -5 -3 -9
-12 -9 -19 0 -8 -20 -56 -44 -107 -24 -51 -51 -112 -61 -135 -11 -24 -23 -43
-28 -43 -4 0 -6 -4 -3 -9 3 -4 -6 -23 -19 -41 -14 -19 -25 -38 -25 -43 0 -11
-60 -100 -74 -109 -6 -4 -8 -8 -3 -8 6 0 -118 -178 -133 -190 -3 -3 -13 -16
-22 -29 -17 -24 -115 -136 -156 -178 -13 -13 -27 -23 -33 -23 -6 0 -8 -3 -6
-7 2 -5 -18 -29 -44 -54 -27 -26 -49 -45 -49 -43 0 2 -14 -10 -30 -26 -17 -17
-35 -30 -41 -30 -6 0 -7 -5 -4 -10 3 -5 2 -10 -3 -10 -16 0 -102 -72 -96 -81
3 -5 7 -26 9 -46 2 -21 6 -49 8 -63 3 -14 8 -43 12 -65 3 -22 9 -51 12 -65 3
-14 6 -35 7 -47 0 -13 4 -23 8 -23 3 0 4 -9 1 -20 -3 -11 -1 -20 4 -20 5 0 10
-6 10 -12 2 -27 19 -120 23 -125 2 -2 3 -6 5 -10 1 -5 5 -20 9 -34 4 -14 9
-32 10 -40 2 -8 6 -21 9 -29 4 -8 8 -24 10 -35 1 -11 5 -24 8 -30 4 -5 10 -23
14 -40 10 -37 8 -30 27 -90 22 -71 105 -292 128 -342 11 -24 20 -47 20 -52 0
-5 7 -15 17 -22 13 -11 17 -11 20 -1 3 6 11 12 19 12 8 0 14 5 14 12 0 6 3 9
6 5 4 -3 12 -1 19 6 20 19 55 42 64 42 5 0 21 12 36 28 15 15 31 27 36 27 4 0
14 6 21 13 7 6 31 25 53 41 22 17 43 35 47 40 4 6 8 8 8 4 0 -4 13 5 29 20 53
50 111 100 111 96 0 -6 32 27 58 60 12 16 22 25 22 21 0 -4 21 16 48 45 26 29
59 66 74 82 15 15 24 28 20 28 -4 0 5 11 18 23 14 13 48 57 75 98 28 41 53 75
58 77 4 2 7 9 7 16 0 7 9 22 20 34 12 12 19 22 16 22 -3 0 15 40 40 89 24 49
44 95 44 102 0 8 7 22 15 32 7 11 12 27 10 38 -2 10 -1 19 3 19 9 0 36 89 47
155 2 11 4 20 5 20 4 0 18 86 26 160 9 91 10 295 1 295 -5 0 -4 6 2 14 9 11 9
20 2 35 -14 25 -14 34 0 25 8 -4 8 -1 2 12 -5 11 -10 35 -11 54 -3 56 -15 127
-47 290 -2 8 -4 15 -5 15 -2 0 -11 38 -15 65 -1 14 -4 25 -5 25 -1 0 -3 11 -6
25 -2 14 -7 32 -11 40 -5 14 -11 35 -17 67 -1 7 -5 16 -9 19 -4 4 -7 17 -7 29
0 12 -3 25 -7 29 -4 3 -8 16 -10 29 -2 12 -8 26 -13 31 -4 4 -6 14 -4 21 3 7
1 16 -5 19 -6 4 -8 13 -5 20 3 8 1 17 -5 21 -6 3 -11 15 -11 26 0 10 -5 19
-11 19 -5 0 -8 4 -5 9 4 5 -3 30 -14 56 -11 25 -19 49 -18 53 1 4 -3 16 -7 27
-17 42 -43 110 -43 115 0 3 -5 18 -11 33 -6 16 -11 35 -11 43 0 8 -5 14 -11
14 -6 0 -9 6 -6 13 2 6 -1 21 -6 32 -6 11 -12 25 -13 30 -6 29 -50 140 -56
143 -5 2 -8 17 -8 33 0 17 -4 28 -8 25 -4 -2 -9 4 -10 15 -4 43 -6 49 -14 49
-4 0 -8 9 -8 20 0 11 -4 28 -9 38 -9 18 -49 138 -53 162 -2 8 -6 17 -10 20 -4
3 -8 17 -10 30 -2 14 -6 30 -10 35 -3 6 -12 36 -19 68 -8 31 -17 57 -20 57 -4
0 -6 11 -4 25 1 14 -1 25 -6 25 -4 0 -8 8 -8 18 0 9 -5 35 -11 57 -6 22 -13
49 -15 60 -2 11 -4 21 -5 23 -4 4 -17 69 -25 125 -2 12 -7 36 -10 52 -4 17 -7
47 -8 68 0 20 -3 37 -6 37 -6 0 -8 33 -12 198 -2 82 -9 98 -28 65z m-2911
-2118 c0 -5 -5 -3 -10 5 -5 8 -10 20 -10 25 0 6 5 3 10 -5 5 -8 10 -19 10 -25z
m13 -55 c3 -11 1 -18 -4 -14 -5 3 -9 12 -9 20 0 20 7 17 13 -6z m14 -36 c-16
-16 178 -490 206 -502 4 -2 7 -8 7 -14 0 -6 11 -26 25 -43 13 -18 21 -35 18
-39 -4 -3 -1 -6 5 -6 7 0 12 -7 12 -15 0 -8 4 -15 9 -15 5 0 11 -8 14 -17 9
-29 40 -77 83 -130 14 -18 23 -33 19 -33 -3 0 3 -10 15 -22 11 -12 20 -25 20
-28 0 -4 8 -16 18 -28 9 -11 28 -35 42 -53 14 -18 31 -38 38 -46 7 -7 10 -13
6 -13 -4 0 1 -8 12 -18 10 -10 35 -38 54 -62 19 -24 47 -56 63 -71 15 -16 27
-31 27 -34 0 -9 238 -245 247 -245 5 0 16 -11 23 -25 7 -13 20 -27 29 -30 9
-3 34 -23 56 -45 22 -21 43 -39 47 -40 4 0 19 -12 35 -26 15 -14 29 -21 31
-15 4 13 32 2 32 -13 0 -6 15 -27 33 -47 17 -20 52 -60 77 -89 84 -100 322
-330 340 -330 5 0 10 -4 10 -8 0 -5 23 -26 51 -48 27 -21 61 -49 74 -61 13
-13 28 -23 32 -23 5 0 15 -9 23 -20 8 -11 20 -20 27 -20 7 0 13 -4 13 -10 0
-5 6 -10 13 -10 7 0 19 -9 27 -20 8 -11 20 -20 27 -20 7 0 13 -4 13 -10 0 -5
7 -10 15 -10 8 0 15 -4 15 -9 0 -5 38 -35 85 -66 47 -31 85 -58 85 -61 0 -3
-56 25 -142 74 -21 12 -38 19 -38 17 0 -3 -25 10 -55 30 -31 19 -60 35 -65 35
-6 0 -10 4 -10 9 0 5 -10 11 -23 15 -13 3 -34 15 -47 26 -13 11 -29 20 -37 20
-7 0 -13 5 -13 10 0 6 -6 10 -14 10 -8 0 -16 7 -20 15 -3 8 -14 15 -24 15 -10
0 -22 3 -26 7 -4 4 -30 8 -59 9 -50 2 -142 11 -142 14 0 2 -73 12 -97 13 -10
1 -18 4 -18 8 0 4 -8 6 -17 4 -10 -1 -27 1 -39 6 -11 4 -38 10 -58 13 -21 4
-43 9 -50 13 -12 8 -27 12 -65 18 -13 2 -28 8 -33 13 -6 6 -16 8 -23 6 -7 -3
-16 -1 -20 5 -3 6 -16 11 -27 11 -12 0 -30 7 -40 17 -14 13 -18 13 -18 2 0 -9
-3 -10 -8 -4 -7 10 -45 29 -67 35 -5 1 -19 7 -30 13 -11 6 -23 10 -27 9 -5 -1
-8 3 -8 9 0 6 -7 9 -15 5 -8 -3 -15 -1 -15 4 0 6 -9 10 -20 10 -10 0 -23 7
-28 16 -5 9 -12 15 -15 15 -13 -2 -87 34 -87 42 0 4 -4 6 -9 3 -5 -3 -14 1
-21 9 -7 8 -19 15 -26 15 -8 0 -23 9 -34 20 -11 11 -27 20 -35 20 -8 0 -15 5
-15 10 0 6 -7 10 -15 10 -8 0 -15 3 -15 8 0 4 -12 13 -27 19 -16 7 -44 26 -63
43 -19 16 -39 30 -43 30 -5 0 -14 6 -22 13 -7 6 -36 32 -65 57 -29 25 -69 60
-89 79 -36 33 -36 33 19 -5 30 -21 57 -42 58 -46 2 -5 8 -8 12 -8 5 0 52 -27
105 -61 53 -33 104 -63 113 -66 9 -4 19 -9 22 -12 6 -7 112 -58 123 -59 4 -1
20 -8 35 -16 31 -18 102 -48 117 -51 6 0 24 -7 40 -14 17 -7 38 -13 48 -14 9
-1 17 -4 17 -7 0 -4 6 -7 13 -8 6 0 55 -12 107 -26 52 -14 118 -29 145 -32 28
-4 56 -11 64 -18 12 -9 13 -8 6 3 -6 10 -4 12 5 6 14 -9 18 -9 125 -18 39 -4
64 -4 56 0 -13 5 -21 12 -71 53 -9 8 -32 26 -50 40 -18 14 -45 36 -61 50 -15
14 -55 50 -89 80 -66 58 -240 230 -240 237 0 2 -24 27 -52 57 -48 48 -63 59
-93 66 -5 1 -22 11 -36 21 -14 10 -29 16 -33 12 -3 -3 -6 -1 -6 6 0 7 -5 9
-10 6 -6 -3 -10 -2 -10 2 0 7 -62 39 -88 45 -4 1 -13 8 -20 15 -7 7 -20 13
-28 13 -8 0 -14 5 -14 10 0 6 -6 10 -14 10 -8 0 -16 5 -18 11 -2 5 -11 11 -20
13 -9 1 -25 9 -35 17 -10 8 -30 21 -45 29 -16 7 -28 17 -28 22 0 4 -7 8 -15 8
-8 0 -23 9 -32 20 -10 11 -22 20 -28 20 -5 0 -26 13 -45 30 -19 16 -36 28 -38
26 -2 -2 -13 6 -26 18 -12 11 -51 46 -86 76 -95 82 -214 207 -261 275 l-42 60
52 -52 c28 -29 56 -53 61 -53 6 0 10 -7 10 -15 0 -8 3 -15 8 -15 4 0 23 -14
42 -31 19 -17 49 -43 65 -57 17 -15 46 -38 65 -51 19 -14 39 -30 43 -38 4 -7
12 -13 18 -13 5 0 32 -16 59 -35 28 -19 50 -33 50 -30 0 3 10 -3 22 -15 12
-11 28 -20 35 -20 7 0 13 -3 13 -7 0 -5 27 -21 60 -38 33 -16 60 -33 60 -38 0
-5 6 -7 14 -4 8 3 16 3 18 -2 4 -9 100 -55 111 -53 4 1 7 -3 7 -8 0 -6 11 -10
24 -10 14 0 27 -4 30 -9 3 -5 15 -11 26 -14 17 -4 17 -1 -8 32 -15 20 -30 38
-34 39 -5 2 -8 9 -8 15 -1 7 -14 27 -30 46 -16 19 -27 38 -25 42 3 4 -2 9 -10
13 -8 3 -15 12 -15 21 0 8 -4 15 -10 15 -5 0 -10 7 -10 15 0 9 -7 18 -15 21
-8 4 -12 10 -9 15 3 5 1 9 -4 9 -5 0 -12 8 -15 18 -6 17 -37 72 -47 82 -3 3
-11 15 -17 28 -7 12 -19 32 -25 45 -7 12 -15 24 -18 27 -25 25 -165 317 -231
481 -31 78 -109 304 -109 316 0 2 5 3 12 3 6 0 9 -3 5 -6z m1443 -169 c0 -8
-2 -15 -4 -15 -2 0 -6 7 -10 15 -3 8 -1 15 4 15 6 0 10 -7 10 -15z"/>
</g>
</svg>
