<svg width="205" height="177" viewBox="0 0 205 177" fill="none" xmlns="http://www.w3.org/2000/svg">
<path d="M169.236 83.7139C167.651 78.4447 165.164 73.4095 161.856 68.7751C156.038 60.6331 145.739 48.2679 134.062 43.457C116.022 36.023 99.6218 35.669 84.8618 47.351C70.1018 59.033 61.0818 92.309 55.7518 97.973C50.4218 103.637 34.4318 104.699 28.2818 113.549C22.1318 122.399 24.0547 143.285 24.0547 143.285H177.53C177.53 143.285 179.678 118.236 169.236 83.7139Z" fill="#7AAB56"/>
<path opacity="0.8" d="M169.236 83.7139C167.651 78.4447 165.164 73.4095 161.856 68.7751C156.038 60.6331 145.739 48.2679 134.062 43.457C116.022 36.023 99.6218 35.669 84.8618 47.351C70.1018 59.033 61.0818 92.309 55.7518 97.973C50.4218 103.637 34.4318 104.699 28.2818 113.549C22.1318 122.399 24.0547 143.285 24.0547 143.285H177.53C177.53 143.285 179.678 118.236 169.236 83.7139Z" fill="white"/>
<path d="M156.62 71.0018C154.791 70.1416 153.963 70.8602 153.295 70.1416C152.627 69.4229 155.124 67.5574 150.138 65.6918C150.138 65.6918 149.806 61.6739 142.992 61.5323C136.177 61.3907 138.01 65.5502 136.181 66.552C134.353 67.5538 133.853 65.9785 132.024 66.9839C130.196 67.9892 131.028 69.9964 129.531 70.2867C128.035 70.577 126.042 68.9946 124.201 69.9964C122.36 70.9982 122.385 71.862 121.553 71.862C120.72 71.862 119.06 71.285 118.064 71.862C117.067 72.439 115.903 73.1506 115.903 73.1506H157.957C157.957 73.1506 158.453 71.862 156.62 71.0018Z" fill="#7AAB56"/>
<path opacity="0.5" d="M156.62 71.0018C154.791 70.1416 153.963 70.8602 153.295 70.1416C152.627 69.4229 155.124 67.5574 150.138 65.6918C150.138 65.6918 149.806 61.6739 142.992 61.5323C136.177 61.3907 138.01 65.5502 136.181 66.552C134.353 67.5538 133.853 65.9785 132.024 66.9839C130.196 67.9892 131.028 69.9964 129.531 70.2867C128.035 70.577 126.042 68.9946 124.201 69.9964C122.36 70.9982 122.385 71.862 121.553 71.862C120.72 71.862 119.06 71.285 118.064 71.862C117.067 72.439 115.903 73.1506 115.903 73.1506H157.957C157.957 73.1506 158.453 71.862 156.62 71.0018Z" fill="#7AAB56"/>
<path d="M106.485 49.1069C105.403 48.5936 104.911 49.0219 104.517 48.5936C104.124 48.1652 105.6 47.0643 102.643 45.9598C102.643 45.9598 102.447 43.5774 98.4082 43.4818C94.3697 43.3862 95.4521 45.8642 94.3697 46.459C93.2873 47.0537 92.988 46.105 91.9097 46.7138C90.8314 47.3227 91.3193 48.4838 90.4337 48.6715C89.5481 48.8591 88.3632 47.9033 87.2808 48.498C86.1984 49.0927 86.1943 49.606 85.7023 49.606C85.2103 49.606 84.2263 49.252 83.6523 49.606C83.0783 49.96 82.369 50.3707 82.369 50.3707H107.293C107.293 50.3707 107.568 49.6166 106.485 49.1069Z" fill="#7AAB56"/>
<path opacity="0.5" d="M106.485 49.1069C105.403 48.5936 104.911 49.0219 104.517 48.5936C104.124 48.1652 105.6 47.0643 102.643 45.9598C102.643 45.9598 102.447 43.5774 98.4082 43.4818C94.3697 43.3862 95.4521 45.8642 94.3697 46.459C93.2873 47.0537 92.988 46.105 91.9097 46.7138C90.8314 47.3227 91.3193 48.4838 90.4337 48.6715C89.5481 48.8591 88.3632 47.9033 87.2808 48.498C86.1984 49.0927 86.1943 49.606 85.7023 49.606C85.2103 49.606 84.2263 49.252 83.6523 49.606C83.0783 49.96 82.369 50.3707 82.369 50.3707H107.293C107.293 50.3707 107.568 49.6166 106.485 49.1069Z" fill="#7AAB56"/>
<path d="M93.8244 85.7282C92.742 85.2184 92.25 85.6432 91.8523 85.2184C91.4546 84.7936 92.9388 83.6856 89.9827 82.5811C89.9827 82.5811 89.7859 80.1987 85.7474 80.1031C81.7089 80.0075 82.7913 82.4855 81.7089 83.0803C80.6265 83.675 80.3272 82.7263 79.2489 83.3351C78.1706 83.944 78.6585 85.1228 77.7688 85.2928C76.8791 85.4627 75.7188 84.5246 74.62 85.1228C73.5212 85.7211 73.5335 86.2273 73.0415 86.2273C72.5495 86.2273 71.5655 85.8733 70.9915 86.2273C70.4175 86.5813 69.7123 86.992 69.7123 86.992H94.6362C94.6362 86.992 94.9068 86.2379 93.8244 85.7282Z" fill="#7AAB56"/>
<path opacity="0.5" d="M93.8244 85.7282C92.742 85.2184 92.25 85.6432 91.8523 85.2184C91.4546 84.7936 92.9388 83.6856 89.9827 82.5811C89.9827 82.5811 89.7859 80.1987 85.7474 80.1031C81.7089 80.0075 82.7913 82.4855 81.7089 83.0803C80.6265 83.675 80.3272 82.7263 79.2489 83.3351C78.1706 83.944 78.6585 85.1228 77.7688 85.2928C76.8791 85.4627 75.7188 84.5246 74.62 85.1228C73.5212 85.7211 73.5335 86.2273 73.0415 86.2273C72.5495 86.2273 71.5655 85.8733 70.9915 86.2273C70.4175 86.5813 69.7123 86.992 69.7123 86.992H94.6362C94.6362 86.992 94.9068 86.2379 93.8244 85.7282Z" fill="#7AAB56"/>
<g opacity="0.5">
<path opacity="0.5" d="M156.62 71.0018C154.791 70.1416 153.963 70.8602 153.295 70.1416C152.627 69.4229 155.124 67.5574 150.138 65.6918C150.138 65.6918 149.806 61.6739 142.992 61.5323C136.177 61.3907 138.01 65.5502 136.181 66.552C134.353 67.5538 133.853 65.9785 132.024 66.9839C130.196 67.9892 131.028 69.9964 129.531 70.2867C128.035 70.577 126.042 68.9946 124.201 69.9964C122.36 70.9982 122.385 71.862 121.553 71.862C120.72 71.862 119.06 71.285 118.064 71.862C117.067 72.439 115.903 73.1506 115.903 73.1506H157.957C157.957 73.1506 158.453 71.862 156.62 71.0018Z" fill="white"/>
<path opacity="0.5" d="M156.62 71.0018C154.791 70.1416 153.963 70.8602 153.295 70.1416C152.627 69.4229 155.124 67.5574 150.138 65.6918C150.138 65.6918 149.806 61.6739 142.992 61.5323C136.177 61.3907 138.01 65.5502 136.181 66.552C134.353 67.5538 133.853 65.9785 132.024 66.9839C130.196 67.9892 131.028 69.9964 129.531 70.2867C128.035 70.577 126.042 68.9946 124.201 69.9964C122.36 70.9982 122.385 71.862 121.553 71.862C120.72 71.862 119.06 71.285 118.064 71.862C117.067 72.439 115.903 73.1506 115.903 73.1506H157.957C157.957 73.1506 158.453 71.862 156.62 71.0018Z" fill="white"/>
</g>
<g opacity="0.5">
<path opacity="0.5" d="M106.485 49.1069C105.403 48.5936 104.911 49.0219 104.517 48.5936C104.124 48.1652 105.6 47.0643 102.643 45.9598C102.643 45.9598 102.447 43.5774 98.4082 43.4818C94.3697 43.3862 95.4521 45.8642 94.3697 46.459C93.2873 47.0537 92.988 46.105 91.9097 46.7138C90.8314 47.3227 91.3193 48.4838 90.4337 48.6715C89.5481 48.8591 88.3632 47.9033 87.2808 48.498C86.1984 49.0927 86.1943 49.606 85.7023 49.606C85.2103 49.606 84.2263 49.252 83.6523 49.606C83.0783 49.96 82.369 50.3707 82.369 50.3707H107.293C107.293 50.3707 107.568 49.6166 106.485 49.1069Z" fill="white"/>
<path opacity="0.5" d="M106.485 49.1069C105.403 48.5936 104.911 49.0219 104.517 48.5936C104.124 48.1652 105.6 47.0643 102.643 45.9598C102.643 45.9598 102.447 43.5774 98.4082 43.4818C94.3697 43.3862 95.4521 45.8642 94.3697 46.459C93.2873 47.0537 92.988 46.105 91.9097 46.7138C90.8314 47.3227 91.3193 48.4838 90.4337 48.6715C89.5481 48.8591 88.3632 47.9033 87.2808 48.498C86.1984 49.0927 86.1943 49.606 85.7023 49.606C85.2103 49.606 84.2263 49.252 83.6523 49.606C83.0783 49.96 82.369 50.3707 82.369 50.3707H107.293C107.293 50.3707 107.568 49.6166 106.485 49.1069Z" fill="white"/>
</g>
<g opacity="0.5">
<path opacity="0.5" d="M93.8244 85.7282C92.742 85.2184 92.25 85.6432 91.8523 85.2184C91.4546 84.7936 92.9388 83.6856 89.9827 82.5811C89.9827 82.5811 89.7859 80.1987 85.7474 80.1031C81.7089 80.0075 82.7913 82.4855 81.7089 83.0803C80.6265 83.675 80.3272 82.7263 79.2489 83.3351C78.1706 83.944 78.6585 85.1228 77.7688 85.2928C76.8791 85.4627 75.7188 84.5246 74.62 85.1228C73.5212 85.7211 73.5335 86.2273 73.0415 86.2273C72.5495 86.2273 71.5655 85.8733 70.9915 86.2273C70.4175 86.5813 69.7123 86.992 69.7123 86.992H94.6362C94.6362 86.992 94.9068 86.2379 93.8244 85.7282Z" fill="white"/>
<path opacity="0.5" d="M93.8244 85.7282C92.742 85.2184 92.25 85.6432 91.8523 85.2184C91.4546 84.7936 92.9388 83.6856 89.9827 82.5811C89.9827 82.5811 89.7859 80.1987 85.7474 80.1031C81.7089 80.0075 82.7913 82.4855 81.7089 83.0803C80.6265 83.675 80.3272 82.7263 79.2489 83.3351C78.1706 83.944 78.6585 85.1228 77.7688 85.2928C76.8791 85.4627 75.7188 84.5246 74.62 85.1228C73.5212 85.7211 73.5335 86.2273 73.0415 86.2273C72.5495 86.2273 71.5655 85.8733 70.9915 86.2273C70.4175 86.5813 69.7123 86.992 69.7123 86.992H94.6362C94.6362 86.992 94.9068 86.2379 93.8244 85.7282Z" fill="white"/>
</g>
<path d="M25.6455 143.175L74.8947 89.6966C75.1716 89.396 75.5246 89.1542 75.9267 88.9899C76.3288 88.8257 76.7692 88.7433 77.214 88.7491C77.6588 88.7549 78.0961 88.8488 78.4922 89.0235C78.8884 89.1982 79.2328 89.4491 79.499 89.7568L110.159 125.136L138.859 84.5671C139.125 84.1917 139.502 83.8833 139.95 83.6729C140.398 83.4625 140.902 83.3574 141.412 83.3682C141.922 83.3789 142.419 83.5051 142.855 83.7342C143.29 83.9633 143.649 84.2871 143.894 84.6733L180.732 142.903L25.6455 143.175Z" fill="#7AAB56"/>
<path opacity="0.4" d="M25.6455 143.175L74.8947 89.6966C75.1716 89.396 75.5246 89.1542 75.9267 88.9899C76.3288 88.8257 76.7692 88.7433 77.214 88.7491C77.6588 88.7549 78.0961 88.8488 78.4922 89.0235C78.8884 89.1982 79.2328 89.4491 79.499 89.7568L110.159 125.136L138.859 84.5671C139.125 84.1917 139.502 83.8833 139.95 83.6729C140.398 83.4625 140.902 83.3574 141.412 83.3682C141.922 83.3789 142.419 83.5051 142.855 83.7342C143.29 83.9633 143.649 84.2871 143.894 84.6733L180.732 142.903L25.6455 143.175Z" fill="white"/>
<g opacity="0.2">
<path opacity="0.2" d="M78.2403 88.9248L94.8781 143.051L125.997 142.998L79.499 89.7567C79.1782 89.3829 78.742 89.0946 78.2403 88.9248Z" fill="black"/>
<path opacity="0.2" d="M143.91 84.6733C143.639 84.2415 143.226 83.8884 142.724 83.6579C142.221 83.4275 141.651 83.33 141.085 83.3776L165.357 142.928L180.748 142.903L143.91 84.6733Z" fill="black"/>
</g>
<path opacity="0.2" d="M56.4447 142.86L58.3676 133.67L51.5124 142.86H56.4447Z" fill="black"/>
<path d="M144.32 143.016H165.451C165.041 140.782 163.401 141.175 163.164 137.706C163.053 135.964 164.922 133.812 164.758 131.522C164.627 129.638 162.475 127.706 162.298 125.55C162.147 123.603 163.984 121.447 163.807 119.348C163.639 117.365 161.458 115.454 161.265 113.404C161.073 111.354 162.872 109.216 162.663 107.184C162.454 105.152 160.228 103.29 159.994 101.283C159.752 99.2227 161.495 97.0066 161.224 95.0348C160.941 92.9427 158.654 91.1408 158.354 89.2115C158.006 87.0628 159.625 84.7724 159.248 82.9174C158.785 80.6483 156.337 79.0057 155.82 77.3313C154.861 74.2126 155 71.2071 153.848 71.0089C152.618 70.8 152.364 73.7488 151.45 77.0446C150.987 78.6977 148.58 80.3757 148.203 82.6484C147.883 84.4856 149.576 86.7229 149.297 88.8611C149.051 90.7727 146.837 92.6135 146.604 94.695C146.403 96.6491 148.211 98.8085 148.03 100.855C147.858 102.841 145.698 104.749 145.546 106.759C145.394 108.77 147.264 110.894 147.137 112.887C147.005 114.933 144.882 116.862 144.775 118.831C144.656 120.909 146.559 123.008 146.468 124.937C146.366 127.061 144.271 129.033 144.193 130.902C144.099 133.171 146.03 135.267 145.968 136.994C145.841 140.743 143.853 139.968 143.783 142.984L144.32 143.016Z" fill="#7AAB56"/>
<path d="M153.385 77.0304V142.184" stroke="#263238" stroke-miterlimit="10"/>
<path d="M156.682 83.8626L153.242 86.4256L150.429 83.1865" stroke="#263238" stroke-miterlimit="10"/>
<path d="M156.682 95.2012L153.242 97.7677L150.429 94.5251" stroke="#263238" stroke-miterlimit="10"/>
<path d="M156.682 105.867L153.242 108.434L150.429 105.191" stroke="#263238" stroke-miterlimit="10"/>
<path d="M156.682 118.558L153.242 121.121L150.429 117.882" stroke="#263238" stroke-miterlimit="10"/>
<path d="M156.682 131.384L153.242 133.947L150.429 130.707" stroke="#263238" stroke-miterlimit="10"/>
<path d="M122.086 143.016H140.409C140.056 141.08 138.617 141.419 138.424 138.414C138.33 136.906 139.949 135.037 139.81 133.054C139.691 131.419 137.826 129.745 137.682 127.875C137.551 126.187 139.142 124.335 138.99 122.498C138.842 120.778 136.94 119.132 136.784 117.344C136.628 115.556 138.178 113.712 138.014 111.949C137.85 110.186 135.903 108.568 135.698 106.83C135.493 105.092 136.997 103.124 136.768 101.414C136.522 99.6014 134.541 98.0332 134.271 96.3623C133.972 94.5038 135.378 92.5144 135.05 90.9072C134.64 88.939 132.524 87.5159 132.077 86.0645C131.257 83.3599 131.348 80.7545 130.368 80.581C129.318 80.4005 129.08 82.9564 128.285 85.8131C127.875 87.2291 125.825 88.7018 125.468 90.6736C125.194 92.2666 126.661 94.2136 126.419 96.0579C126.206 97.7182 124.275 99.3147 124.087 101.117C123.906 102.816 125.476 104.685 125.317 106.458C125.157 108.232 123.295 109.829 123.164 111.581C123.033 113.333 124.652 115.167 124.542 116.891C124.431 118.615 122.586 120.339 122.492 122.045C122.393 123.847 124.041 125.666 123.959 127.355C123.873 129.21 122.057 130.895 121.991 132.527C121.909 134.495 123.582 136.311 123.529 137.809C123.418 141.062 121.696 140.386 121.631 143.005L122.086 143.016Z" fill="#7AAB56"/>
<path d="M129.95 85.799V142.297" stroke="#263238" stroke-miterlimit="10"/>
<path d="M132.811 91.7214L129.827 93.9445L127.387 91.1373" stroke="#263238" stroke-miterlimit="10"/>
<path d="M132.811 101.556L129.827 103.779L127.387 100.971" stroke="#263238" stroke-miterlimit="10"/>
<path d="M132.811 110.802L129.827 113.029L127.387 110.218" stroke="#263238" stroke-miterlimit="10"/>
<path d="M132.811 121.808L129.827 124.031L127.387 121.224" stroke="#263238" stroke-miterlimit="10"/>
<path d="M132.811 132.931L129.827 135.154L127.387 132.343" stroke="#263238" stroke-miterlimit="10"/>
<path d="M31.16 143.016H49.4829C49.1303 141.08 47.6912 141.419 47.5026 138.414C47.4042 136.906 49.0237 135.037 48.8843 133.054C48.7695 131.419 46.904 129.745 46.7564 127.875C46.6293 126.187 48.2201 124.335 48.0643 122.498C47.9208 120.778 46.0143 119.132 45.8585 117.344C45.7027 115.556 47.2566 113.712 47.0885 111.949C46.9204 110.186 44.9811 108.568 44.7761 106.83C44.5711 105.092 46.0758 103.124 45.8462 101.414C45.6002 99.6014 43.6158 98.0332 43.3493 96.3623C43.05 94.5038 44.4522 92.5144 44.1242 90.9072C43.7142 88.939 41.5986 87.5159 41.1558 86.0645C40.3358 83.3599 40.426 80.7545 39.4461 80.581C38.3965 80.4005 38.1546 82.9564 37.3633 85.8131C36.9533 87.2291 34.9033 88.7018 34.5466 90.6736C34.2719 92.2666 35.7356 94.2136 35.4978 96.0579C35.2805 97.7182 33.3494 99.3147 33.1608 101.117C32.9845 102.816 34.5548 104.685 34.3908 106.458C34.2268 108.232 32.3654 109.829 32.2342 111.581C32.103 113.333 33.7225 115.167 33.6118 116.891C33.5011 118.615 31.6602 120.339 31.5618 122.045C31.4593 123.847 33.1075 125.666 33.0296 127.355C32.9394 129.21 31.1231 130.895 31.0575 132.527C30.9755 134.495 32.6524 136.311 32.5991 137.809C32.4884 141.062 30.7623 140.386 30.7008 143.005L31.16 143.016Z" fill="#7AAB56"/>
<path d="M39.0361 85.799V142.297" stroke="#263238" stroke-miterlimit="10"/>
<path d="M41.8979 91.7214L38.9131 93.9445L36.4736 91.1373" stroke="#263238" stroke-miterlimit="10"/>
<path d="M41.8979 101.556L38.9131 103.779L36.4736 100.971" stroke="#263238" stroke-miterlimit="10"/>
<path d="M41.8979 110.802L38.9131 113.029L36.4736 110.218" stroke="#263238" stroke-miterlimit="10"/>
<path d="M41.8979 121.808L38.9131 124.031L36.4736 121.224" stroke="#263238" stroke-miterlimit="10"/>
<path d="M41.8979 132.931L38.9131 135.154L36.4736 132.343" stroke="#263238" stroke-miterlimit="10"/>
<path d="M130.161 142.942C138.643 141.243 143.923 133.93 141.956 126.607C139.988 119.284 131.518 114.725 123.037 116.423C114.555 118.122 109.275 125.435 111.242 132.758C113.21 140.081 121.68 144.641 130.161 142.942Z" fill="#263238"/>
<path d="M131.846 140.887C139.011 138.387 142.472 131.344 139.576 125.158C136.679 118.972 128.523 115.984 121.358 118.484C114.193 120.985 110.732 128.027 113.629 134.214C116.525 140.4 124.681 143.388 131.846 140.887Z" fill="white"/>
<path d="M126.608 140.205C128.973 140.203 131.286 139.608 133.266 138.492C135.245 137.376 136.807 135.787 137.76 133.918" stroke="#263238" stroke-linecap="round" stroke-linejoin="round"/>
<path d="M126.608 119.146C124.436 119.143 122.302 119.642 120.428 120.591C118.553 121.539 117.007 122.903 115.948 124.541" stroke="#263238" stroke-linecap="round" stroke-linejoin="round"/>
<path d="M126.608 120.201C124.653 120.2 122.733 120.651 121.047 121.506C119.361 122.361 117.97 123.59 117.018 125.065" stroke="#263238" stroke-linecap="round" stroke-linejoin="round"/>
<path d="M126.399 139.147H126.608C128.746 139.148 130.837 138.61 132.626 137.6C134.414 136.589 135.823 135.15 136.678 133.458" stroke="#263238" stroke-linecap="round" stroke-linejoin="round"/>
<path d="M126.608 121.372C124.892 121.372 123.207 121.768 121.729 122.519C120.25 123.27 119.031 124.35 118.199 125.645" stroke="#263238" stroke-linecap="round" stroke-linejoin="round"/>
<path d="M126.608 137.979C128.464 137.979 130.281 137.515 131.839 136.643C133.396 135.771 134.628 134.528 135.386 133.065" stroke="#263238" stroke-linecap="round" stroke-linejoin="round"/>
<path d="M126.608 122.661C125.164 122.661 123.746 122.993 122.5 123.623C121.254 124.253 120.225 125.159 119.519 126.247" stroke="#263238" stroke-linecap="round" stroke-linejoin="round"/>
<path d="M126.608 136.686C128.148 136.687 129.656 136.31 130.957 135.598C132.258 134.887 133.298 133.871 133.955 132.669" stroke="#263238" stroke-linecap="round" stroke-linejoin="round"/>
<path d="M87.8709 139.298C94.0274 133.983 94.0274 125.364 87.8709 120.049C81.7145 114.733 71.733 114.733 65.5766 120.049C59.4202 125.364 59.4202 133.983 65.5766 139.298C71.733 144.614 81.7145 144.614 87.8709 139.298Z" fill="#263238"/>
<path d="M89.6032 134.389C92.6229 128.247 89.3038 121.154 82.1899 118.547C75.076 115.94 66.8611 118.805 63.8414 124.947C60.8217 131.09 64.1408 138.183 71.2547 140.79C78.3686 143.397 86.5835 140.531 89.6032 134.389Z" fill="white"/>
<path d="M76.7233 140.205C79.09 140.205 81.4056 139.611 83.388 138.495C85.3703 137.379 86.9337 135.788 87.8876 133.918" stroke="#263238" stroke-linecap="round" stroke-linejoin="round"/>
<path d="M76.7233 119.146C74.5508 119.143 72.4168 119.642 70.5425 120.59C68.6683 121.539 67.1218 122.903 66.0633 124.541" stroke="#263238" stroke-linecap="round" stroke-linejoin="round"/>
<path d="M76.7233 120.201C74.7679 120.2 72.8479 120.651 71.1619 121.506C69.4759 122.361 68.0851 123.59 67.1334 125.065" stroke="#263238" stroke-linecap="round" stroke-linejoin="round"/>
<path d="M76.5142 139.147H76.7233C78.861 139.148 80.9527 138.611 82.7415 137.6C84.5303 136.59 85.9384 135.15 86.7929 133.458" stroke="#263238" stroke-linecap="round" stroke-linejoin="round"/>
<path d="M76.7233 121.372C75.0075 121.372 73.323 121.768 71.8443 122.519C70.3656 123.271 69.1468 124.35 68.3141 125.645" stroke="#263238" stroke-linecap="round" stroke-linejoin="round"/>
<path d="M76.7233 137.979C78.5801 137.978 80.3973 137.515 81.9556 136.643C83.5139 135.771 84.7467 134.528 85.5055 133.065" stroke="#263238" stroke-linecap="round" stroke-linejoin="round"/>
<path d="M76.7233 122.661C75.2792 122.661 73.8613 122.993 72.6153 123.623C71.3693 124.254 70.3404 125.159 69.6344 126.247" stroke="#263238" stroke-linecap="round" stroke-linejoin="round"/>
<path d="M76.7233 136.686C78.2632 136.687 79.7717 136.31 81.0726 135.599C82.3735 134.887 83.4133 133.871 84.0705 132.669" stroke="#263238" stroke-linecap="round" stroke-linejoin="round"/>
<path d="M113.931 84.8007L112.032 77.5543C112.032 77.5543 109.777 76.8463 107.973 77.7101C106.485 78.4181 101.282 84.691 99.5111 86.861L99.4045 86.7689C99.3806 86.7337 99.3465 86.7044 99.3055 86.6841C99.2645 86.6638 99.218 86.6531 99.1708 86.6531C99.1235 86.6531 99.077 86.6638 99.036 86.6841C98.995 86.7044 98.9609 86.7337 98.9371 86.7689C98.9371 86.7689 97.7071 87.7106 97.7563 88.0398C97.8801 88.2479 98.0375 88.4398 98.2237 88.6097L88.1008 97.4597C88.1008 97.4597 85.3701 97.5128 84.8822 97.7217C84.3943 97.9306 84.3943 97.9837 84.3943 98.7837C84.3943 99.5837 84.5174 100.306 84.6978 100.359C84.8782 100.412 85.977 100.621 86.0959 100.306C86.2148 99.9908 85.7925 99.4138 85.7925 99.4138C85.7925 99.4138 86.0958 98.7341 86.7067 98.943C87.3176 99.1519 87.7974 99.8351 88.5887 99.5731C89.38 99.3112 90.0483 98.2067 90.0483 98.2067L100.983 91.2116C101.192 91.4032 101.415 91.5829 101.651 91.7497C102.041 91.9692 103.406 91.0807 103.386 90.6417C103.389 90.6253 103.389 90.6086 103.386 90.5921L113.931 84.8007Z" fill="#263238"/>
<path d="M87.8138 103.722C87.718 103.722 87.624 103.7 87.5412 103.658C87.4584 103.616 87.3898 103.557 87.3423 103.485L84.7921 99.6333C84.7208 99.5253 84.7022 99.3973 84.7403 99.2775C84.7783 99.1577 84.87 99.0558 84.995 98.9943C85.1201 98.9328 85.2683 98.9167 85.4071 98.9496C85.5459 98.9825 85.6638 99.0616 85.7351 99.1696L88.2853 103.014C88.335 103.085 88.3617 103.167 88.3626 103.25C88.3636 103.333 88.3387 103.415 88.2906 103.488C88.2425 103.56 88.173 103.62 88.0891 103.661C88.0053 103.702 87.9102 103.723 87.8138 103.722Z" fill="white" stroke="#263238" stroke-linecap="round" stroke-linejoin="round"/>
<path d="M97.1003 88.1071L86.6002 97.3111C86.6002 97.3111 83.8655 97.3642 83.3775 97.573C82.8896 97.7819 82.8896 97.835 82.8896 98.635C82.8896 99.4351 83.0126 100.154 83.1971 100.207C83.3816 100.26 84.4723 100.469 84.5912 100.154C84.7101 99.8386 84.2878 99.2616 84.2878 99.2616C84.2878 99.2616 84.5911 98.5819 85.202 98.7908C85.813 98.9996 86.2926 99.6829 87.0839 99.4209C87.8752 99.1589 88.5436 98.058 88.5436 98.058L99.958 90.7302L97.1003 88.1071Z" fill="white" stroke="#263238" stroke-linecap="round" stroke-linejoin="round"/>
<path d="M86.5387 99.3005C86.5395 99.0847 86.4661 98.8736 86.3278 98.6938C86.1896 98.5141 85.9926 98.3737 85.762 98.2907C85.5313 98.2076 85.2772 98.1855 85.032 98.2272C84.7868 98.2689 84.5614 98.3724 84.3844 98.5248C84.2074 98.6771 84.0867 98.8714 84.0376 99.083C83.9886 99.2946 84.0133 99.514 84.1088 99.7134C84.2042 99.9128 84.3661 100.083 84.5739 100.203C84.7816 100.323 85.0259 100.387 85.2759 100.387C85.6101 100.387 85.9306 100.273 86.1673 100.069C86.4041 99.8655 86.5376 99.5891 86.5387 99.3005Z" fill="#263238"/>
<path d="M119.556 100.292C118.416 100.749 117.195 101.038 115.944 101.148C113.959 101.304 112.606 101.071 113.074 102.317C113.541 103.563 116.592 103.796 118.851 103.329C121.11 102.862 122.188 102.161 121.918 100.915C121.647 99.6687 120.278 100.058 119.556 100.292Z" fill="#263238"/>
<path d="M112.426 97.5624C112.426 97.5624 98.5271 106.448 98.1663 108.317C97.8055 110.186 100.331 124.367 100.331 124.367L102.496 124.99C102.496 124.99 103.673 112.367 104.845 109.952C106.018 107.538 117.662 101.849 117.932 98.9784C118.203 96.1075 115.312 96.0827 112.426 97.5624Z" fill="#263238"/>
<path d="M100.331 124.367C99.6528 124.529 98.958 124.633 98.2565 124.679C97.0839 124.757 95.4603 124.212 95.4603 124.601C95.4603 124.99 97.4447 126.474 98.4369 126.551C99.4291 126.629 100.692 126.707 100.692 126.707L100.741 127.313L102.045 127.642L102.496 124.99L100.331 124.367Z" fill="#263238"/>
<path d="M100.752 127.315L96.4836 125.449L95.8725 126.492L100.141 128.358L100.752 127.315Z" fill="white" stroke="#263238" stroke-linecap="round" stroke-linejoin="round"/>
<path d="M98.3016 126.902L103.763 130.134L104.296 128.994L98.4369 126.551L98.3016 126.902Z" fill="white" stroke="#263238" stroke-linecap="round" stroke-linejoin="round"/>
<path d="M126.911 128.895L115.907 105.025C115.878 104.963 115.835 104.908 115.78 104.862L116.362 103.538C116.387 103.48 116.399 103.419 116.397 103.358C116.395 103.297 116.379 103.236 116.35 103.18C116.321 103.124 116.279 103.073 116.228 103.031C116.176 102.989 116.115 102.956 116.048 102.934C115.982 102.912 115.911 102.902 115.84 102.904C115.769 102.906 115.699 102.92 115.634 102.945C115.569 102.97 115.511 103.006 115.462 103.05C115.413 103.095 115.375 103.148 115.349 103.205L114.078 106.097H87.6211C88.0926 104.419 88.3345 103.393 88.3468 103.354C88.3608 103.294 88.3609 103.232 88.3472 103.171C88.3334 103.111 88.3061 103.054 88.2667 103.003C88.2273 102.952 88.1766 102.908 88.1175 102.873C88.0585 102.839 87.9922 102.815 87.9225 102.803C87.8527 102.791 87.7809 102.791 87.7111 102.803C87.6414 102.815 87.575 102.839 87.5158 102.873C87.4566 102.907 87.4057 102.95 87.3661 103.001C87.3265 103.052 87.2989 103.11 87.2849 103.17C87.248 103.326 83.5211 119.057 76.26 129.433C76.1873 129.539 76.1659 129.666 76.2004 129.786C76.2349 129.906 76.3226 130.009 76.4445 130.074C76.5674 130.137 76.7146 130.156 76.8537 130.127C76.9928 130.097 77.1126 130.02 77.1866 129.914C81.0406 124.41 83.9065 117.432 85.7679 112.009L103.73 130.36C103.761 130.438 103.806 130.51 103.861 130.576C103.961 130.696 104.092 130.793 104.244 130.86C104.396 130.927 104.564 130.962 104.734 130.962H104.784L125.96 130.169C126.132 130.163 126.3 130.121 126.45 130.047C126.6 129.973 126.727 129.869 126.821 129.745C126.914 129.619 126.97 129.477 126.986 129.329C127.002 129.181 126.976 129.032 126.911 128.895ZM87.3505 107.032H113.668L103.964 129.157L86.1328 110.933C86.6207 109.471 87.0225 108.147 87.3505 107.032ZM104.739 130.042L115.239 106.111L125.899 129.245L104.739 130.042Z" fill="white" stroke="#263238" stroke-linecap="round" stroke-linejoin="round"/>
<path d="M89.0766 103.262C89.0766 103.046 89.0025 102.835 88.8637 102.656C88.725 102.477 88.5278 102.337 88.297 102.254C88.0663 102.172 87.8124 102.15 87.5674 102.192C87.3224 102.234 87.0974 102.338 86.9208 102.491C86.7442 102.643 86.624 102.838 86.5752 103.049C86.5265 103.261 86.5515 103.48 86.6471 103.679C86.7427 103.878 86.9045 104.049 87.1122 104.168C87.3199 104.288 87.564 104.352 87.8138 104.352C88.1487 104.352 88.4699 104.237 88.7067 104.033C88.9435 103.828 89.0766 103.551 89.0766 103.262Z" fill="white" stroke="#263238" stroke-linecap="round" stroke-linejoin="round"/>
<path d="M78.5068 129.674C78.5068 129.369 78.4022 129.071 78.2062 128.818C78.0102 128.565 77.7317 128.368 77.4058 128.251C77.0799 128.135 76.7213 128.104 76.3753 128.163C76.0294 128.223 75.7116 128.37 75.4621 128.585C75.2127 128.8 75.0428 129.075 74.974 129.373C74.9052 129.672 74.9405 129.982 75.0755 130.263C75.2105 130.544 75.4391 130.785 75.7324 130.954C76.0257 131.123 76.3705 131.214 76.7233 131.214C77.1963 131.214 77.6499 131.051 77.9844 130.763C78.3189 130.474 78.5068 130.082 78.5068 129.674Z" fill="#263238"/>
<path d="M128.174 129.674C128.175 129.368 128.071 129.07 127.875 128.815C127.679 128.561 127.4 128.363 127.074 128.245C126.747 128.128 126.387 128.097 126.04 128.156C125.693 128.215 125.374 128.362 125.124 128.578C124.874 128.793 124.703 129.068 124.634 129.368C124.564 129.667 124.599 129.978 124.735 130.26C124.87 130.542 125.099 130.784 125.393 130.953C125.687 131.123 126.033 131.214 126.387 131.214C126.86 131.214 127.314 131.052 127.649 130.763C127.984 130.474 128.173 130.082 128.174 129.674Z" fill="#263238"/>
<path d="M108.064 129.674C108.064 129.044 107.847 128.428 107.442 127.904C107.036 127.38 106.46 126.971 105.786 126.73C105.112 126.489 104.37 126.426 103.654 126.549C102.938 126.672 102.28 126.975 101.764 127.421C101.248 127.866 100.897 128.434 100.755 129.052C100.612 129.67 100.685 130.311 100.965 130.893C101.244 131.475 101.717 131.973 102.324 132.323C102.93 132.673 103.644 132.86 104.374 132.86C105.352 132.86 106.291 132.524 106.983 131.927C107.675 131.329 108.064 130.519 108.064 129.674Z" fill="#263238"/>
<path d="M109.987 130.29L104.296 128.994C104.19 128.969 104.08 128.962 103.971 128.973C103.862 128.985 103.757 129.016 103.663 129.064C103.568 129.111 103.485 129.174 103.419 129.25C103.353 129.326 103.306 129.412 103.279 129.504C103.247 129.602 103.24 129.706 103.258 129.807C103.277 129.908 103.32 130.004 103.386 130.09C103.452 130.175 103.539 130.247 103.64 130.3C103.741 130.354 103.854 130.387 103.972 130.399L110.351 131.146L109.987 130.29Z" fill="white" stroke="#263238" stroke-linecap="round" stroke-linejoin="round"/>
<path d="M112.406 128.334L109.188 131.391L110.189 132.177L113.407 129.12L112.406 128.334Z" fill="white" stroke="#263238" stroke-linecap="round" stroke-linejoin="round"/>
<path d="M112.34 97.2509C112.34 97.2509 101.446 105.949 100.905 108.363C100.364 110.777 111.438 126.396 111.438 126.396L113.603 125.773C113.603 125.773 107.375 112.055 108.187 111.043C108.998 110.03 123.57 101.531 125.739 98.6527C127.908 95.7747 126.678 92.8967 125.054 91.5727C123.43 90.2487 112.34 97.2509 112.34 97.2509Z" fill="#263238"/>
<path d="M105.116 108.366L108.183 111.043L106.666 107.789" stroke="white" stroke-width="0.75" stroke-linecap="round" stroke-linejoin="round"/>
<path d="M103.008 113.634C103.008 113.634 100.79 108.943 101.454 107.506C102.119 106.069 112.984 98.989 112.984 98.989C112.984 98.989 118.416 97.4102 122.077 98.0297" stroke="white" stroke-width="0.75" stroke-linecap="round" stroke-linejoin="round"/>
<path d="M119.084 97.1659C119.084 97.1659 120.966 96.4013 123.738 97.2615" stroke="white" stroke-width="0.75" stroke-linecap="round" stroke-linejoin="round"/>
<path d="M111.434 126.396C111.434 126.396 110.442 127.33 109.445 128.187C108.449 129.044 107.19 129.277 107.641 129.511C108.092 129.745 108.814 129.978 110.171 129.589C111.528 129.199 113.238 127.875 113.238 127.875L113.508 128.265L115.042 127.557L113.599 125.766L111.434 126.396Z" fill="#263238"/>
<path d="M105.915 66.2582C105.173 65.615 104.269 65.1283 103.273 64.8361C102.278 64.5438 101.218 64.4538 100.175 64.5731C98.2442 64.874 97.7153 67.1361 97.3463 68.4955L97.006 69.738L97.0388 70.6902L96.4238 72.7151C96.4044 72.7768 96.4006 72.8413 96.4126 72.9043C96.4246 72.9673 96.4522 73.0273 96.4934 73.0803C96.5346 73.1334 96.5885 73.1781 96.6514 73.2116C96.7144 73.2451 96.785 73.2665 96.8584 73.2745L97.5472 73.3523C97.6661 74.0143 98.4451 75.3312 98.5476 75.7914C98.9576 77.5614 100.298 77.4375 101.172 77.1649C101.732 76.9343 102.256 76.6415 102.73 76.2941L104.78 77.7915L108.445 74.3471L106.879 72.393C106.879 72.393 107.35 67.5573 105.915 66.2582Z" fill="white" stroke="#263238" stroke-linecap="round" stroke-linejoin="round"/>
<path d="M98.4574 71.1752C98.5148 71.4549 98.4574 71.6992 98.3303 71.7169C98.2032 71.7346 98.0556 71.5257 98.0023 71.246C97.949 70.9664 98.0023 70.7221 98.1253 70.7044C98.2483 70.6867 98.4 70.8956 98.4574 71.1752Z" fill="#263238"/>
<path d="M97.4692 70.0672C97.5773 69.9824 97.7056 69.9189 97.845 69.8813C97.9844 69.8436 98.1316 69.8327 98.2764 69.8492C98.4212 69.8657 98.5601 69.9093 98.6834 69.9769C98.8067 70.0445 98.9115 70.1345 98.9903 70.2407" stroke="#263238" stroke-linecap="round" stroke-linejoin="round"/>
<path d="M100.52 68.0848C100.52 68.0848 99.425 69.207 99.835 69.6212C100.397 70.1012 100.99 70.5539 101.61 70.977C101.61 70.977 102.57 69.5008 103.935 70.092C105.3 70.6832 104.21 72.0992 104.685 72.6868C105.161 73.2745 106.805 72.393 106.94 72.0992C107.076 71.8054 109.54 67.4972 109.675 65.9042C109.81 64.3112 104.755 62.7182 102.57 62.3642C100.384 62.0102 98.7403 62.835 99.1503 62.481C99.5603 62.127 100.245 61.1818 98.9453 61.065C97.6456 60.9482 95.94 62.658 95.94 63.6598C95.9395 63.9314 96.0595 64.1927 96.2753 64.3903C96.4911 64.5878 96.7863 64.7064 97.1003 64.7218C97.1003 64.7218 93.8203 64.0138 94.71 65.667C95.5997 67.3202 97.1003 67.26 98.4697 67.3202C99.2427 67.3331 99.9789 67.6077 100.52 68.0848Z" fill="#263238"/>
<path d="M103.045 70.269H103C102.893 70.2583 102.794 70.2114 102.727 70.1385C102.659 70.0655 102.628 69.9725 102.639 69.8796L103.119 66.2192C103.125 66.1727 103.142 66.1278 103.168 66.0869C103.195 66.046 103.23 66.0099 103.272 65.9808C103.315 65.9518 103.364 65.9302 103.416 65.9173C103.468 65.9045 103.522 65.9006 103.576 65.9059C103.63 65.9113 103.682 65.9257 103.73 65.9485C103.777 65.9712 103.819 66.0018 103.852 66.0384C103.886 66.0751 103.911 66.1171 103.926 66.1621C103.941 66.2071 103.945 66.2542 103.939 66.3007L103.463 69.9575C103.451 70.045 103.402 70.1255 103.324 70.1832C103.247 70.2408 103.147 70.2714 103.045 70.269Z" fill="white" stroke="#263238" stroke-miterlimit="10"/>
<path d="M102.861 73.7134C102.613 73.7139 102.368 73.6722 102.139 73.5908C101.911 73.5093 101.703 73.3897 101.527 73.2388C101.352 73.0878 101.213 72.9086 101.118 72.7112C101.024 72.5138 100.975 72.3022 100.975 72.0886V70.5664C100.976 70.1351 101.175 69.7218 101.529 69.4172C101.882 69.1126 102.361 68.9415 102.861 68.9415C103.36 68.9415 103.839 69.1126 104.193 69.4172C104.547 69.7218 104.746 70.1351 104.747 70.5664V72.0886C104.747 72.3022 104.698 72.5138 104.603 72.7112C104.508 72.9086 104.369 73.0878 104.194 73.2388C104.019 73.3897 103.811 73.5093 103.582 73.5908C103.353 73.6722 103.108 73.7139 102.861 73.7134Z" fill="white" stroke="#263238" stroke-miterlimit="10"/>
<path d="M103.345 62.658L102.75 66.4246C102.734 66.519 102.74 66.6153 102.768 66.7076C102.796 66.7999 102.846 66.8863 102.914 66.9617C102.981 67.0371 103.066 67.0999 103.163 67.1463C103.259 67.1927 103.366 67.2217 103.476 67.2317H103.525C103.633 67.244 103.743 67.2377 103.848 67.2129C103.953 67.1881 104.052 67.1455 104.138 67.0875C104.224 67.0295 104.295 66.9572 104.348 66.875C104.402 66.7928 104.435 66.7022 104.447 66.6087L104.993 62.835C105.008 62.7414 105.001 62.6461 104.972 62.5549C104.944 62.4636 104.895 62.3782 104.827 62.3036C104.76 62.229 104.676 62.1669 104.581 62.1207C104.485 62.0746 104.38 62.0454 104.271 62.035C104.163 62.0221 104.052 62.0281 103.947 62.0526C103.841 62.0772 103.742 62.1197 103.656 62.1778C103.569 62.2358 103.497 62.3082 103.444 62.3907C103.39 62.4732 103.357 62.5641 103.345 62.658Z" fill="white" stroke="#263238" stroke-miterlimit="10"/>
<path d="M108.994 72.924C108.994 72.924 102.434 78.0605 102.529 78.9172C102.623 79.7739 102.414 83.5971 104.849 87.884C107.285 92.171 110.204 95.7747 111.286 97.4102C112.369 99.0457 115.522 97.835 115.522 97.835C115.522 97.835 122.151 95.8278 124.316 94.0366C126.481 92.2453 124.316 88.9743 124.316 88.9743C124.316 88.9743 116.305 79.0801 113.689 76.6658C112.246 75.3094 110.675 74.0579 108.994 72.924Z" fill="#7AAB56" stroke="#263238" stroke-linecap="round" stroke-linejoin="round"/>
<path d="M102.365 79.65C102.365 79.65 103.697 78.6269 104.775 77.7809C105.854 76.9348 111.315 75.9932 112.68 76.2268C114.046 76.4605 114.39 77.526 114.665 77.4658C114.939 77.4056 115.075 75.8728 113.64 73.809C112.205 71.7452 110.015 70.8602 108.855 71.508C107.695 72.1558 104.825 75.2852 103.595 76.5808C102.365 77.8765 101.885 78.6482 102.365 79.65Z" fill="#7AAB56" stroke="#263238" stroke-linecap="round" stroke-linejoin="round"/>
<path d="M108.396 86.422C108.396 86.422 112.791 86.7371 115.845 86.2096" stroke="#263238" stroke-linecap="round" stroke-linejoin="round"/>
<path d="M106.682 86.73C106.682 86.73 110.835 88.946 115.112 89.1549" stroke="#263238" stroke-linecap="round" stroke-linejoin="round"/>
<path d="M110.532 77.3808C110.532 77.3808 108.273 76.6728 106.469 77.5366C104.665 78.4004 97.4037 87.438 97.4037 87.438L101.094 90.847L112.41 84.6379" fill="#7AAB56"/>
<path d="M110.532 77.3808C110.532 77.3808 108.273 76.6728 106.469 77.5366C104.665 78.4004 97.4037 87.438 97.4037 87.438L101.094 90.847L112.41 84.6379" stroke="#263238" stroke-linecap="round" stroke-linejoin="round"/>
<path d="M97.4324 86.599C97.4324 86.599 96.2024 87.5407 96.2516 87.8699C96.3008 88.1991 99.7571 91.3603 100.147 91.5762C100.536 91.7922 101.901 90.9072 101.881 90.4682C101.86 90.0293 97.8998 86.5955 97.8998 86.5955C97.8756 86.5604 97.8412 86.5314 97.7999 86.5114C97.7587 86.4914 97.7122 86.481 97.6649 86.4814C97.6176 86.4817 97.5713 86.4928 97.5305 86.5134C97.4897 86.5341 97.4558 86.5636 97.4324 86.599Z" fill="#7AAB56" stroke="#263238" stroke-linecap="round" stroke-linejoin="round"/>
<path d="M21.5004 144.163H181.991C182.221 144.163 182.442 144.084 182.605 143.943C182.768 143.802 182.86 143.612 182.86 143.412C182.86 143.213 182.768 143.023 182.605 142.882C182.442 142.741 182.221 142.662 181.991 142.662H21.5004C21.3859 142.662 21.2724 142.681 21.1665 142.718C21.0606 142.756 20.9643 142.811 20.8831 142.881C20.802 142.95 20.7376 143.033 20.6936 143.124C20.6497 143.216 20.6271 143.314 20.6271 143.412C20.6271 143.511 20.6497 143.609 20.6936 143.701C20.7376 143.792 20.802 143.875 20.8831 143.944C20.9643 144.014 21.0606 144.069 21.1665 144.107C21.2724 144.144 21.3859 144.163 21.5004 144.163Z" fill="#263238"/>
</svg>
